G04*
G04 #@! TF.GenerationSoftware,Altium Limited,Altium Designer,23.3.1 (30)*
G04*
G04 Layer_Physical_Order=1*
G04 Layer_Color=255*
%FSLAX44Y44*%
%MOMM*%
G71*
G04*
G04 #@! TF.SameCoordinates,313F503E-43F4-47E4-83EF-6EFAA7C5E57D*
G04*
G04*
G04 #@! TF.FilePolarity,Positive*
G04*
G01*
G75*
%ADD16C,0.2540*%
%ADD17R,1.0160X0.9398*%
G04:AMPARAMS|DCode=18|XSize=1.2mm|YSize=0.6mm|CornerRadius=0.15mm|HoleSize=0mm|Usage=FLASHONLY|Rotation=270.000|XOffset=0mm|YOffset=0mm|HoleType=Round|Shape=RoundedRectangle|*
%AMROUNDEDRECTD18*
21,1,1.2000,0.3000,0,0,270.0*
21,1,0.9000,0.6000,0,0,270.0*
1,1,0.3000,-0.1500,-0.4500*
1,1,0.3000,-0.1500,0.4500*
1,1,0.3000,0.1500,0.4500*
1,1,0.3000,0.1500,-0.4500*
%
%ADD18ROUNDEDRECTD18*%
%ADD19R,1.2000X1.2000*%
G04:AMPARAMS|DCode=20|XSize=1.35mm|YSize=1.1mm|CornerRadius=0.275mm|HoleSize=0mm|Usage=FLASHONLY|Rotation=90.000|XOffset=0mm|YOffset=0mm|HoleType=Round|Shape=RoundedRectangle|*
%AMROUNDEDRECTD20*
21,1,1.3500,0.5500,0,0,90.0*
21,1,0.8000,1.1000,0,0,90.0*
1,1,0.5500,0.2750,0.4000*
1,1,0.5500,0.2750,-0.4000*
1,1,0.5500,-0.2750,-0.4000*
1,1,0.5500,-0.2750,0.4000*
%
%ADD20ROUNDEDRECTD20*%
G04:AMPARAMS|DCode=21|XSize=3.3mm|YSize=2.4mm|CornerRadius=0.36mm|HoleSize=0mm|Usage=FLASHONLY|Rotation=90.000|XOffset=0mm|YOffset=0mm|HoleType=Round|Shape=RoundedRectangle|*
%AMROUNDEDRECTD21*
21,1,3.3000,1.6800,0,0,90.0*
21,1,2.5800,2.4000,0,0,90.0*
1,1,0.7200,0.8400,1.2900*
1,1,0.7200,0.8400,-1.2900*
1,1,0.7200,-0.8400,-1.2900*
1,1,0.7200,-0.8400,1.2900*
%
%ADD21ROUNDEDRECTD21*%
G04:AMPARAMS|DCode=22|XSize=1mm|YSize=2.4mm|CornerRadius=0.25mm|HoleSize=0mm|Usage=FLASHONLY|Rotation=90.000|XOffset=0mm|YOffset=0mm|HoleType=Round|Shape=RoundedRectangle|*
%AMROUNDEDRECTD22*
21,1,1.0000,1.9000,0,0,90.0*
21,1,0.5000,2.4000,0,0,90.0*
1,1,0.5000,0.9500,0.2500*
1,1,0.5000,0.9500,-0.2500*
1,1,0.5000,-0.9500,-0.2500*
1,1,0.5000,-0.9500,0.2500*
%
%ADD22ROUNDEDRECTD22*%
%ADD23R,0.3048X1.1938*%
%ADD24R,1.1938X0.3048*%
%ADD25R,0.9398X1.0160*%
G04:AMPARAMS|DCode=26|XSize=0.6mm|YSize=1.5mm|CornerRadius=0.15mm|HoleSize=0mm|Usage=FLASHONLY|Rotation=270.000|XOffset=0mm|YOffset=0mm|HoleType=Round|Shape=RoundedRectangle|*
%AMROUNDEDRECTD26*
21,1,0.6000,1.2000,0,0,270.0*
21,1,0.3000,1.5000,0,0,270.0*
1,1,0.3000,-0.6000,-0.1500*
1,1,0.3000,-0.6000,0.1500*
1,1,0.3000,0.6000,0.1500*
1,1,0.3000,0.6000,-0.1500*
%
%ADD26ROUNDEDRECTD26*%
G04:AMPARAMS|DCode=27|XSize=0.6mm|YSize=1.45mm|CornerRadius=0.15mm|HoleSize=0mm|Usage=FLASHONLY|Rotation=0.000|XOffset=0mm|YOffset=0mm|HoleType=Round|Shape=RoundedRectangle|*
%AMROUNDEDRECTD27*
21,1,0.6000,1.1500,0,0,0.0*
21,1,0.3000,1.4500,0,0,0.0*
1,1,0.3000,0.1500,-0.5750*
1,1,0.3000,-0.1500,-0.5750*
1,1,0.3000,-0.1500,0.5750*
1,1,0.3000,0.1500,0.5750*
%
%ADD27ROUNDEDRECTD27*%
G04:AMPARAMS|DCode=28|XSize=0.65mm|YSize=1.3mm|CornerRadius=0.1625mm|HoleSize=0mm|Usage=FLASHONLY|Rotation=90.000|XOffset=0mm|YOffset=0mm|HoleType=Round|Shape=RoundedRectangle|*
%AMROUNDEDRECTD28*
21,1,0.6500,0.9750,0,0,90.0*
21,1,0.3250,1.3000,0,0,90.0*
1,1,0.3250,0.4875,0.1625*
1,1,0.3250,0.4875,-0.1625*
1,1,0.3250,-0.4875,-0.1625*
1,1,0.3250,-0.4875,0.1625*
%
%ADD28ROUNDEDRECTD28*%
G04:AMPARAMS|DCode=29|XSize=2.3mm|YSize=0.5mm|CornerRadius=0.125mm|HoleSize=0mm|Usage=FLASHONLY|Rotation=0.000|XOffset=0mm|YOffset=0mm|HoleType=Round|Shape=RoundedRectangle|*
%AMROUNDEDRECTD29*
21,1,2.3000,0.2500,0,0,0.0*
21,1,2.0500,0.5000,0,0,0.0*
1,1,0.2500,1.0250,-0.1250*
1,1,0.2500,-1.0250,-0.1250*
1,1,0.2500,-1.0250,0.1250*
1,1,0.2500,1.0250,0.1250*
%
%ADD29ROUNDEDRECTD29*%
G04:AMPARAMS|DCode=30|XSize=2.5mm|YSize=2mm|CornerRadius=0.5mm|HoleSize=0mm|Usage=FLASHONLY|Rotation=0.000|XOffset=0mm|YOffset=0mm|HoleType=Round|Shape=RoundedRectangle|*
%AMROUNDEDRECTD30*
21,1,2.5000,1.0000,0,0,0.0*
21,1,1.5000,2.0000,0,0,0.0*
1,1,1.0000,0.7500,-0.5000*
1,1,1.0000,-0.7500,-0.5000*
1,1,1.0000,-0.7500,0.5000*
1,1,1.0000,0.7500,0.5000*
%
%ADD30ROUNDEDRECTD30*%
G04:AMPARAMS|DCode=31|XSize=0.9mm|YSize=0.3mm|CornerRadius=0.075mm|HoleSize=0mm|Usage=FLASHONLY|Rotation=0.000|XOffset=0mm|YOffset=0mm|HoleType=Round|Shape=RoundedRectangle|*
%AMROUNDEDRECTD31*
21,1,0.9000,0.1500,0,0,0.0*
21,1,0.7500,0.3000,0,0,0.0*
1,1,0.1500,0.3750,-0.0750*
1,1,0.1500,-0.3750,-0.0750*
1,1,0.1500,-0.3750,0.0750*
1,1,0.1500,0.3750,0.0750*
%
%ADD31ROUNDEDRECTD31*%
G04:AMPARAMS|DCode=32|XSize=0.9mm|YSize=0.3mm|CornerRadius=0.075mm|HoleSize=0mm|Usage=FLASHONLY|Rotation=90.000|XOffset=0mm|YOffset=0mm|HoleType=Round|Shape=RoundedRectangle|*
%AMROUNDEDRECTD32*
21,1,0.9000,0.1500,0,0,90.0*
21,1,0.7500,0.3000,0,0,90.0*
1,1,0.1500,0.0750,0.3750*
1,1,0.1500,0.0750,-0.3750*
1,1,0.1500,-0.0750,-0.3750*
1,1,0.1500,-0.0750,0.3750*
%
%ADD32ROUNDEDRECTD32*%
G04:AMPARAMS|DCode=33|XSize=0.3mm|YSize=0.3mm|CornerRadius=0.075mm|HoleSize=0mm|Usage=FLASHONLY|Rotation=0.000|XOffset=0mm|YOffset=0mm|HoleType=Round|Shape=RoundedRectangle|*
%AMROUNDEDRECTD33*
21,1,0.3000,0.1500,0,0,0.0*
21,1,0.1500,0.3000,0,0,0.0*
1,1,0.1500,0.0750,-0.0750*
1,1,0.1500,-0.0750,-0.0750*
1,1,0.1500,-0.0750,0.0750*
1,1,0.1500,0.0750,0.0750*
%
%ADD33ROUNDEDRECTD33*%
%ADD34R,0.3000X0.3000*%
G04:AMPARAMS|DCode=35|XSize=1.8mm|YSize=1.8mm|CornerRadius=0.45mm|HoleSize=0mm|Usage=FLASHONLY|Rotation=0.000|XOffset=0mm|YOffset=0mm|HoleType=Round|Shape=RoundedRectangle|*
%AMROUNDEDRECTD35*
21,1,1.8000,0.9000,0,0,0.0*
21,1,0.9000,1.8000,0,0,0.0*
1,1,0.9000,0.4500,-0.4500*
1,1,0.9000,-0.4500,-0.4500*
1,1,0.9000,-0.4500,0.4500*
1,1,0.9000,0.4500,0.4500*
%
%ADD35ROUNDEDRECTD35*%
%ADD66C,0.7620*%
%ADD67C,0.3810*%
%ADD68C,2.4000*%
%ADD69R,2.4000X2.4000*%
%ADD70R,1.3700X1.3700*%
%ADD71C,1.3700*%
G04:AMPARAMS|DCode=72|XSize=1.5mm|YSize=4mm|CornerRadius=0.375mm|HoleSize=0mm|Usage=FLASHONLY|Rotation=0.000|XOffset=0mm|YOffset=0mm|HoleType=Round|Shape=RoundedRectangle|*
%AMROUNDEDRECTD72*
21,1,1.5000,3.2500,0,0,0.0*
21,1,0.7500,4.0000,0,0,0.0*
1,1,0.7500,0.3750,-1.6250*
1,1,0.7500,-0.3750,-1.6250*
1,1,0.7500,-0.3750,1.6250*
1,1,0.7500,0.3750,1.6250*
%
%ADD72ROUNDEDRECTD72*%
G04:AMPARAMS|DCode=73|XSize=1.5mm|YSize=3.5mm|CornerRadius=0.375mm|HoleSize=0mm|Usage=FLASHONLY|Rotation=180.000|XOffset=0mm|YOffset=0mm|HoleType=Round|Shape=RoundedRectangle|*
%AMROUNDEDRECTD73*
21,1,1.5000,2.7500,0,0,180.0*
21,1,0.7500,3.5000,0,0,180.0*
1,1,0.7500,-0.3750,1.3750*
1,1,0.7500,0.3750,1.3750*
1,1,0.7500,0.3750,-1.3750*
1,1,0.7500,-0.3750,-1.3750*
%
%ADD73ROUNDEDRECTD73*%
G04:AMPARAMS|DCode=74|XSize=1.5mm|YSize=3.5mm|CornerRadius=0.375mm|HoleSize=0mm|Usage=FLASHONLY|Rotation=270.000|XOffset=0mm|YOffset=0mm|HoleType=Round|Shape=RoundedRectangle|*
%AMROUNDEDRECTD74*
21,1,1.5000,2.7500,0,0,270.0*
21,1,0.7500,3.5000,0,0,270.0*
1,1,0.7500,-1.3750,-0.3750*
1,1,0.7500,-1.3750,0.3750*
1,1,0.7500,1.3750,0.3750*
1,1,0.7500,1.3750,-0.3750*
%
%ADD74ROUNDEDRECTD74*%
%ADD75C,1.4000*%
%ADD76R,1.6500X1.6500*%
%ADD77C,1.6500*%
%ADD78C,0.5080*%
%ADD79C,1.2700*%
G36*
X700731Y2849D02*
X2849D01*
Y665171D01*
X700731D01*
X700731Y2849D01*
D02*
G37*
%LPC*%
G36*
X101600Y660293D02*
Y656590D01*
X105302D01*
X104637Y658198D01*
X103208Y659627D01*
X101600Y660293D01*
D02*
G37*
G36*
X99060D02*
X97452Y659627D01*
X96023Y658198D01*
X95358Y656590D01*
X99060D01*
Y660293D01*
D02*
G37*
G36*
X68580Y657753D02*
Y654050D01*
X72283D01*
X71617Y655658D01*
X70188Y657087D01*
X68580Y657753D01*
D02*
G37*
G36*
X66040D02*
X64432Y657087D01*
X63003Y655658D01*
X62337Y654050D01*
X66040D01*
Y657753D01*
D02*
G37*
G36*
X21240Y657403D02*
Y653701D01*
X24943D01*
X24277Y655308D01*
X22848Y656737D01*
X21240Y657403D01*
D02*
G37*
G36*
X18700D02*
X17092Y656737D01*
X15663Y655308D01*
X14998Y653701D01*
X18700D01*
Y657403D01*
D02*
G37*
G36*
X605280Y656643D02*
Y652940D01*
X608982D01*
X608316Y654548D01*
X606887Y655977D01*
X605280Y656643D01*
D02*
G37*
G36*
X602740D02*
X601132Y655977D01*
X599703Y654548D01*
X599037Y652940D01*
X602740D01*
Y656643D01*
D02*
G37*
G36*
X648970Y656482D02*
Y652780D01*
X652673D01*
X652007Y654388D01*
X650578Y655817D01*
X648970Y656482D01*
D02*
G37*
G36*
X646430D02*
X644822Y655817D01*
X643393Y654388D01*
X642728Y652780D01*
X646430D01*
Y656482D01*
D02*
G37*
G36*
X552450D02*
Y652780D01*
X556152D01*
X555487Y654388D01*
X554058Y655817D01*
X552450Y656482D01*
D02*
G37*
G36*
X549910D02*
X548302Y655817D01*
X546873Y654388D01*
X546208Y652780D01*
X549910D01*
Y656482D01*
D02*
G37*
G36*
X375920D02*
Y652780D01*
X379622D01*
X378957Y654388D01*
X377528Y655817D01*
X375920Y656482D01*
D02*
G37*
G36*
X373380D02*
X371772Y655817D01*
X370343Y654388D01*
X369678Y652780D01*
X373380D01*
Y656482D01*
D02*
G37*
G36*
X177800D02*
Y652780D01*
X181502D01*
X180837Y654388D01*
X179408Y655817D01*
X177800Y656482D01*
D02*
G37*
G36*
X175260D02*
X173652Y655817D01*
X172223Y654388D01*
X171558Y652780D01*
X175260D01*
Y656482D01*
D02*
G37*
G36*
X105302Y654050D02*
X101600D01*
Y650348D01*
X103208Y651013D01*
X104637Y652442D01*
X105302Y654050D01*
D02*
G37*
G36*
X99060D02*
X95358D01*
X96023Y652442D01*
X97452Y651013D01*
X99060Y650348D01*
Y654050D01*
D02*
G37*
G36*
X303374Y652841D02*
Y649138D01*
X307076D01*
X306411Y650746D01*
X304981Y652175D01*
X303374Y652841D01*
D02*
G37*
G36*
X300834D02*
X299226Y652175D01*
X297797Y650746D01*
X297131Y649138D01*
X300834D01*
Y652841D01*
D02*
G37*
G36*
X242570Y652673D02*
Y648970D01*
X246273D01*
X245607Y650578D01*
X244178Y652007D01*
X242570Y652673D01*
D02*
G37*
G36*
X240030D02*
X238422Y652007D01*
X236993Y650578D01*
X236327Y648970D01*
X240030D01*
Y652673D01*
D02*
G37*
G36*
X72283Y651510D02*
X68580D01*
Y647807D01*
X70188Y648473D01*
X71617Y649902D01*
X72283Y651510D01*
D02*
G37*
G36*
X66040D02*
X62337D01*
X63003Y649902D01*
X64432Y648473D01*
X66040Y647807D01*
Y651510D01*
D02*
G37*
G36*
X24943Y651161D02*
X21240D01*
Y647458D01*
X22848Y648124D01*
X24277Y649553D01*
X24943Y651161D01*
D02*
G37*
G36*
X18700D02*
X14998D01*
X15663Y649553D01*
X17092Y648124D01*
X18700Y647458D01*
Y651161D01*
D02*
G37*
G36*
X608982Y650400D02*
X605280D01*
Y646698D01*
X606887Y647364D01*
X608316Y648793D01*
X608982Y650400D01*
D02*
G37*
G36*
X602740D02*
X599037D01*
X599703Y648793D01*
X601132Y647364D01*
X602740Y646698D01*
Y650400D01*
D02*
G37*
G36*
X652673Y650240D02*
X648970D01*
Y646537D01*
X650578Y647203D01*
X652007Y648632D01*
X652673Y650240D01*
D02*
G37*
G36*
X646430D02*
X642728D01*
X643393Y648632D01*
X644822Y647203D01*
X646430Y646537D01*
Y650240D01*
D02*
G37*
G36*
X556152D02*
X552450D01*
Y646537D01*
X554058Y647203D01*
X555487Y648632D01*
X556152Y650240D01*
D02*
G37*
G36*
X549910D02*
X546208D01*
X546873Y648632D01*
X548302Y647203D01*
X549910Y646537D01*
Y650240D01*
D02*
G37*
G36*
X379622D02*
X375920D01*
Y646537D01*
X377528Y647203D01*
X378957Y648632D01*
X379622Y650240D01*
D02*
G37*
G36*
X373380D02*
X369678D01*
X370343Y648632D01*
X371772Y647203D01*
X373380Y646537D01*
Y650240D01*
D02*
G37*
G36*
X181502D02*
X177800D01*
Y646537D01*
X179408Y647203D01*
X180837Y648632D01*
X181502Y650240D01*
D02*
G37*
G36*
X175260D02*
X171558D01*
X172223Y648632D01*
X173652Y647203D01*
X175260Y646537D01*
Y650240D01*
D02*
G37*
G36*
X466090Y647592D02*
Y643890D01*
X469793D01*
X469127Y645498D01*
X467698Y646927D01*
X466090Y647592D01*
D02*
G37*
G36*
X463550D02*
X461942Y646927D01*
X460513Y645498D01*
X459847Y643890D01*
X463550D01*
Y647592D01*
D02*
G37*
G36*
X307076Y646598D02*
X303374D01*
Y642896D01*
X304981Y643561D01*
X306411Y644990D01*
X307076Y646598D01*
D02*
G37*
G36*
X300834D02*
X297131D01*
X297797Y644990D01*
X299226Y643561D01*
X300834Y642896D01*
Y646598D01*
D02*
G37*
G36*
X246273Y646430D02*
X242570D01*
Y642728D01*
X244178Y643393D01*
X245607Y644822D01*
X246273Y646430D01*
D02*
G37*
G36*
X240030D02*
X236327D01*
X236993Y644822D01*
X238422Y643393D01*
X240030Y642728D01*
Y646430D01*
D02*
G37*
G36*
X511810Y646322D02*
Y642620D01*
X515513D01*
X514847Y644228D01*
X513418Y645657D01*
X511810Y646322D01*
D02*
G37*
G36*
X509270D02*
X507662Y645657D01*
X506233Y644228D01*
X505568Y642620D01*
X509270D01*
Y646322D01*
D02*
G37*
G36*
X673100Y641659D02*
X673100Y641659D01*
X572140D01*
X572140Y641659D01*
X571050Y641442D01*
X570126Y640824D01*
X535914Y606613D01*
X524860D01*
X523680Y606379D01*
X522680Y605710D01*
X522011Y604710D01*
X521777Y603530D01*
Y600530D01*
X521812Y600355D01*
X520778Y599085D01*
X503494D01*
X483113Y619466D01*
X483599Y620639D01*
X494222D01*
X502777Y612085D01*
Y610030D01*
X503012Y608850D01*
X503680Y607850D01*
X504680Y607182D01*
X505860Y606947D01*
X517860D01*
X519040Y607182D01*
X520040Y607850D01*
X520709Y608850D01*
X520943Y610030D01*
Y613030D01*
X520709Y614210D01*
X520040Y615210D01*
X519040Y615878D01*
X517860Y616113D01*
X506805D01*
X497416Y625502D01*
X496492Y626120D01*
X495402Y626337D01*
X495402Y626337D01*
X430658D01*
X429568Y626120D01*
X428644Y625502D01*
X428644Y625502D01*
X421354Y618213D01*
X419300D01*
X418120Y617979D01*
X417120Y617310D01*
X416451Y616310D01*
X416217Y615130D01*
Y606130D01*
X416451Y604950D01*
X417120Y603950D01*
X418120Y603282D01*
X419300Y603047D01*
X422300D01*
X423480Y603282D01*
X424480Y603950D01*
X425149Y604950D01*
X425383Y606130D01*
Y613652D01*
X425947Y614079D01*
X427217Y613448D01*
Y606130D01*
X427452Y604950D01*
X428120Y603950D01*
X429120Y603282D01*
X430300Y603047D01*
X433300D01*
X434480Y603282D01*
X435480Y603950D01*
X436148Y604950D01*
X436383Y606130D01*
Y613652D01*
X436947Y614079D01*
X438217Y613448D01*
Y606130D01*
X438451Y604950D01*
X439120Y603950D01*
X440120Y603282D01*
X441300Y603047D01*
X444300D01*
X445480Y603282D01*
X446480Y603950D01*
X447149Y604950D01*
X447383Y606130D01*
Y607781D01*
X480993D01*
X498616Y590158D01*
X498616Y590158D01*
X499540Y589540D01*
X500631Y589323D01*
X500631Y589323D01*
X596780D01*
X596780Y589323D01*
X597870Y589540D01*
X598794Y590158D01*
X616658Y608021D01*
X626924D01*
X627480Y607190D01*
X628480Y606521D01*
X629660Y606287D01*
X641660D01*
X642840Y606521D01*
X643840Y607190D01*
X644509Y608190D01*
X644743Y609370D01*
Y612370D01*
X644509Y613550D01*
X643840Y614550D01*
X642840Y615219D01*
X641660Y615453D01*
X629660D01*
X628480Y615219D01*
X627480Y614550D01*
X626924Y613719D01*
X615478D01*
X615478Y613719D01*
X614979Y613620D01*
X614354Y614790D01*
X630445Y630881D01*
X662631D01*
Y626823D01*
X661361Y625850D01*
X660660Y625989D01*
X655930D01*
Y620370D01*
Y614751D01*
X660660D01*
X661361Y614890D01*
X662631Y613917D01*
Y606601D01*
X661361Y605814D01*
X660660Y605953D01*
X648660D01*
X647480Y605718D01*
X646480Y605050D01*
X645811Y604050D01*
X645577Y602870D01*
Y600816D01*
X630700Y585938D01*
X630082Y585014D01*
X629865Y583924D01*
X629865Y583924D01*
Y581914D01*
X622300D01*
Y574253D01*
X621127Y573767D01*
X609695Y585198D01*
X608771Y585816D01*
X607681Y586033D01*
X607681Y586033D01*
X573786D01*
X573786Y586033D01*
X572696Y585816D01*
X571772Y585198D01*
X568487Y581914D01*
X559308D01*
Y570031D01*
X542036D01*
Y574421D01*
X534416D01*
X526796D01*
Y570031D01*
X512990D01*
X509524Y573497D01*
Y581914D01*
X496316D01*
Y569468D01*
X505495D01*
X507878Y567085D01*
X507392Y565912D01*
X496316D01*
Y557495D01*
X484087Y545266D01*
X468884D01*
Y556133D01*
X455676D01*
Y545266D01*
X453822D01*
X440052Y559036D01*
X439128Y559654D01*
X438404Y559798D01*
Y571754D01*
X437239D01*
Y574127D01*
X438416Y574877D01*
X438508Y574865D01*
X439120Y573950D01*
X440120Y573282D01*
X441300Y573047D01*
X444300D01*
X445480Y573282D01*
X446480Y573950D01*
X447149Y574950D01*
X447149Y574952D01*
X455564D01*
X456842Y573674D01*
Y572135D01*
X455676D01*
Y559689D01*
X458071D01*
X458434Y559145D01*
X460199Y557966D01*
X462280Y557552D01*
X464361Y557966D01*
X466126Y559145D01*
X466489Y559689D01*
X468884D01*
Y572135D01*
X467719D01*
Y575926D01*
X467304Y578008D01*
X466126Y579772D01*
X461662Y584236D01*
X459897Y585415D01*
X457816Y585829D01*
X447244D01*
X447149Y586310D01*
X446480Y587310D01*
X445480Y587979D01*
X444300Y588213D01*
X441300D01*
X440120Y587979D01*
X439120Y587310D01*
X438451Y586310D01*
X438217Y585130D01*
Y584067D01*
X436998Y583557D01*
X436912Y583570D01*
X436383Y584090D01*
Y585130D01*
X436148Y586310D01*
X435480Y587310D01*
X434480Y587979D01*
X433300Y588213D01*
X430300D01*
X429120Y587979D01*
X428120Y587310D01*
X427452Y586310D01*
X427217Y585130D01*
Y584067D01*
X425998Y583557D01*
X425912Y583570D01*
X425383Y584090D01*
Y585130D01*
X425149Y586310D01*
X424480Y587310D01*
X423480Y587979D01*
X422300Y588213D01*
X419300D01*
X418120Y587979D01*
X417120Y587310D01*
X416451Y586310D01*
X416404Y586068D01*
X405784D01*
X403703Y585654D01*
X401938Y584476D01*
X397474Y580012D01*
X396296Y578247D01*
X395882Y576166D01*
Y571754D01*
X394716D01*
Y559798D01*
X393993Y559654D01*
X393068Y559036D01*
X368457Y534425D01*
X367284Y534911D01*
Y539115D01*
X363529D01*
Y550203D01*
X365050Y551724D01*
X365310Y551672D01*
X370810D01*
X372478Y552004D01*
X373891Y552949D01*
X374836Y554362D01*
X375168Y556030D01*
Y564030D01*
X374836Y565698D01*
X373891Y567111D01*
X372478Y568056D01*
X370909Y568368D01*
Y610192D01*
X372478Y610504D01*
X373891Y611449D01*
X374836Y612862D01*
X375168Y614530D01*
Y622530D01*
X374836Y624198D01*
X373891Y625611D01*
X372478Y626556D01*
X370810Y626888D01*
X365310D01*
X363642Y626556D01*
X362229Y625611D01*
X361284Y624198D01*
X360952Y622530D01*
Y614530D01*
X361284Y612862D01*
X362229Y611449D01*
X363642Y610504D01*
X365211Y610192D01*
Y568368D01*
X363642Y568056D01*
X362229Y567111D01*
X361284Y565698D01*
X360952Y564030D01*
Y556030D01*
X361010Y555741D01*
X358666Y553397D01*
X358048Y552473D01*
X357831Y551383D01*
X357831Y551383D01*
Y539115D01*
X354076D01*
Y535741D01*
X336804D01*
Y539115D01*
X323596D01*
Y526669D01*
X336804D01*
Y530043D01*
X354076D01*
Y526669D01*
X365705D01*
Y523113D01*
X354076D01*
Y510667D01*
X365705D01*
Y507771D01*
X338993Y481059D01*
X337820Y481545D01*
Y482219D01*
X331470D01*
Y476250D01*
X332525D01*
X333011Y475077D01*
X318280Y460345D01*
X317662Y459421D01*
X317445Y458331D01*
X317445Y458331D01*
Y437343D01*
X313009D01*
Y493130D01*
X316195Y496316D01*
X317038D01*
X318532Y496935D01*
X319675Y498078D01*
X320294Y499572D01*
Y501188D01*
X319675Y502682D01*
X318532Y503825D01*
X317038Y504444D01*
X315422D01*
X313928Y503825D01*
X312785Y502682D01*
X312166Y501188D01*
Y500345D01*
X308146Y496324D01*
X307528Y495400D01*
X307311Y494310D01*
X307311Y494310D01*
Y450969D01*
X306041Y450443D01*
X305138Y451347D01*
X303530Y452012D01*
Y447040D01*
Y442067D01*
X305138Y442733D01*
X306041Y443637D01*
X307311Y443111D01*
Y437343D01*
X297112D01*
Y426815D01*
X295842Y425980D01*
X295334Y426081D01*
X295334Y426081D01*
X274051D01*
X272961Y425864D01*
X272037Y425246D01*
X272037Y425246D01*
X257243Y410453D01*
X228802D01*
X227712Y410236D01*
X226788Y409618D01*
X226788Y409618D01*
X224712Y407542D01*
X224150Y406702D01*
X224039Y406600D01*
X222719Y406170D01*
X222657Y406202D01*
X221770Y406379D01*
X220270D01*
X219383Y406202D01*
X218520Y405756D01*
X217657Y406202D01*
X216770Y406379D01*
X215270D01*
X214383Y406202D01*
X213631Y405699D01*
X213128Y404947D01*
X212952Y404060D01*
Y401417D01*
X211770Y400378D01*
X210270D01*
X209383Y400202D01*
X208631Y399700D01*
X208128Y398947D01*
X207952Y398060D01*
Y396560D01*
X206913Y395378D01*
X204270D01*
X203383Y395202D01*
X202631Y394699D01*
X202128Y393947D01*
X201952Y393060D01*
Y391560D01*
X202128Y390673D01*
X202108Y390572D01*
X201898Y390432D01*
X201171Y389344D01*
X201019Y388580D01*
X208020D01*
Y386040D01*
X200663D01*
X199907Y385119D01*
X196016D01*
X196016Y385119D01*
X194926Y384902D01*
X194001Y384284D01*
X194001Y384284D01*
X185946Y376229D01*
X185328Y375304D01*
X185111Y374214D01*
X185111Y374214D01*
Y364272D01*
Y355510D01*
X184676Y355074D01*
X184676Y355074D01*
X176620Y347019D01*
X157789D01*
Y364337D01*
X158391Y365047D01*
X158933Y365405D01*
X158985Y365394D01*
X168735D01*
X169964Y365639D01*
X171005Y366335D01*
X171701Y367376D01*
X171946Y368605D01*
Y371855D01*
X171713Y373023D01*
X171709Y373096D01*
X172420Y374294D01*
X172722D01*
X174803Y374707D01*
X176568Y375886D01*
X184186Y383504D01*
X185364Y385269D01*
X185779Y387350D01*
Y411226D01*
X186944D01*
Y423672D01*
X173736D01*
Y422887D01*
X129259D01*
X127178Y422473D01*
X125413Y421295D01*
X102747Y398629D01*
X98620D01*
X97786Y398462D01*
X85643D01*
X83930Y398122D01*
X82920Y398707D01*
X82660Y398974D01*
Y400446D01*
X82010Y402872D01*
X80754Y405048D01*
X78978Y406824D01*
X76802Y408080D01*
X74390Y408726D01*
Y399190D01*
X73120D01*
Y397920D01*
X63584D01*
X64230Y395508D01*
X65486Y393332D01*
X67262Y391556D01*
X69438Y390300D01*
X71864Y389650D01*
X72782D01*
X73308Y388380D01*
X56940Y372013D01*
X55761Y370248D01*
X55347Y368167D01*
Y345475D01*
X54078Y344626D01*
X53088Y345036D01*
X51120Y345295D01*
X44890D01*
Y333960D01*
X58725D01*
Y335983D01*
X59995Y336509D01*
X150414Y246090D01*
X152178Y244911D01*
X154260Y244498D01*
X179101D01*
X249016Y174583D01*
Y167226D01*
X262435D01*
Y156337D01*
X256373Y150274D01*
X249016D01*
Y148188D01*
X228504D01*
Y150274D01*
X213456D01*
Y148188D01*
X195484D01*
Y150274D01*
X180436D01*
Y135226D01*
X195484D01*
Y137311D01*
X213456D01*
Y135226D01*
X228504D01*
Y137311D01*
X249016D01*
Y135226D01*
X264064D01*
Y142583D01*
X271720Y150238D01*
X272899Y152003D01*
X273312Y154084D01*
Y182959D01*
X272899Y185041D01*
X271720Y186805D01*
X259566Y198959D01*
Y211201D01*
X259461Y211726D01*
Y218694D01*
X247015D01*
Y205486D01*
X248689D01*
Y196706D01*
X249102Y194625D01*
X250281Y192861D01*
X259695Y183447D01*
X259209Y182274D01*
X256707D01*
X187425Y251557D01*
X187910Y252730D01*
X192278D01*
Y259080D01*
X185039D01*
X177800D01*
Y255375D01*
X156512D01*
X92975Y318912D01*
X93461Y320085D01*
X97350D01*
Y331420D01*
X83515D01*
Y330031D01*
X82342Y329545D01*
X66224Y345662D01*
Y346981D01*
X67495Y347422D01*
X69438Y346300D01*
X71850Y345654D01*
Y355190D01*
Y364726D01*
X69438Y364080D01*
X67495Y362958D01*
X66224Y363399D01*
Y365914D01*
X84369Y384059D01*
X85625Y383519D01*
X85757Y382858D01*
X86370Y381940D01*
Y380440D01*
X85757Y379522D01*
X85542Y378440D01*
Y375940D01*
X85757Y374858D01*
X86370Y373940D01*
Y372440D01*
X85757Y371522D01*
X85542Y370440D01*
Y367940D01*
X85757Y366858D01*
X85793Y366804D01*
X85638Y365172D01*
X84800Y363919D01*
X84510Y362460D01*
X112730D01*
X112440Y363919D01*
X111602Y365172D01*
X111447Y366804D01*
X111483Y366858D01*
X111698Y367940D01*
Y370440D01*
X111483Y371522D01*
X110870Y372440D01*
Y373940D01*
X111483Y374858D01*
X111671Y375801D01*
X123010D01*
X127774Y371037D01*
Y368605D01*
X128019Y367376D01*
X128715Y366335D01*
X129756Y365639D01*
X130985Y365394D01*
X132196D01*
X132682Y364221D01*
X132405Y363943D01*
X131235Y361916D01*
X130655Y359755D01*
X139519D01*
Y357215D01*
X130655D01*
X131235Y355053D01*
X132405Y353026D01*
X133787Y351644D01*
X133967Y350906D01*
X133798Y350056D01*
X132445Y348703D01*
X131275Y346676D01*
X130696Y344515D01*
X139559D01*
Y341975D01*
X130696D01*
X131275Y339813D01*
X132445Y337786D01*
X134101Y336131D01*
X136128Y334961D01*
X138389Y334355D01*
X138750D01*
X139725Y333085D01*
X139443Y332035D01*
X148307D01*
Y330765D01*
X149577D01*
Y321902D01*
X151738Y322481D01*
X153765Y323652D01*
X154502Y324388D01*
X155761Y324222D01*
X156299Y323290D01*
X157954Y321635D01*
X159981Y320465D01*
X162143Y319885D01*
Y328749D01*
X164683D01*
Y319885D01*
X166844Y320465D01*
X168871Y321635D01*
X170239Y323002D01*
X171033Y323178D01*
X171827Y323002D01*
X173194Y321635D01*
X175221Y320465D01*
X177409Y319878D01*
X177730Y318968D01*
X177800Y318717D01*
X177800Y318589D01*
Y312420D01*
X183769D01*
Y318770D01*
X180667D01*
X180500Y320040D01*
X182084Y320465D01*
X184111Y321635D01*
X185767Y323290D01*
X186937Y325317D01*
X187516Y327479D01*
X178653D01*
Y330019D01*
X187516D01*
X186937Y332180D01*
X185767Y334207D01*
X184111Y335862D01*
X183091Y336452D01*
X182882Y338039D01*
X195054Y350211D01*
X195054Y350211D01*
X195672Y351136D01*
X195889Y352226D01*
X195889Y352226D01*
Y355915D01*
X197159Y356441D01*
X197923Y355677D01*
X199950Y354506D01*
X202111Y353927D01*
Y362790D01*
X204651D01*
Y353927D01*
X205606Y354183D01*
X206121Y354321D01*
X206756Y353176D01*
X206756Y352222D01*
Y347797D01*
X197195Y338237D01*
X196017Y336472D01*
X195602Y334391D01*
Y317754D01*
X194818D01*
Y304546D01*
X195602D01*
Y292354D01*
X194818D01*
Y279146D01*
X195602D01*
Y266954D01*
X194818D01*
Y253746D01*
X207264D01*
Y254911D01*
X237236D01*
Y253746D01*
X249682D01*
Y266954D01*
X237236D01*
Y265788D01*
X207264D01*
Y266954D01*
X206479D01*
Y279146D01*
X207264D01*
Y292354D01*
X206479D01*
Y304546D01*
X207264D01*
Y317754D01*
X206479D01*
Y332138D01*
X214447Y340106D01*
X219202D01*
Y352158D01*
X220172Y352806D01*
X221788D01*
X222758Y352158D01*
Y340106D01*
X235204D01*
Y353314D01*
X231830D01*
Y358952D01*
X231830Y358952D01*
X231613Y360043D01*
X230995Y360967D01*
X229952Y362010D01*
X230117Y362649D01*
X230517Y363242D01*
X231770D01*
X232657Y363418D01*
X233409Y363921D01*
X233912Y364673D01*
X234088Y365560D01*
Y368203D01*
X235270Y369241D01*
X236770D01*
X237657Y369418D01*
X238410Y369921D01*
X238912Y370673D01*
X239088Y371560D01*
Y373060D01*
X239208Y373206D01*
X242770D01*
X244054Y373461D01*
X245142Y374188D01*
X245869Y375276D01*
X246021Y376040D01*
X239020D01*
Y378580D01*
X246021D01*
X245869Y379344D01*
X245142Y380432D01*
X244932Y380572D01*
X244912Y380673D01*
X245089Y381560D01*
Y383060D01*
X244912Y383947D01*
X244466Y384810D01*
X244912Y385673D01*
X245089Y386560D01*
Y388060D01*
X244912Y388947D01*
X244466Y389810D01*
X244912Y390673D01*
X245089Y391560D01*
Y393060D01*
X244912Y393947D01*
X244409Y394699D01*
X243657Y395202D01*
X242770Y395378D01*
X239044D01*
Y398755D01*
X258171D01*
X258171Y398755D01*
X259261Y398972D01*
X260498Y398271D01*
X260715Y397748D01*
X261858Y396605D01*
X263352Y395986D01*
X263909D01*
X264391Y394867D01*
X263656Y393954D01*
X263352D01*
X261858Y393335D01*
X260715Y392192D01*
X260096Y390698D01*
Y389082D01*
X260715Y387588D01*
X261858Y386445D01*
X263352Y385826D01*
X264968D01*
X266462Y386445D01*
X267605Y387588D01*
X268224Y389082D01*
Y390330D01*
X276494Y398599D01*
X277667Y398113D01*
Y391802D01*
Y382445D01*
X276726D01*
X275636Y382228D01*
X274712Y381610D01*
X274712Y381610D01*
X266954Y373853D01*
X265684Y374085D01*
Y377063D01*
X252476D01*
Y364617D01*
X265684D01*
Y367991D01*
X267970D01*
X267970Y367991D01*
X269060Y368208D01*
X269984Y368826D01*
X276494Y375335D01*
X277667Y374849D01*
Y368914D01*
X276651D01*
Y366120D01*
X293669D01*
Y368914D01*
X292653D01*
Y381802D01*
Y391802D01*
Y401802D01*
Y414541D01*
X292933Y414657D01*
X293923Y414914D01*
X294705Y414391D01*
X295795Y414174D01*
X295795Y414174D01*
X324524D01*
X324525Y414174D01*
X325615Y414391D01*
X326539Y415009D01*
X331920Y420390D01*
X332538Y421314D01*
X332745Y422357D01*
X351657D01*
X352565Y421604D01*
X352782Y420514D01*
X353400Y419590D01*
X354633Y418356D01*
X355558Y417738D01*
X356648Y417521D01*
X356648Y417521D01*
X358001D01*
X358527Y416251D01*
X332448Y390172D01*
X331690Y389038D01*
X331598Y388575D01*
X306369Y363346D01*
X293669D01*
Y363580D01*
X276651D01*
Y360786D01*
X277667D01*
Y356802D01*
X283550D01*
X283822Y356620D01*
X285160Y356354D01*
X297718D01*
X298204Y355181D01*
X297735Y354711D01*
X296977Y353577D01*
X296711Y352239D01*
Y345086D01*
X296664Y344850D01*
Y328490D01*
X296930Y327152D01*
X297688Y326018D01*
X297943Y325763D01*
X297457Y324590D01*
X286004D01*
Y325374D01*
X272796D01*
Y324590D01*
X255524D01*
Y325374D01*
X242316D01*
Y324590D01*
X225044D01*
Y325374D01*
X211836D01*
Y312928D01*
X225044D01*
Y313713D01*
X242316D01*
Y312928D01*
X255524D01*
Y313713D01*
X272796D01*
Y312928D01*
X286004D01*
Y313713D01*
X303276D01*
Y312928D01*
X316484D01*
Y325374D01*
X308220D01*
X303656Y329938D01*
Y337357D01*
X321415D01*
X322263Y336087D01*
X322072Y335625D01*
Y334009D01*
X322691Y332515D01*
X323834Y331372D01*
X325328Y330753D01*
X326944D01*
X328438Y331372D01*
X329581Y332515D01*
X330200Y334009D01*
Y334417D01*
X331920Y336137D01*
X331920Y336137D01*
X332057Y336341D01*
X333890D01*
Y344850D01*
Y353359D01*
X331096D01*
Y352343D01*
X306914D01*
X306428Y353516D01*
X310290Y357378D01*
X337393Y384481D01*
X337393Y384481D01*
X338150Y385615D01*
X338243Y386078D01*
X353960Y401795D01*
X355224Y401263D01*
X355907Y399615D01*
X357336Y398186D01*
X358943Y397520D01*
Y402492D01*
X361483D01*
Y397520D01*
X361611Y397573D01*
X362084Y397257D01*
X362667Y396635D01*
Y391802D01*
Y382435D01*
X361624Y382228D01*
X360700Y381610D01*
X360700Y381610D01*
X355319Y376229D01*
X354701Y375305D01*
X354484Y374215D01*
X354484Y374214D01*
Y355485D01*
X354484Y355485D01*
X354701Y354395D01*
X355224Y353613D01*
X354967Y352623D01*
X354851Y352343D01*
X339224D01*
Y353359D01*
X336430D01*
Y344850D01*
Y336341D01*
X336664D01*
Y324993D01*
X333756D01*
Y312547D01*
X346964D01*
Y313713D01*
X366776D01*
Y312928D01*
X379984D01*
Y313713D01*
X404876D01*
Y312928D01*
X418084D01*
Y325374D01*
X404876D01*
Y324590D01*
X379984D01*
Y325374D01*
X366776D01*
Y324590D01*
X346964D01*
Y324993D01*
X343656D01*
Y337357D01*
X358208D01*
Y348987D01*
X358487Y349102D01*
X359478Y349359D01*
X360260Y348836D01*
X361350Y348619D01*
X395822D01*
X395846Y348582D01*
X396212Y347349D01*
X395335Y346472D01*
X394716Y344978D01*
Y343362D01*
X395335Y341868D01*
X396478Y340725D01*
X397972Y340106D01*
X399588D01*
X401082Y340725D01*
X401679Y341321D01*
X453322D01*
X453323Y341321D01*
X454413Y341538D01*
X455337Y342156D01*
X459478Y346297D01*
X460652Y345811D01*
Y332453D01*
X436786Y308587D01*
X418084D01*
Y309372D01*
X404876D01*
Y308587D01*
X390702D01*
X388621Y308174D01*
X386857Y306995D01*
X382173Y302311D01*
X381000Y302797D01*
Y310388D01*
X374650D01*
Y303149D01*
X373380D01*
Y301879D01*
X365760D01*
Y295910D01*
X374113D01*
X374599Y294737D01*
X345651Y265788D01*
X265684D01*
Y266954D01*
X253238D01*
Y253746D01*
X259825D01*
X260350Y253641D01*
X265717D01*
X305816Y213543D01*
Y208788D01*
X319024D01*
Y209573D01*
X338836D01*
Y208788D01*
X344353D01*
X345719Y207421D01*
X345233Y206248D01*
X337820D01*
Y200279D01*
X345440D01*
Y199009D01*
X346710D01*
Y191770D01*
X353060D01*
Y199361D01*
X354233Y199847D01*
X379037Y175043D01*
Y171490D01*
X379350Y169920D01*
X380239Y168589D01*
X381570Y167700D01*
X383140Y167387D01*
X402140D01*
X403710Y167700D01*
X405041Y168589D01*
X405930Y169920D01*
X406243Y171490D01*
Y176490D01*
X405930Y178060D01*
X405041Y179391D01*
X403710Y180280D01*
X402140Y180593D01*
X388679D01*
X388296Y181167D01*
X380976Y188487D01*
X381601Y189657D01*
X383140Y189351D01*
X391370D01*
Y195720D01*
X378001D01*
Y194490D01*
X378307Y192951D01*
X377137Y192326D01*
X356575Y212888D01*
X354811Y214067D01*
X354369Y214154D01*
X352044Y216479D01*
Y221234D01*
X338836D01*
Y220450D01*
X319024D01*
Y221234D01*
X313507D01*
X281003Y253738D01*
X281489Y254911D01*
X347903D01*
X349985Y255326D01*
X351749Y256504D01*
X392955Y297710D01*
X404876D01*
Y296926D01*
X406041D01*
Y289814D01*
X404876D01*
Y277368D01*
X418084D01*
Y289814D01*
X416918D01*
Y296926D01*
X418084D01*
Y297710D01*
X439039D01*
X441120Y298125D01*
X442885Y299303D01*
X459583Y316001D01*
X460756Y315515D01*
Y304546D01*
X461540D01*
Y290905D01*
X461954Y288824D01*
X463133Y287059D01*
X471422Y278771D01*
Y264933D01*
X470860D01*
X469680Y264699D01*
X468680Y264030D01*
X468012Y263030D01*
X467777Y261850D01*
Y258850D01*
X468012Y257670D01*
X468086Y257558D01*
X467407Y256289D01*
X457860D01*
X455779Y255875D01*
X455118Y255433D01*
X451860D01*
X450680Y255198D01*
X449680Y254530D01*
X449011Y253530D01*
X448777Y252350D01*
Y249350D01*
X449011Y248170D01*
X449680Y247170D01*
X450680Y246502D01*
X451860Y246267D01*
X455118D01*
X455779Y245826D01*
X457860Y245411D01*
X599230D01*
X601311Y245826D01*
X603076Y247004D01*
X636374Y280302D01*
X639570Y279446D01*
X643130D01*
X646570Y280368D01*
X649654Y282148D01*
X652172Y284666D01*
X653952Y287750D01*
X654874Y291189D01*
Y294750D01*
X653952Y298190D01*
X652172Y301274D01*
X649654Y303792D01*
X646570Y305572D01*
X643130Y306494D01*
X639570D01*
X636130Y305572D01*
X633046Y303792D01*
X630528Y301274D01*
X628748Y298190D01*
X627826Y294750D01*
Y291189D01*
X628682Y287994D01*
X596977Y256289D01*
X486313D01*
X485634Y257558D01*
X485709Y257670D01*
X485943Y258850D01*
Y261850D01*
X485709Y263030D01*
X485040Y264030D01*
X484040Y264699D01*
X482860Y264933D01*
X482299D01*
Y275585D01*
X483335D01*
X485416Y276000D01*
X487181Y277178D01*
X516707Y306705D01*
X522224D01*
Y307489D01*
X608838D01*
X610919Y307903D01*
X612684Y309082D01*
X658597Y354995D01*
X659770Y354510D01*
Y350520D01*
X669290D01*
Y360040D01*
X665301D01*
X664815Y361213D01*
X668645Y365044D01*
X669273Y364876D01*
X671847D01*
X674333Y365542D01*
X676561Y366829D01*
X678381Y368649D01*
X679668Y370877D01*
X680334Y373363D01*
Y375937D01*
X679668Y378423D01*
X678381Y380651D01*
X676561Y382471D01*
X674333Y383758D01*
X671847Y384424D01*
X669273D01*
X666787Y383758D01*
X664559Y382471D01*
X662739Y380651D01*
X661452Y378423D01*
X660786Y375937D01*
Y373363D01*
X660954Y372735D01*
X606585Y318367D01*
X522224D01*
Y319151D01*
X509016D01*
Y314396D01*
X481082Y286462D01*
X479113D01*
X472417Y293158D01*
Y304546D01*
X473202D01*
Y317754D01*
X472417D01*
Y323596D01*
X473202D01*
Y336804D01*
X471529D01*
Y357560D01*
X471115Y359641D01*
X470673Y360302D01*
Y363310D01*
X470638Y363485D01*
X471672Y364755D01*
X473208D01*
X474242Y363485D01*
X474207Y363310D01*
Y360302D01*
X473765Y359641D01*
X473352Y357560D01*
Y354930D01*
X473765Y352849D01*
X474207Y352188D01*
Y351810D01*
X474441Y350630D01*
X475110Y349630D01*
X476110Y348961D01*
X477290Y348727D01*
X477302D01*
X477542Y348486D01*
Y336804D01*
X476758D01*
Y323596D01*
X489204D01*
Y336804D01*
X488419D01*
Y350739D01*
X488005Y352820D01*
X486827Y354585D01*
X484229Y357183D01*
Y357560D01*
X483815Y359641D01*
X483929Y359919D01*
X485427Y360216D01*
X494091Y351553D01*
Y347230D01*
X494090Y347230D01*
X494307Y346139D01*
X494925Y345215D01*
X509016Y331124D01*
Y322707D01*
X522224D01*
Y326081D01*
X599440D01*
X599440Y326081D01*
X600530Y326298D01*
X601454Y326916D01*
X665959Y391420D01*
X666787Y390942D01*
X669273Y390276D01*
X671847D01*
X674333Y390942D01*
X676561Y392229D01*
X678381Y394049D01*
X679668Y396277D01*
X680334Y398763D01*
Y401337D01*
X679668Y403823D01*
X678381Y406051D01*
X676561Y407871D01*
X674333Y409158D01*
X671847Y409824D01*
X669273D01*
X666787Y409158D01*
X664559Y407871D01*
X662739Y406051D01*
X661452Y403823D01*
X660786Y401337D01*
Y398763D01*
X661452Y396277D01*
X661930Y395449D01*
X598260Y331779D01*
X522224D01*
Y335153D01*
X513045D01*
X499788Y348410D01*
Y352733D01*
X499571Y353824D01*
X498954Y354748D01*
X498954Y354748D01*
X484083Y369618D01*
X483159Y370236D01*
X482069Y370453D01*
X482068Y370453D01*
X462811D01*
X461721Y370236D01*
X460797Y369618D01*
X460797Y369618D01*
X457509Y366330D01*
X457349Y366337D01*
X456239Y366734D01*
Y381129D01*
X473898Y398788D01*
X474516Y399712D01*
X474733Y400803D01*
X474733Y400803D01*
Y402854D01*
X476003Y403533D01*
X476110Y403461D01*
X477290Y403227D01*
X480290D01*
X481470Y403461D01*
X482470Y404130D01*
X483139Y405130D01*
X483373Y406310D01*
Y417810D01*
X483139Y418990D01*
X482470Y419990D01*
X481470Y420658D01*
X480290Y420893D01*
X479877D01*
X479834Y421108D01*
X479216Y422032D01*
X479216Y422032D01*
X473066Y428182D01*
X472142Y428800D01*
X471052Y429017D01*
X471052Y429017D01*
X454175D01*
X454175Y429017D01*
X453085Y428800D01*
X452161Y428182D01*
X452161Y428182D01*
X445582Y421603D01*
X445027Y420773D01*
X443766Y421616D01*
X442190Y421929D01*
X441960D01*
Y412060D01*
X440690D01*
Y410790D01*
X435071D01*
Y410087D01*
X433898Y409601D01*
X421114Y422384D01*
X420190Y423002D01*
X419100Y423219D01*
X419100Y423219D01*
X358263D01*
Y429596D01*
X358263Y429596D01*
X358208Y429871D01*
Y437343D01*
X355850D01*
X355328Y438613D01*
X355854Y439882D01*
Y441498D01*
X355235Y442992D01*
X354092Y444135D01*
X352598Y444754D01*
X350982D01*
X350641Y444613D01*
X348985Y445292D01*
X348885Y445532D01*
X347742Y446675D01*
X347335Y446844D01*
X347037Y448342D01*
X358889Y460193D01*
X392176D01*
Y449326D01*
X391199Y448619D01*
X381359D01*
X380762Y449215D01*
X379268Y449834D01*
X377652D01*
X376158Y449215D01*
X375015Y448072D01*
X374396Y446578D01*
Y444962D01*
X375015Y443468D01*
X376158Y442325D01*
X377652Y441706D01*
X379268D01*
X380762Y442325D01*
X381359Y442921D01*
X384130D01*
X384978Y441651D01*
X384810Y441244D01*
Y439628D01*
X385429Y438134D01*
X386572Y436991D01*
X388066Y436372D01*
X389682D01*
X391176Y436991D01*
X391773Y437587D01*
X497369D01*
X497369Y437587D01*
X498460Y437804D01*
X499384Y438422D01*
X508963Y448001D01*
X624481D01*
X625078Y447405D01*
X626572Y446786D01*
X628188D01*
X629682Y447405D01*
X630825Y448548D01*
X631444Y450042D01*
Y451658D01*
X630825Y453152D01*
X629880Y454097D01*
X630087Y455034D01*
X630270Y455367D01*
X664097D01*
X664097Y455367D01*
X665188Y455584D01*
X666112Y456202D01*
X675114Y465204D01*
X675114Y465204D01*
X675732Y466129D01*
X675949Y467219D01*
X675949Y467219D01*
Y524510D01*
X675949Y524510D01*
X675732Y525600D01*
X675114Y526524D01*
X675114Y526524D01*
X659874Y541764D01*
X658950Y542382D01*
X657860Y542599D01*
X657860Y542599D01*
X619640D01*
X619387Y543869D01*
X619522Y543925D01*
X620665Y545068D01*
X621284Y546562D01*
Y548178D01*
X621187Y548414D01*
X622130Y549454D01*
X622667Y549347D01*
X622667Y549347D01*
X666637D01*
X666637Y549347D01*
X667728Y549564D01*
X668652Y550182D01*
X680194Y561724D01*
X680812Y562649D01*
X681029Y563739D01*
X681029Y563739D01*
Y633730D01*
X681029Y633730D01*
X680812Y634820D01*
X680194Y635744D01*
X680194Y635744D01*
X675114Y640824D01*
X674190Y641442D01*
X673100Y641659D01*
D02*
G37*
G36*
X429260Y645052D02*
Y641350D01*
X432962D01*
X432297Y642958D01*
X430868Y644387D01*
X429260Y645052D01*
D02*
G37*
G36*
X426720D02*
X425112Y644387D01*
X423683Y642958D01*
X423018Y641350D01*
X426720D01*
Y645052D01*
D02*
G37*
G36*
X469793Y641350D02*
X466090D01*
Y637648D01*
X467698Y638313D01*
X469127Y639742D01*
X469793Y641350D01*
D02*
G37*
G36*
X463550D02*
X459847D01*
X460513Y639742D01*
X461942Y638313D01*
X463550Y637648D01*
Y641350D01*
D02*
G37*
G36*
X515513Y640080D02*
X511810D01*
Y636377D01*
X513418Y637043D01*
X514847Y638472D01*
X515513Y640080D01*
D02*
G37*
G36*
X509270D02*
X505568D01*
X506233Y638472D01*
X507662Y637043D01*
X509270Y636377D01*
Y640080D01*
D02*
G37*
G36*
X432962Y638810D02*
X429260D01*
Y635107D01*
X430868Y635773D01*
X432297Y637202D01*
X432962Y638810D01*
D02*
G37*
G36*
X426720D02*
X423018D01*
X423683Y637202D01*
X425112Y635773D01*
X426720Y635107D01*
Y638810D01*
D02*
G37*
G36*
X14396Y637631D02*
Y633928D01*
X18098D01*
X17433Y635536D01*
X16004Y636965D01*
X14396Y637631D01*
D02*
G37*
G36*
X11856D02*
X10248Y636965D01*
X8819Y635536D01*
X8153Y633928D01*
X11856D01*
Y637631D01*
D02*
G37*
G36*
X18098Y631388D02*
X14396D01*
Y627686D01*
X16004Y628351D01*
X17433Y629780D01*
X18098Y631388D01*
D02*
G37*
G36*
X11856D02*
X8153D01*
X8819Y629780D01*
X10248Y628351D01*
X11856Y627686D01*
Y631388D01*
D02*
G37*
G36*
X536860Y626649D02*
X532130D01*
Y622300D01*
X540979D01*
Y622530D01*
X540666Y624106D01*
X539773Y625443D01*
X538436Y626336D01*
X536860Y626649D01*
D02*
G37*
G36*
X529590D02*
X524860D01*
X523284Y626336D01*
X521947Y625443D01*
X521054Y624106D01*
X520741Y622530D01*
Y622300D01*
X529590D01*
Y626649D01*
D02*
G37*
G36*
X653390Y625989D02*
X648660D01*
X647084Y625676D01*
X645747Y624783D01*
X644854Y623446D01*
X644541Y621870D01*
Y621640D01*
X653390D01*
Y625989D01*
D02*
G37*
G36*
X340810Y627924D02*
X339330D01*
Y619800D01*
X346204D01*
Y622530D01*
X345793Y624594D01*
X344624Y626344D01*
X342874Y627513D01*
X340810Y627924D01*
D02*
G37*
G36*
X274770D02*
X273290D01*
Y619800D01*
X280164D01*
Y622530D01*
X279753Y624594D01*
X278584Y626344D01*
X276834Y627513D01*
X274770Y627924D01*
D02*
G37*
G36*
X207460D02*
X205980D01*
Y619800D01*
X212854D01*
Y622530D01*
X212443Y624594D01*
X211274Y626344D01*
X209524Y627513D01*
X207460Y627924D01*
D02*
G37*
G36*
X336790D02*
X335310D01*
X333246Y627513D01*
X331496Y626344D01*
X330327Y624594D01*
X329916Y622530D01*
Y619800D01*
X336790D01*
Y627924D01*
D02*
G37*
G36*
X270750D02*
X269270D01*
X267206Y627513D01*
X265456Y626344D01*
X264287Y624594D01*
X263876Y622530D01*
Y619800D01*
X270750D01*
Y627924D01*
D02*
G37*
G36*
X203440D02*
X201960D01*
X199896Y627513D01*
X198146Y626344D01*
X196977Y624594D01*
X196566Y622530D01*
Y619800D01*
X203440D01*
Y627924D01*
D02*
G37*
G36*
X135070D02*
X133590D01*
Y619800D01*
X140464D01*
Y622530D01*
X140053Y624594D01*
X138884Y626344D01*
X137134Y627513D01*
X135070Y627924D01*
D02*
G37*
G36*
X131050D02*
X129570D01*
X127506Y627513D01*
X125756Y626344D01*
X124587Y624594D01*
X124176Y622530D01*
Y619800D01*
X131050D01*
Y627924D01*
D02*
G37*
G36*
X540979Y619760D02*
X532130D01*
Y615411D01*
X536860D01*
X538436Y615724D01*
X539773Y616617D01*
X540666Y617954D01*
X540979Y619530D01*
Y619760D01*
D02*
G37*
G36*
X529590D02*
X520741D01*
Y619530D01*
X521054Y617954D01*
X521947Y616617D01*
X523284Y615724D01*
X524860Y615411D01*
X529590D01*
Y619760D01*
D02*
G37*
G36*
X653390Y619100D02*
X644541D01*
Y618870D01*
X644854Y617294D01*
X645747Y615957D01*
X647084Y615064D01*
X648660Y614751D01*
X653390D01*
Y619100D01*
D02*
G37*
G36*
X99060Y613302D02*
Y609600D01*
X102762D01*
X102097Y611208D01*
X100668Y612637D01*
X99060Y613302D01*
D02*
G37*
G36*
X96520D02*
X94912Y612637D01*
X93483Y611208D01*
X92817Y609600D01*
X96520D01*
Y613302D01*
D02*
G37*
G36*
X346204Y617260D02*
X339330D01*
Y609136D01*
X340810D01*
X342874Y609547D01*
X344624Y610716D01*
X345793Y612466D01*
X346204Y614530D01*
Y617260D01*
D02*
G37*
G36*
X336790D02*
X329916D01*
Y614530D01*
X330327Y612466D01*
X331496Y610716D01*
X333246Y609547D01*
X335310Y609136D01*
X336790D01*
Y617260D01*
D02*
G37*
G36*
X280164D02*
X273290D01*
Y609136D01*
X274770D01*
X276834Y609547D01*
X278584Y610716D01*
X279753Y612466D01*
X280164Y614530D01*
Y617260D01*
D02*
G37*
G36*
X270750D02*
X263876D01*
Y614530D01*
X264287Y612466D01*
X265456Y610716D01*
X267206Y609547D01*
X269270Y609136D01*
X270750D01*
Y617260D01*
D02*
G37*
G36*
X212854D02*
X205980D01*
Y609136D01*
X207460D01*
X209524Y609547D01*
X211274Y610716D01*
X212443Y612466D01*
X212854Y614530D01*
Y617260D01*
D02*
G37*
G36*
X203440D02*
X196566D01*
Y614530D01*
X196977Y612466D01*
X198146Y610716D01*
X199896Y609547D01*
X201960Y609136D01*
X203440D01*
Y617260D01*
D02*
G37*
G36*
X140464Y617260D02*
X133590D01*
Y609136D01*
X135070D01*
X137134Y609547D01*
X138884Y610716D01*
X140053Y612466D01*
X140464Y614530D01*
Y617260D01*
D02*
G37*
G36*
X131050D02*
X124176D01*
Y614530D01*
X124587Y612466D01*
X125756Y610716D01*
X127506Y609547D01*
X129570Y609136D01*
X131050D01*
Y617260D01*
D02*
G37*
G36*
X389890Y612033D02*
Y608330D01*
X393592D01*
X392927Y609938D01*
X391498Y611367D01*
X389890Y612033D01*
D02*
G37*
G36*
X387350D02*
X385742Y611367D01*
X384313Y609938D01*
X383647Y608330D01*
X387350D01*
Y612033D01*
D02*
G37*
G36*
X15917Y609493D02*
Y605791D01*
X19619D01*
X18953Y607398D01*
X17524Y608827D01*
X15917Y609493D01*
D02*
G37*
G36*
X13377D02*
X11769Y608827D01*
X10340Y607398D01*
X9674Y605791D01*
X13377D01*
Y609493D01*
D02*
G37*
G36*
X102762Y607060D02*
X99060D01*
Y603358D01*
X100668Y604023D01*
X102097Y605452D01*
X102762Y607060D01*
D02*
G37*
G36*
X96520D02*
X92817D01*
X93483Y605452D01*
X94912Y604023D01*
X96520Y603358D01*
Y607060D01*
D02*
G37*
G36*
X185420Y606953D02*
Y603250D01*
X189123D01*
X188457Y604858D01*
X187028Y606287D01*
X185420Y606953D01*
D02*
G37*
G36*
X182880D02*
X181272Y606287D01*
X179843Y604858D01*
X179177Y603250D01*
X182880D01*
Y606953D01*
D02*
G37*
G36*
X393592Y605790D02*
X389890D01*
Y602088D01*
X391498Y602753D01*
X392927Y604182D01*
X393592Y605790D01*
D02*
G37*
G36*
X387350D02*
X383647D01*
X384313Y604182D01*
X385742Y602753D01*
X387350Y602088D01*
Y605790D01*
D02*
G37*
G36*
X323619Y604799D02*
Y601096D01*
X327322D01*
X326656Y602704D01*
X325227Y604133D01*
X323619Y604799D01*
D02*
G37*
G36*
X321079D02*
X319472Y604133D01*
X318043Y602704D01*
X317377Y601096D01*
X321079D01*
Y604799D01*
D02*
G37*
G36*
X19619Y603251D02*
X15917D01*
Y599548D01*
X17524Y600214D01*
X18953Y601643D01*
X19619Y603251D01*
D02*
G37*
G36*
X13377D02*
X9674D01*
X10340Y601643D01*
X11769Y600214D01*
X13377Y599548D01*
Y603251D01*
D02*
G37*
G36*
X189123Y600710D02*
X185420D01*
Y597007D01*
X187028Y597673D01*
X188457Y599102D01*
X189123Y600710D01*
D02*
G37*
G36*
X182880D02*
X179177D01*
X179843Y599102D01*
X181272Y597673D01*
X182880Y597007D01*
Y600710D01*
D02*
G37*
G36*
X327322Y598556D02*
X323619D01*
Y594854D01*
X325227Y595520D01*
X326656Y596949D01*
X327322Y598556D01*
D02*
G37*
G36*
X321079D02*
X317377D01*
X318043Y596949D01*
X319472Y595520D01*
X321079Y594854D01*
Y598556D01*
D02*
G37*
G36*
X251460Y598063D02*
Y594360D01*
X255163D01*
X254497Y595968D01*
X253068Y597397D01*
X251460Y598063D01*
D02*
G37*
G36*
X248920D02*
X247312Y597397D01*
X245883Y595968D01*
X245217Y594360D01*
X248920D01*
Y598063D01*
D02*
G37*
G36*
X66794Y609084D02*
X50046D01*
Y592336D01*
X66794D01*
Y609084D01*
D02*
G37*
G36*
X255163Y591820D02*
X251460D01*
Y588117D01*
X253068Y588783D01*
X254497Y590212D01*
X255163Y591820D01*
D02*
G37*
G36*
X248920D02*
X245217D01*
X245883Y590212D01*
X247312Y588783D01*
X248920Y588117D01*
Y591820D01*
D02*
G37*
G36*
X102870Y584092D02*
Y580390D01*
X106573D01*
X105907Y581998D01*
X104478Y583427D01*
X102870Y584092D01*
D02*
G37*
G36*
X100330D02*
X98722Y583427D01*
X97293Y581998D01*
X96628Y580390D01*
X100330D01*
Y584092D01*
D02*
G37*
G36*
X542036Y582930D02*
X535686D01*
Y576961D01*
X542036D01*
Y582930D01*
D02*
G37*
G36*
X533146D02*
X526796D01*
Y576961D01*
X533146D01*
Y582930D01*
D02*
G37*
G36*
X13970Y580283D02*
Y576580D01*
X17672D01*
X17007Y578188D01*
X15578Y579617D01*
X13970Y580283D01*
D02*
G37*
G36*
X11430D02*
X9822Y579617D01*
X8393Y578188D01*
X7728Y576580D01*
X11430D01*
Y580283D01*
D02*
G37*
G36*
X106573Y577850D02*
X102870D01*
Y574147D01*
X104478Y574813D01*
X105907Y576242D01*
X106573Y577850D01*
D02*
G37*
G36*
X100330D02*
X96628D01*
X97293Y576242D01*
X98722Y574813D01*
X100330Y574147D01*
Y577850D01*
D02*
G37*
G36*
X17672Y574040D02*
X13970D01*
Y570337D01*
X15578Y571003D01*
X17007Y572432D01*
X17672Y574040D01*
D02*
G37*
G36*
X11430D02*
X7728D01*
X8393Y572432D01*
X9822Y571003D01*
X11430Y570337D01*
Y574040D01*
D02*
G37*
G36*
X384358Y569985D02*
Y566283D01*
X388061D01*
X387395Y567890D01*
X385966Y569319D01*
X384358Y569985D01*
D02*
G37*
G36*
X381819D02*
X380211Y569319D01*
X378782Y567890D01*
X378116Y566283D01*
X381819D01*
Y569985D01*
D02*
G37*
G36*
X340810Y569424D02*
X339330D01*
Y561300D01*
X346204D01*
Y564030D01*
X345793Y566094D01*
X344624Y567844D01*
X342874Y569013D01*
X340810Y569424D01*
D02*
G37*
G36*
X274770D02*
X273290D01*
Y561300D01*
X280164D01*
Y564030D01*
X279753Y566094D01*
X278584Y567844D01*
X276834Y569013D01*
X274770Y569424D01*
D02*
G37*
G36*
X207460D02*
X205980D01*
Y561300D01*
X212854D01*
Y564030D01*
X212443Y566094D01*
X211274Y567844D01*
X209524Y569013D01*
X207460Y569424D01*
D02*
G37*
G36*
X336790D02*
X335310D01*
X333246Y569013D01*
X331496Y567844D01*
X330327Y566094D01*
X329916Y564030D01*
Y561300D01*
X336790D01*
Y569424D01*
D02*
G37*
G36*
X270750D02*
X269270D01*
X267206Y569013D01*
X265456Y567844D01*
X264287Y566094D01*
X263876Y564030D01*
Y561300D01*
X270750D01*
Y569424D01*
D02*
G37*
G36*
X203440D02*
X201960D01*
X199896Y569013D01*
X198146Y567844D01*
X196977Y566094D01*
X196566Y564030D01*
Y561300D01*
X203440D01*
Y569424D01*
D02*
G37*
G36*
X135070D02*
X133590D01*
Y561300D01*
X140464D01*
Y564030D01*
X140053Y566094D01*
X138884Y567844D01*
X137134Y569013D01*
X135070Y569424D01*
D02*
G37*
G36*
X131050D02*
X129570D01*
X127506Y569013D01*
X125756Y567844D01*
X124587Y566094D01*
X124176Y564030D01*
Y561300D01*
X131050D01*
Y569424D01*
D02*
G37*
G36*
X388061Y563743D02*
X384358D01*
Y560040D01*
X385966Y560706D01*
X387395Y562135D01*
X388061Y563743D01*
D02*
G37*
G36*
X381819D02*
X378116D01*
X378782Y562135D01*
X380211Y560706D01*
X381819Y560040D01*
Y563743D01*
D02*
G37*
G36*
X320040Y556152D02*
Y552450D01*
X323742D01*
X323077Y554058D01*
X321648Y555487D01*
X320040Y556152D01*
D02*
G37*
G36*
X317500D02*
X315892Y555487D01*
X314463Y554058D01*
X313797Y552450D01*
X317500D01*
Y556152D01*
D02*
G37*
G36*
X59690Y559291D02*
Y551180D01*
X67801D01*
X67170Y553534D01*
X65934Y555676D01*
X64186Y557424D01*
X62044Y558660D01*
X59690Y559291D01*
D02*
G37*
G36*
X57150D02*
X54796Y558660D01*
X52654Y557424D01*
X50906Y555676D01*
X49670Y553534D01*
X49039Y551180D01*
X57150D01*
Y559291D01*
D02*
G37*
G36*
X346204Y558760D02*
X339330D01*
Y550636D01*
X340810D01*
X342874Y551047D01*
X344624Y552216D01*
X345793Y553966D01*
X346204Y556030D01*
Y558760D01*
D02*
G37*
G36*
X336790D02*
X329916D01*
Y556030D01*
X330327Y553966D01*
X331496Y552216D01*
X333246Y551047D01*
X335310Y550636D01*
X336790D01*
Y558760D01*
D02*
G37*
G36*
X280164D02*
X273290D01*
Y550636D01*
X274770D01*
X276834Y551047D01*
X278584Y552216D01*
X279753Y553966D01*
X280164Y556030D01*
Y558760D01*
D02*
G37*
G36*
X270750D02*
X263876D01*
Y556030D01*
X264287Y553966D01*
X265456Y552216D01*
X267206Y551047D01*
X269270Y550636D01*
X270750D01*
Y558760D01*
D02*
G37*
G36*
X212854D02*
X205980D01*
Y550636D01*
X207460D01*
X209524Y551047D01*
X211274Y552216D01*
X212443Y553966D01*
X212854Y556030D01*
Y558760D01*
D02*
G37*
G36*
X203440D02*
X196566D01*
Y556030D01*
X196977Y553966D01*
X198146Y552216D01*
X199896Y551047D01*
X201960Y550636D01*
X203440D01*
Y558760D01*
D02*
G37*
G36*
X140464Y558760D02*
X133590D01*
Y550636D01*
X135070D01*
X137134Y551047D01*
X138884Y552216D01*
X140053Y553966D01*
X140464Y556030D01*
Y558760D01*
D02*
G37*
G36*
X131050D02*
X124176D01*
Y556030D01*
X124587Y553966D01*
X125756Y552216D01*
X127506Y551047D01*
X129570Y550636D01*
X131050D01*
Y558760D01*
D02*
G37*
G36*
X323742Y549910D02*
X320040D01*
Y546208D01*
X321648Y546873D01*
X323077Y548302D01*
X323742Y549910D01*
D02*
G37*
G36*
X317500D02*
X313797D01*
X314463Y548302D01*
X315892Y546873D01*
X317500Y546208D01*
Y549910D01*
D02*
G37*
G36*
X248920Y547262D02*
Y543560D01*
X252623D01*
X251957Y545168D01*
X250528Y546597D01*
X248920Y547262D01*
D02*
G37*
G36*
X246380D02*
X244772Y546597D01*
X243343Y545168D01*
X242677Y543560D01*
X246380D01*
Y547262D01*
D02*
G37*
G36*
X679450Y544723D02*
Y541020D01*
X683152D01*
X682487Y542628D01*
X681058Y544057D01*
X679450Y544723D01*
D02*
G37*
G36*
X676910D02*
X675302Y544057D01*
X673873Y542628D01*
X673207Y541020D01*
X676910D01*
Y544723D01*
D02*
G37*
G36*
X67801Y548640D02*
X59690D01*
Y540529D01*
X62044Y541160D01*
X64186Y542396D01*
X65934Y544144D01*
X67170Y546286D01*
X67801Y548640D01*
D02*
G37*
G36*
X57150D02*
X49039D01*
X49670Y546286D01*
X50906Y544144D01*
X52654Y542396D01*
X54796Y541160D01*
X57150Y540529D01*
Y548640D01*
D02*
G37*
G36*
X111760Y543452D02*
Y539750D01*
X115463D01*
X114797Y541358D01*
X113368Y542787D01*
X111760Y543452D01*
D02*
G37*
G36*
X109220D02*
X107612Y542787D01*
X106183Y541358D01*
X105518Y539750D01*
X109220D01*
Y543452D01*
D02*
G37*
G36*
X13970Y542183D02*
Y538480D01*
X17672D01*
X17007Y540088D01*
X15578Y541517D01*
X13970Y542183D01*
D02*
G37*
G36*
X11430D02*
X9822Y541517D01*
X8393Y540088D01*
X7728Y538480D01*
X11430D01*
Y542183D01*
D02*
G37*
G36*
X252623Y541020D02*
X248920D01*
Y537318D01*
X250528Y537983D01*
X251957Y539412D01*
X252623Y541020D01*
D02*
G37*
G36*
X246380D02*
X242677D01*
X243343Y539412D01*
X244772Y537983D01*
X246380Y537318D01*
Y541020D01*
D02*
G37*
G36*
X304770Y626888D02*
X299270D01*
X297602Y626556D01*
X296189Y625611D01*
X295244Y624198D01*
X294912Y622530D01*
Y614530D01*
X295244Y612862D01*
X296189Y611449D01*
X297602Y610504D01*
X299171Y610192D01*
Y568368D01*
X297602Y568056D01*
X296189Y567111D01*
X295244Y565698D01*
X294912Y564030D01*
Y556030D01*
X295244Y554362D01*
X296189Y552949D01*
X297602Y552004D01*
X299171Y551692D01*
Y539115D01*
X293116D01*
Y535741D01*
X273304D01*
Y539115D01*
X260096D01*
Y526669D01*
X273304D01*
Y530043D01*
X293116D01*
Y526669D01*
X306324D01*
Y539115D01*
X304869D01*
Y551692D01*
X306438Y552004D01*
X307851Y552949D01*
X308796Y554362D01*
X309128Y556030D01*
Y564030D01*
X308796Y565698D01*
X307851Y567111D01*
X306438Y568056D01*
X304869Y568368D01*
Y610192D01*
X306438Y610504D01*
X307851Y611449D01*
X308796Y612862D01*
X309128Y614530D01*
Y622530D01*
X308796Y624198D01*
X307851Y625611D01*
X306438Y626556D01*
X304770Y626888D01*
D02*
G37*
G36*
X237460D02*
X231960D01*
X230292Y626556D01*
X228879Y625611D01*
X227934Y624198D01*
X227602Y622530D01*
Y614530D01*
X227934Y612862D01*
X228879Y611449D01*
X230292Y610504D01*
X231861Y610192D01*
Y568368D01*
X230292Y568056D01*
X228879Y567111D01*
X227934Y565698D01*
X227602Y564030D01*
Y556030D01*
X227934Y554362D01*
X228879Y552949D01*
X230292Y552004D01*
X231861Y551692D01*
Y539115D01*
X227076D01*
Y535741D01*
X207264D01*
Y539115D01*
X194056D01*
Y526669D01*
X207264D01*
Y530043D01*
X227076D01*
Y526669D01*
X240284D01*
Y539115D01*
X237559D01*
Y551692D01*
X239128Y552004D01*
X240541Y552949D01*
X241486Y554362D01*
X241818Y556030D01*
Y564030D01*
X241486Y565698D01*
X240541Y567111D01*
X239128Y568056D01*
X237559Y568368D01*
Y610192D01*
X239128Y610504D01*
X240541Y611449D01*
X241486Y612862D01*
X241818Y614530D01*
Y622530D01*
X241486Y624198D01*
X240541Y625611D01*
X239128Y626556D01*
X237460Y626888D01*
D02*
G37*
G36*
X165070D02*
X159570D01*
X157902Y626556D01*
X156489Y625611D01*
X155544Y624198D01*
X155212Y622530D01*
Y614530D01*
X155544Y612862D01*
X156489Y611449D01*
X157902Y610504D01*
X159471Y610192D01*
Y568368D01*
X157902Y568056D01*
X156489Y567111D01*
X155544Y565698D01*
X155212Y564030D01*
Y556030D01*
X155544Y554362D01*
X156489Y552949D01*
X157902Y552004D01*
X159570Y551672D01*
X164598D01*
X164791Y551479D01*
Y539115D01*
X161036D01*
Y535741D01*
X143764D01*
Y539115D01*
X130556D01*
Y526669D01*
X143764D01*
Y530043D01*
X161036D01*
Y526669D01*
X174244D01*
Y539115D01*
X170489D01*
Y552659D01*
X170489Y552659D01*
X170272Y553749D01*
X169654Y554673D01*
X169654Y554673D01*
X169240Y555088D01*
X169428Y556030D01*
Y564030D01*
X169096Y565698D01*
X168151Y567111D01*
X166738Y568056D01*
X165169Y568368D01*
Y610192D01*
X166738Y610504D01*
X168151Y611449D01*
X169096Y612862D01*
X169428Y614530D01*
Y622530D01*
X169096Y624198D01*
X168151Y625611D01*
X166738Y626556D01*
X165070Y626888D01*
D02*
G37*
G36*
X683152Y538480D02*
X679450D01*
Y534777D01*
X681058Y535443D01*
X682487Y536872D01*
X683152Y538480D01*
D02*
G37*
G36*
X676910D02*
X673207D01*
X673873Y536872D01*
X675302Y535443D01*
X676910Y534777D01*
Y538480D01*
D02*
G37*
G36*
X115463Y537210D02*
X111760D01*
Y533507D01*
X113368Y534173D01*
X114797Y535602D01*
X115463Y537210D01*
D02*
G37*
G36*
X109220D02*
X105518D01*
X106183Y535602D01*
X107612Y534173D01*
X109220Y533507D01*
Y537210D01*
D02*
G37*
G36*
X17672Y535940D02*
X13970D01*
Y532238D01*
X15578Y532903D01*
X17007Y534332D01*
X17672Y535940D01*
D02*
G37*
G36*
X11430D02*
X7728D01*
X8393Y534332D01*
X9822Y532903D01*
X11430Y532238D01*
Y535940D01*
D02*
G37*
G36*
X59523Y583684D02*
X57318D01*
X55188Y583113D01*
X53278Y582011D01*
X51719Y580452D01*
X50617Y578542D01*
X50046Y576413D01*
Y574207D01*
X50617Y572078D01*
X51719Y570168D01*
X53278Y568609D01*
X55188Y567507D01*
X57318Y566936D01*
X59523D01*
X61652Y567507D01*
X61996Y567705D01*
X91878Y537823D01*
Y511389D01*
X90705Y510903D01*
X75084Y526524D01*
X74159Y527142D01*
X73069Y527359D01*
X73069Y527359D01*
X66326D01*
X66223Y527742D01*
X65121Y529652D01*
X63562Y531211D01*
X61652Y532313D01*
X59523Y532884D01*
X57318D01*
X55188Y532313D01*
X53278Y531211D01*
X51719Y529652D01*
X50617Y527742D01*
X50046Y525612D01*
Y523408D01*
X50617Y521278D01*
X51719Y519368D01*
X53278Y517809D01*
X55188Y516707D01*
X57318Y516136D01*
X59523D01*
X61652Y516707D01*
X63562Y517809D01*
X65121Y519368D01*
X66223Y521278D01*
X66326Y521661D01*
X71889D01*
X90418Y503132D01*
X89932Y501959D01*
X66326D01*
X66223Y502342D01*
X65121Y504252D01*
X63562Y505811D01*
X61652Y506913D01*
X59523Y507484D01*
X57318D01*
X55188Y506913D01*
X53278Y505811D01*
X51719Y504252D01*
X50617Y502342D01*
X50046Y500213D01*
Y498008D01*
X50617Y495878D01*
X51719Y493968D01*
X53278Y492409D01*
X55188Y491307D01*
X57318Y490736D01*
X59523D01*
X61652Y491307D01*
X63562Y492409D01*
X65121Y493968D01*
X66223Y495878D01*
X66326Y496261D01*
X91542D01*
X131348Y456456D01*
X131348Y456456D01*
X132272Y455838D01*
X133362Y455621D01*
X133362Y455621D01*
X279041D01*
X279638Y455025D01*
X281132Y454406D01*
X282748D01*
X284242Y455025D01*
X285385Y456168D01*
X286004Y457662D01*
Y459278D01*
X285385Y460772D01*
X285007Y461150D01*
X285727Y462227D01*
X286212Y462026D01*
X287828D01*
X289322Y462645D01*
X290465Y463788D01*
X291084Y465282D01*
Y466898D01*
X290741Y467726D01*
X291481Y469036D01*
X292206Y469127D01*
X292338Y468995D01*
X293832Y468376D01*
X295448D01*
X296942Y468995D01*
X298085Y470138D01*
X298704Y471632D01*
Y473248D01*
X298085Y474742D01*
X296942Y475885D01*
X295448Y476504D01*
X293832D01*
X292338Y475885D01*
X291741Y475289D01*
X275065D01*
X274320Y476250D01*
X274320Y476559D01*
Y482219D01*
X266700D01*
X259080D01*
Y476559D01*
X259080Y476250D01*
X258335Y475289D01*
X209310D01*
X208280Y475869D01*
X208280Y476559D01*
Y481838D01*
X200660D01*
X193040D01*
Y476559D01*
X193040Y475869D01*
X192010Y475289D01*
X145525D01*
X144780Y476250D01*
Y482219D01*
X137160D01*
X129540D01*
Y479475D01*
X128367Y478989D01*
X97576Y509780D01*
Y539003D01*
X97576Y539003D01*
X97359Y540093D01*
X96741Y541017D01*
X96741Y541017D01*
X66025Y571734D01*
X66223Y572078D01*
X66794Y574207D01*
Y576413D01*
X66223Y578542D01*
X65121Y580452D01*
X63562Y582011D01*
X61652Y583113D01*
X59523Y583684D01*
D02*
G37*
G36*
X306324Y523113D02*
X293116D01*
Y510667D01*
X306324D01*
Y523113D01*
D02*
G37*
G36*
X240284D02*
X227076D01*
Y510667D01*
X240284D01*
Y523113D01*
D02*
G37*
G36*
X174244D02*
X161036D01*
Y510667D01*
X174244D01*
Y523113D01*
D02*
G37*
G36*
X13970Y506623D02*
Y502920D01*
X17672D01*
X17007Y504528D01*
X15578Y505957D01*
X13970Y506623D01*
D02*
G37*
G36*
X11430D02*
X9822Y505957D01*
X8393Y504528D01*
X7728Y502920D01*
X11430D01*
Y506623D01*
D02*
G37*
G36*
X17672Y500380D02*
X13970D01*
Y496678D01*
X15578Y497343D01*
X17007Y498772D01*
X17672Y500380D01*
D02*
G37*
G36*
X11430D02*
X7728D01*
X8393Y498772D01*
X9822Y497343D01*
X11430Y496678D01*
Y500380D01*
D02*
G37*
G36*
X238760Y499002D02*
Y495300D01*
X242463D01*
X241797Y496908D01*
X240368Y498337D01*
X238760Y499002D01*
D02*
G37*
G36*
X236220D02*
X234612Y498337D01*
X233183Y496908D01*
X232518Y495300D01*
X236220D01*
Y499002D01*
D02*
G37*
G36*
X336804Y523113D02*
X323596D01*
Y510667D01*
X327351D01*
Y505714D01*
X323596D01*
Y493268D01*
X336804D01*
Y505714D01*
X333049D01*
Y510667D01*
X336804D01*
Y523113D01*
D02*
G37*
G36*
X273304D02*
X260096D01*
Y510667D01*
X263851D01*
Y505714D01*
X260096D01*
Y493268D01*
X273304D01*
Y505714D01*
X269549D01*
Y510667D01*
X273304D01*
Y523113D01*
D02*
G37*
G36*
X143764D02*
X130556D01*
Y510667D01*
X134311D01*
Y505714D01*
X130556D01*
Y493268D01*
X143764D01*
Y505714D01*
X140009D01*
Y510667D01*
X143764D01*
Y523113D01*
D02*
G37*
G36*
X207264D02*
X194056D01*
Y510667D01*
X197811D01*
Y505333D01*
X194056D01*
Y492887D01*
X207264D01*
Y505333D01*
X203509D01*
Y510667D01*
X207264D01*
Y523113D01*
D02*
G37*
G36*
X242463Y492760D02*
X238760D01*
Y489058D01*
X240368Y489723D01*
X241797Y491152D01*
X242463Y492760D01*
D02*
G37*
G36*
X236220D02*
X232518D01*
X233183Y491152D01*
X234612Y489723D01*
X236220Y489058D01*
Y492760D01*
D02*
G37*
G36*
X337820Y490728D02*
X331470D01*
Y484759D01*
X337820D01*
Y490728D01*
D02*
G37*
G36*
X274320D02*
X267970D01*
Y484759D01*
X274320D01*
Y490728D01*
D02*
G37*
G36*
X144780D02*
X138430D01*
Y484759D01*
X144780D01*
Y490728D01*
D02*
G37*
G36*
X328930D02*
X322580D01*
Y484759D01*
X328930D01*
Y490728D01*
D02*
G37*
G36*
X265430D02*
X259080D01*
Y484759D01*
X265430D01*
Y490728D01*
D02*
G37*
G36*
X135890D02*
X129540D01*
Y484759D01*
X135890D01*
Y490728D01*
D02*
G37*
G36*
X208280Y490347D02*
X201930D01*
Y484378D01*
X208280D01*
Y490347D01*
D02*
G37*
G36*
X199390D02*
X193040D01*
Y484378D01*
X199390D01*
Y490347D01*
D02*
G37*
G36*
X328930Y482219D02*
X322580D01*
Y476250D01*
X328930D01*
Y482219D01*
D02*
G37*
G36*
X39491Y473370D02*
Y469668D01*
X43193D01*
X42528Y471275D01*
X41099Y472705D01*
X39491Y473370D01*
D02*
G37*
G36*
X36951D02*
X35343Y472705D01*
X33914Y471275D01*
X33249Y469668D01*
X36951D01*
Y473370D01*
D02*
G37*
G36*
X43193Y467128D02*
X39491D01*
Y463425D01*
X41099Y464091D01*
X42528Y465520D01*
X43193Y467128D01*
D02*
G37*
G36*
X36951D02*
X33249D01*
X33914Y465520D01*
X35343Y464091D01*
X36951Y463425D01*
Y467128D01*
D02*
G37*
G36*
X17437Y466526D02*
Y462824D01*
X21140D01*
X20474Y464431D01*
X19045Y465860D01*
X17437Y466526D01*
D02*
G37*
G36*
X14898D02*
X13290Y465860D01*
X11861Y464431D01*
X11195Y462824D01*
X14898D01*
Y466526D01*
D02*
G37*
G36*
X104140Y464712D02*
Y461010D01*
X107843D01*
X107177Y462618D01*
X105748Y464047D01*
X104140Y464712D01*
D02*
G37*
G36*
X101600D02*
X99992Y464047D01*
X98563Y462618D01*
X97898Y461010D01*
X101600D01*
Y464712D01*
D02*
G37*
G36*
X72390Y460902D02*
Y457200D01*
X76093D01*
X75427Y458808D01*
X73998Y460237D01*
X72390Y460902D01*
D02*
G37*
G36*
X69850D02*
X68242Y460237D01*
X66813Y458808D01*
X66147Y457200D01*
X69850D01*
Y460902D01*
D02*
G37*
G36*
X21140Y460284D02*
X17437D01*
Y456581D01*
X19045Y457247D01*
X20474Y458676D01*
X21140Y460284D01*
D02*
G37*
G36*
X14898D02*
X11195D01*
X11861Y458676D01*
X13290Y457247D01*
X14898Y456581D01*
Y460284D01*
D02*
G37*
G36*
X107843Y458470D02*
X104140D01*
Y454767D01*
X105748Y455433D01*
X107177Y456862D01*
X107843Y458470D01*
D02*
G37*
G36*
X101600D02*
X97898D01*
X98563Y456862D01*
X99992Y455433D01*
X101600Y454767D01*
Y458470D01*
D02*
G37*
G36*
X681990Y457093D02*
Y453390D01*
X685693D01*
X685027Y454998D01*
X683598Y456427D01*
X681990Y457093D01*
D02*
G37*
G36*
X679450D02*
X677842Y456427D01*
X676413Y454998D01*
X675748Y453390D01*
X679450D01*
Y457093D01*
D02*
G37*
G36*
X76093Y454660D02*
X72390D01*
Y450957D01*
X73998Y451623D01*
X75427Y453052D01*
X76093Y454660D01*
D02*
G37*
G36*
X69850D02*
X66147D01*
X66813Y453052D01*
X68242Y451623D01*
X69850Y450957D01*
Y454660D01*
D02*
G37*
G36*
X300990Y452012D02*
X299382Y451347D01*
X297953Y449918D01*
X297288Y448310D01*
X300990D01*
Y452012D01*
D02*
G37*
G36*
X685693Y450850D02*
X681990D01*
Y447147D01*
X683598Y447813D01*
X685027Y449242D01*
X685693Y450850D01*
D02*
G37*
G36*
X679450D02*
X675748D01*
X676413Y449242D01*
X677842Y447813D01*
X679450Y447147D01*
Y450850D01*
D02*
G37*
G36*
X152400Y446932D02*
Y443230D01*
X156103D01*
X155437Y444838D01*
X154008Y446267D01*
X152400Y446932D01*
D02*
G37*
G36*
X149860D02*
X148252Y446267D01*
X146823Y444838D01*
X146158Y443230D01*
X149860D01*
Y446932D01*
D02*
G37*
G36*
X300990Y445770D02*
X297288D01*
X297953Y444162D01*
X299382Y442733D01*
X300990Y442067D01*
Y445770D01*
D02*
G37*
G36*
X126184Y442191D02*
Y438489D01*
X129887D01*
X129221Y440096D01*
X127792Y441525D01*
X126184Y442191D01*
D02*
G37*
G36*
X123644D02*
X122037Y441525D01*
X120608Y440096D01*
X119942Y438489D01*
X123644D01*
Y442191D01*
D02*
G37*
G36*
X156103Y440690D02*
X152400D01*
Y436987D01*
X154008Y437653D01*
X155437Y439082D01*
X156103Y440690D01*
D02*
G37*
G36*
X149860D02*
X146158D01*
X146823Y439082D01*
X148252Y437653D01*
X149860Y436987D01*
Y440690D01*
D02*
G37*
G36*
X260350Y440583D02*
Y436880D01*
X264053D01*
X263387Y438488D01*
X261958Y439917D01*
X260350Y440583D01*
D02*
G37*
G36*
X257810D02*
X256202Y439917D01*
X254773Y438488D01*
X254107Y436880D01*
X257810D01*
Y440583D01*
D02*
G37*
G36*
X223520Y440690D02*
X217170D01*
Y434721D01*
X223520D01*
Y440690D01*
D02*
G37*
G36*
X214630D02*
X208280D01*
Y434721D01*
X214630D01*
Y440690D01*
D02*
G37*
G36*
X129887Y435948D02*
X126184D01*
Y432246D01*
X127792Y432912D01*
X129221Y434341D01*
X129887Y435948D01*
D02*
G37*
G36*
X123644D02*
X119942D01*
X120608Y434341D01*
X122037Y432912D01*
X123644Y432246D01*
Y435948D01*
D02*
G37*
G36*
X264053Y434340D02*
X260350D01*
Y430638D01*
X261958Y431303D01*
X263387Y432732D01*
X264053Y434340D01*
D02*
G37*
G36*
X257810D02*
X254107D01*
X254773Y432732D01*
X256202Y431303D01*
X257810Y430638D01*
Y434340D01*
D02*
G37*
G36*
X563880Y431693D02*
Y427990D01*
X567583D01*
X566917Y429598D01*
X565488Y431027D01*
X563880Y431693D01*
D02*
G37*
G36*
X561340D02*
X559732Y431027D01*
X558303Y429598D01*
X557637Y427990D01*
X561340D01*
Y431693D01*
D02*
G37*
G36*
X636270Y430423D02*
Y426720D01*
X639972D01*
X639307Y428328D01*
X637878Y429757D01*
X636270Y430423D01*
D02*
G37*
G36*
X633730D02*
X632122Y429757D01*
X630693Y428328D01*
X630028Y426720D01*
X633730D01*
Y430423D01*
D02*
G37*
G36*
X223520Y432181D02*
X217170D01*
Y426212D01*
X223520D01*
Y432181D01*
D02*
G37*
G36*
X106120Y434295D02*
X99890D01*
Y422960D01*
X113725D01*
Y426690D01*
X113466Y428658D01*
X112706Y430493D01*
X111498Y432068D01*
X109923Y433276D01*
X108088Y434036D01*
X106120Y434295D01*
D02*
G37*
G36*
X97350D02*
X91120D01*
X89152Y434036D01*
X87317Y433276D01*
X85742Y432068D01*
X84534Y430493D01*
X83774Y428658D01*
X83515Y426690D01*
Y422960D01*
X97350D01*
Y434295D01*
D02*
G37*
G36*
X51120D02*
X44890D01*
Y422960D01*
X58725D01*
Y426690D01*
X58466Y428658D01*
X57706Y430493D01*
X56498Y432068D01*
X54923Y433276D01*
X53088Y434036D01*
X51120Y434295D01*
D02*
G37*
G36*
X42350D02*
X36120D01*
X34152Y434036D01*
X32318Y433276D01*
X30742Y432068D01*
X29534Y430493D01*
X28774Y428658D01*
X28515Y426690D01*
Y422960D01*
X42350D01*
Y434295D01*
D02*
G37*
G36*
X16677Y425460D02*
Y421758D01*
X20380D01*
X19714Y423365D01*
X18285Y424794D01*
X16677Y425460D01*
D02*
G37*
G36*
X14137D02*
X12530Y424794D01*
X11101Y423365D01*
X10435Y421758D01*
X14137D01*
Y425460D01*
D02*
G37*
G36*
X567583Y425450D02*
X563880D01*
Y421748D01*
X565488Y422413D01*
X566917Y423842D01*
X567583Y425450D01*
D02*
G37*
G36*
X561340D02*
X557637D01*
X558303Y423842D01*
X559732Y422413D01*
X561340Y421748D01*
Y425450D01*
D02*
G37*
G36*
X639972Y424180D02*
X636270D01*
Y420477D01*
X637878Y421143D01*
X639307Y422572D01*
X639972Y424180D01*
D02*
G37*
G36*
X633730D02*
X630028D01*
X630693Y422572D01*
X632122Y421143D01*
X633730Y420477D01*
Y424180D01*
D02*
G37*
G36*
X20380Y419218D02*
X16677D01*
Y415515D01*
X18285Y416181D01*
X19714Y417610D01*
X20380Y419218D01*
D02*
G37*
G36*
X14137D02*
X10435D01*
X11101Y417610D01*
X12530Y416181D01*
X14137Y415515D01*
Y419218D01*
D02*
G37*
G36*
X523240Y418993D02*
Y415290D01*
X526942D01*
X526277Y416898D01*
X524848Y418327D01*
X523240Y418993D01*
D02*
G37*
G36*
X520700D02*
X519092Y418327D01*
X517663Y416898D01*
X516997Y415290D01*
X520700D01*
Y418993D01*
D02*
G37*
G36*
X439420Y421929D02*
X439190D01*
X437614Y421616D01*
X436277Y420723D01*
X435384Y419386D01*
X435071Y417810D01*
Y413330D01*
X439420D01*
Y421929D01*
D02*
G37*
G36*
X186944Y439674D02*
X173736D01*
Y427228D01*
X186944D01*
Y430602D01*
X198337D01*
X209296Y419643D01*
Y411226D01*
X222504D01*
Y423672D01*
X213325D01*
X211958Y425039D01*
X212444Y426212D01*
X214630D01*
Y432181D01*
X208280D01*
Y430376D01*
X207107Y429890D01*
X201531Y435465D01*
X200607Y436083D01*
X199517Y436300D01*
X199517Y436300D01*
X186944D01*
Y439674D01*
D02*
G37*
G36*
X113725Y420420D02*
X99890D01*
Y409085D01*
X106120D01*
X108088Y409344D01*
X109923Y410104D01*
X111498Y411312D01*
X112706Y412887D01*
X113466Y414722D01*
X113725Y416690D01*
Y420420D01*
D02*
G37*
G36*
X97350D02*
X83515D01*
Y416690D01*
X83774Y414722D01*
X84534Y412887D01*
X85742Y411312D01*
X87317Y410104D01*
X89152Y409344D01*
X91120Y409085D01*
X97350D01*
Y420420D01*
D02*
G37*
G36*
X58725D02*
X44890D01*
Y409085D01*
X51120D01*
X53088Y409344D01*
X54923Y410104D01*
X56498Y411312D01*
X57706Y412887D01*
X58466Y414722D01*
X58725Y416690D01*
Y420420D01*
D02*
G37*
G36*
X42350D02*
X28515D01*
Y416690D01*
X28774Y414722D01*
X29534Y412887D01*
X30742Y411312D01*
X32318Y410104D01*
X34152Y409344D01*
X36120Y409085D01*
X42350D01*
Y420420D01*
D02*
G37*
G36*
X526942Y412750D02*
X523240D01*
Y409048D01*
X524848Y409713D01*
X526277Y411142D01*
X526942Y412750D01*
D02*
G37*
G36*
X520700D02*
X516997D01*
X517663Y411142D01*
X519092Y409713D01*
X520700Y409048D01*
Y412750D01*
D02*
G37*
G36*
X601980Y408833D02*
Y405130D01*
X605682D01*
X605017Y406738D01*
X603588Y408167D01*
X601980Y408833D01*
D02*
G37*
G36*
X599440D02*
X597832Y408167D01*
X596403Y406738D01*
X595737Y405130D01*
X599440D01*
Y408833D01*
D02*
G37*
G36*
X71850Y408726D02*
X69438Y408080D01*
X67262Y406824D01*
X65486Y405048D01*
X64230Y402872D01*
X63584Y400460D01*
X71850D01*
Y408726D01*
D02*
G37*
G36*
X605682Y402590D02*
X601980D01*
Y398887D01*
X603588Y399553D01*
X605017Y400982D01*
X605682Y402590D01*
D02*
G37*
G36*
X599440D02*
X595737D01*
X596403Y400982D01*
X597832Y399553D01*
X599440Y398887D01*
Y402590D01*
D02*
G37*
G36*
X688340Y399943D02*
Y396240D01*
X692042D01*
X691377Y397848D01*
X689948Y399277D01*
X688340Y399943D01*
D02*
G37*
G36*
X685800D02*
X684192Y399277D01*
X682763Y397848D01*
X682097Y396240D01*
X685800D01*
Y399943D01*
D02*
G37*
G36*
X16510D02*
Y396240D01*
X20213D01*
X19547Y397848D01*
X18118Y399277D01*
X16510Y399943D01*
D02*
G37*
G36*
X13970D02*
X12362Y399277D01*
X10933Y397848D01*
X10267Y396240D01*
X13970D01*
Y399943D01*
D02*
G37*
G36*
X692042Y393700D02*
X688340D01*
Y389997D01*
X689948Y390663D01*
X691377Y392092D01*
X692042Y393700D01*
D02*
G37*
G36*
X685800D02*
X682097D01*
X682763Y392092D01*
X684192Y390663D01*
X685800Y389997D01*
Y393700D01*
D02*
G37*
G36*
X20213D02*
X16510D01*
Y389997D01*
X18118Y390663D01*
X19547Y392092D01*
X20213Y393700D01*
D02*
G37*
G36*
X13970D02*
X10267D01*
X10933Y392092D01*
X12362Y390663D01*
X13970Y389997D01*
Y393700D01*
D02*
G37*
G36*
X571500Y387243D02*
Y383540D01*
X575202D01*
X574537Y385148D01*
X573108Y386577D01*
X571500Y387243D01*
D02*
G37*
G36*
X568960D02*
X567352Y386577D01*
X565923Y385148D01*
X565257Y383540D01*
X568960D01*
Y387243D01*
D02*
G37*
G36*
X575202Y381000D02*
X571500D01*
Y377298D01*
X573108Y377963D01*
X574537Y379392D01*
X575202Y381000D01*
D02*
G37*
G36*
X568960D02*
X565257D01*
X565923Y379392D01*
X567352Y377963D01*
X568960Y377298D01*
Y381000D01*
D02*
G37*
G36*
X608330Y378353D02*
Y374650D01*
X612033D01*
X611367Y376258D01*
X609938Y377687D01*
X608330Y378353D01*
D02*
G37*
G36*
X605790D02*
X604182Y377687D01*
X602753Y376258D01*
X602088Y374650D01*
X605790D01*
Y378353D01*
D02*
G37*
G36*
X689610Y377082D02*
Y373380D01*
X693313D01*
X692647Y374988D01*
X691218Y376417D01*
X689610Y377082D01*
D02*
G37*
G36*
X687070D02*
X685462Y376417D01*
X684033Y374988D01*
X683367Y373380D01*
X687070D01*
Y377082D01*
D02*
G37*
G36*
X537210D02*
Y373380D01*
X540913D01*
X540247Y374988D01*
X538818Y376417D01*
X537210Y377082D01*
D02*
G37*
G36*
X534670D02*
X533062Y376417D01*
X531633Y374988D01*
X530967Y373380D01*
X534670D01*
Y377082D01*
D02*
G37*
G36*
X44450D02*
Y373380D01*
X48152D01*
X47487Y374988D01*
X46058Y376417D01*
X44450Y377082D01*
D02*
G37*
G36*
X41910D02*
X40302Y376417D01*
X38873Y374988D01*
X38207Y373380D01*
X41910D01*
Y377082D01*
D02*
G37*
G36*
X612033Y372110D02*
X608330D01*
Y368408D01*
X609938Y369073D01*
X611367Y370502D01*
X612033Y372110D01*
D02*
G37*
G36*
X605790D02*
X602088D01*
X602753Y370502D01*
X604182Y369073D01*
X605790Y368408D01*
Y372110D01*
D02*
G37*
G36*
X13970Y372002D02*
Y368300D01*
X17672D01*
X17007Y369908D01*
X15578Y371337D01*
X13970Y372002D01*
D02*
G37*
G36*
X11430D02*
X9822Y371337D01*
X8393Y369908D01*
X7728Y368300D01*
X11430D01*
Y372002D01*
D02*
G37*
G36*
X693313Y370840D02*
X689610D01*
Y367137D01*
X691218Y367803D01*
X692647Y369232D01*
X693313Y370840D01*
D02*
G37*
G36*
X687070D02*
X683367D01*
X684033Y369232D01*
X685462Y367803D01*
X687070Y367137D01*
Y370840D01*
D02*
G37*
G36*
X540913D02*
X537210D01*
Y367137D01*
X538818Y367803D01*
X540247Y369232D01*
X540913Y370840D01*
D02*
G37*
G36*
X534670D02*
X530967D01*
X531633Y369232D01*
X533062Y367803D01*
X534670Y367137D01*
Y370840D01*
D02*
G37*
G36*
X48152D02*
X44450D01*
Y367137D01*
X46058Y367803D01*
X47487Y369232D01*
X48152Y370840D01*
D02*
G37*
G36*
X41910D02*
X38207D01*
X38873Y369232D01*
X40302Y367803D01*
X41910Y367137D01*
Y370840D01*
D02*
G37*
G36*
X17672Y365760D02*
X13970D01*
Y362057D01*
X15578Y362723D01*
X17007Y364152D01*
X17672Y365760D01*
D02*
G37*
G36*
X11430D02*
X7728D01*
X8393Y364152D01*
X9822Y362723D01*
X11430Y362057D01*
Y365760D01*
D02*
G37*
G36*
X74390Y364726D02*
Y356460D01*
X82656D01*
X82010Y358872D01*
X80754Y361048D01*
X78978Y362824D01*
X76802Y364080D01*
X74390Y364726D01*
D02*
G37*
G36*
X266700Y362077D02*
X260350D01*
Y356108D01*
X266700D01*
Y362077D01*
D02*
G37*
G36*
X257810D02*
X251460D01*
Y356108D01*
X257810D01*
Y362077D01*
D02*
G37*
G36*
X112730Y359920D02*
X99890D01*
Y356076D01*
X108870D01*
X110349Y356370D01*
X111602Y357207D01*
X112440Y358461D01*
X112730Y359920D01*
D02*
G37*
G36*
X97350D02*
X84510D01*
X84800Y358461D01*
X85638Y357207D01*
X86891Y356370D01*
X88370Y356076D01*
X97350D01*
Y359920D01*
D02*
G37*
G36*
X552450Y355493D02*
Y351790D01*
X556152D01*
X555487Y353398D01*
X554058Y354827D01*
X552450Y355493D01*
D02*
G37*
G36*
X549910D02*
X548302Y354827D01*
X546873Y353398D01*
X546208Y351790D01*
X549910D01*
Y355493D01*
D02*
G37*
G36*
X681350Y360040D02*
X671830D01*
Y350520D01*
X681350D01*
Y360040D01*
D02*
G37*
G36*
X266700Y353568D02*
X260350D01*
Y347599D01*
X266700D01*
Y353568D01*
D02*
G37*
G36*
X257810D02*
X251460D01*
Y347599D01*
X257810D01*
Y353568D01*
D02*
G37*
G36*
X690880Y350412D02*
Y346710D01*
X694583D01*
X693917Y348318D01*
X692488Y349747D01*
X690880Y350412D01*
D02*
G37*
G36*
X688340D02*
X686732Y349747D01*
X685303Y348318D01*
X684638Y346710D01*
X688340D01*
Y350412D01*
D02*
G37*
G36*
X82656Y353920D02*
X74390D01*
Y345654D01*
X76802Y346300D01*
X78978Y347556D01*
X80754Y349332D01*
X82010Y351508D01*
X82656Y353920D01*
D02*
G37*
G36*
X556152Y349250D02*
X552450D01*
Y345547D01*
X554058Y346213D01*
X555487Y347642D01*
X556152Y349250D01*
D02*
G37*
G36*
X549910D02*
X546208D01*
X546873Y347642D01*
X548302Y346213D01*
X549910Y345547D01*
Y349250D01*
D02*
G37*
G36*
X694583Y344170D02*
X690880D01*
Y340467D01*
X692488Y341133D01*
X693917Y342562D01*
X694583Y344170D01*
D02*
G37*
G36*
X688340D02*
X684638D01*
X685303Y342562D01*
X686732Y341133D01*
X688340Y340467D01*
Y344170D01*
D02*
G37*
G36*
X681350Y347980D02*
X671830D01*
Y338460D01*
X681350D01*
Y347980D01*
D02*
G37*
G36*
X669290D02*
X659770D01*
Y338460D01*
X669290D01*
Y347980D01*
D02*
G37*
G36*
X106120Y345295D02*
X99890D01*
Y333960D01*
X113725D01*
Y337690D01*
X113466Y339658D01*
X112706Y341493D01*
X111498Y343068D01*
X109923Y344276D01*
X108088Y345036D01*
X106120Y345295D01*
D02*
G37*
G36*
X97350D02*
X91120D01*
X89152Y345036D01*
X87317Y344276D01*
X85742Y343068D01*
X84534Y341493D01*
X83774Y339658D01*
X83515Y337690D01*
Y333960D01*
X97350D01*
Y345295D01*
D02*
G37*
G36*
X42350D02*
X36120D01*
X34152Y345036D01*
X32318Y344276D01*
X30742Y343068D01*
X29534Y341493D01*
X28774Y339658D01*
X28515Y337690D01*
Y333960D01*
X42350D01*
Y345295D01*
D02*
G37*
G36*
X13970Y336442D02*
Y332740D01*
X17672D01*
X17007Y334348D01*
X15578Y335777D01*
X13970Y336442D01*
D02*
G37*
G36*
X11430D02*
X9822Y335777D01*
X8393Y334348D01*
X7728Y332740D01*
X11430D01*
Y336442D01*
D02*
G37*
G36*
X17672Y330200D02*
X13970D01*
Y326497D01*
X15578Y327163D01*
X17007Y328592D01*
X17672Y330200D01*
D02*
G37*
G36*
X11430D02*
X7728D01*
X8393Y328592D01*
X9822Y327163D01*
X11430Y326497D01*
Y330200D01*
D02*
G37*
G36*
X147037Y329495D02*
X139443D01*
X140023Y327334D01*
X141193Y325307D01*
X142848Y323652D01*
X144875Y322481D01*
X147037Y321902D01*
Y329495D01*
D02*
G37*
G36*
X113725Y331420D02*
X99890D01*
Y320085D01*
X106120D01*
X108088Y320344D01*
X109923Y321104D01*
X111498Y322312D01*
X112706Y323887D01*
X113466Y325722D01*
X113725Y327690D01*
Y331420D01*
D02*
G37*
G36*
X58725D02*
X44890D01*
Y320085D01*
X51120D01*
X53088Y320344D01*
X54923Y321104D01*
X56498Y322312D01*
X57706Y323887D01*
X58466Y325722D01*
X58725Y327690D01*
Y331420D01*
D02*
G37*
G36*
X42350D02*
X28515D01*
Y327690D01*
X28774Y325722D01*
X29534Y323887D01*
X30742Y322312D01*
X32318Y321104D01*
X34152Y320344D01*
X36120Y320085D01*
X42350D01*
Y331420D01*
D02*
G37*
G36*
X130810Y322472D02*
Y318770D01*
X134513D01*
X133847Y320378D01*
X132418Y321807D01*
X130810Y322472D01*
D02*
G37*
G36*
X128270D02*
X126662Y321807D01*
X125233Y320378D01*
X124567Y318770D01*
X128270D01*
Y322472D01*
D02*
G37*
G36*
X134513Y316230D02*
X130810D01*
Y312528D01*
X132418Y313193D01*
X133847Y314622D01*
X134513Y316230D01*
D02*
G37*
G36*
X128270D02*
X124567D01*
X125233Y314622D01*
X126662Y313193D01*
X128270Y312528D01*
Y316230D01*
D02*
G37*
G36*
X192278Y318770D02*
X186309D01*
Y312420D01*
X192278D01*
Y318770D01*
D02*
G37*
G36*
X489204Y317754D02*
X476758D01*
Y304546D01*
X489204D01*
Y317754D01*
D02*
G37*
G36*
X317500Y310388D02*
X311150D01*
Y304419D01*
X317500D01*
Y310388D01*
D02*
G37*
G36*
X287020D02*
X280670D01*
Y304419D01*
X287020D01*
Y310388D01*
D02*
G37*
G36*
X256540D02*
X250190D01*
Y304419D01*
X256540D01*
Y310388D01*
D02*
G37*
G36*
X226060D02*
X219710D01*
Y304419D01*
X226060D01*
Y310388D01*
D02*
G37*
G36*
X372110D02*
X365760D01*
Y304419D01*
X372110D01*
Y310388D01*
D02*
G37*
G36*
X308610D02*
X302260D01*
Y304419D01*
X308610D01*
Y310388D01*
D02*
G37*
G36*
X278130D02*
X271780D01*
Y304419D01*
X278130D01*
Y310388D01*
D02*
G37*
G36*
X247650D02*
X241300D01*
Y304419D01*
X247650D01*
Y310388D01*
D02*
G37*
G36*
X217170D02*
X210820D01*
Y304419D01*
X217170D01*
Y310388D01*
D02*
G37*
G36*
X347980Y310007D02*
X341630D01*
Y304038D01*
X347980D01*
Y310007D01*
D02*
G37*
G36*
X339090D02*
X332740D01*
Y304038D01*
X339090D01*
Y310007D01*
D02*
G37*
G36*
X192278Y309880D02*
X186309D01*
Y303530D01*
X192278D01*
Y309880D01*
D02*
G37*
G36*
X183769D02*
X177800D01*
Y303530D01*
X183769D01*
Y309880D01*
D02*
G37*
G36*
X669290Y303423D02*
Y299720D01*
X672992D01*
X672327Y301328D01*
X670898Y302757D01*
X669290Y303423D01*
D02*
G37*
G36*
X666750D02*
X665142Y302757D01*
X663713Y301328D01*
X663047Y299720D01*
X666750D01*
Y303423D01*
D02*
G37*
G36*
X146050Y302153D02*
Y298450D01*
X149753D01*
X149087Y300058D01*
X147658Y301487D01*
X146050Y302153D01*
D02*
G37*
G36*
X143510D02*
X141902Y301487D01*
X140473Y300058D01*
X139808Y298450D01*
X143510D01*
Y302153D01*
D02*
G37*
G36*
X317500Y301879D02*
X311150D01*
Y295910D01*
X317500D01*
Y301879D01*
D02*
G37*
G36*
X308610D02*
X302260D01*
Y295910D01*
X308610D01*
Y301879D01*
D02*
G37*
G36*
X287020D02*
X280670D01*
Y295910D01*
X287020D01*
Y301879D01*
D02*
G37*
G36*
X278130D02*
X271780D01*
Y295910D01*
X278130D01*
Y301879D01*
D02*
G37*
G36*
X256540D02*
X250190D01*
Y295910D01*
X256540D01*
Y301879D01*
D02*
G37*
G36*
X247650D02*
X241300D01*
Y295910D01*
X247650D01*
Y301879D01*
D02*
G37*
G36*
X226060D02*
X219710D01*
Y295910D01*
X226060D01*
Y301879D01*
D02*
G37*
G36*
X217170D02*
X210820D01*
Y295910D01*
X217170D01*
Y301879D01*
D02*
G37*
G36*
X347980Y301498D02*
X341630D01*
Y295529D01*
X347980D01*
Y301498D01*
D02*
G37*
G36*
X339090D02*
X332740D01*
Y295529D01*
X339090D01*
Y301498D01*
D02*
G37*
G36*
X672992Y297180D02*
X669290D01*
Y293477D01*
X670898Y294143D01*
X672327Y295572D01*
X672992Y297180D01*
D02*
G37*
G36*
X666750D02*
X663047D01*
X663713Y295572D01*
X665142Y294143D01*
X666750Y293477D01*
Y297180D01*
D02*
G37*
G36*
X149753Y295910D02*
X146050D01*
Y292208D01*
X147658Y292873D01*
X149087Y294302D01*
X149753Y295910D01*
D02*
G37*
G36*
X143510D02*
X139808D01*
X140473Y294302D01*
X141902Y292873D01*
X143510Y292208D01*
Y295910D01*
D02*
G37*
G36*
X14396Y295420D02*
Y291717D01*
X18098D01*
X17433Y293325D01*
X16004Y294754D01*
X14396Y295420D01*
D02*
G37*
G36*
X11856D02*
X10248Y294754D01*
X8819Y293325D01*
X8153Y291717D01*
X11856D01*
Y295420D01*
D02*
G37*
G36*
X192278Y293370D02*
X186309D01*
Y287020D01*
X192278D01*
Y293370D01*
D02*
G37*
G36*
X183769D02*
X177800D01*
Y287020D01*
X183769D01*
Y293370D01*
D02*
G37*
G36*
X18098Y289177D02*
X14396D01*
Y285475D01*
X16004Y286141D01*
X17433Y287570D01*
X18098Y289177D01*
D02*
G37*
G36*
X11856D02*
X8153D01*
X8819Y287570D01*
X10248Y286141D01*
X11856Y285475D01*
Y289177D01*
D02*
G37*
G36*
X62230Y285643D02*
Y281940D01*
X65932D01*
X65267Y283548D01*
X63838Y284977D01*
X62230Y285643D01*
D02*
G37*
G36*
X59690D02*
X58082Y284977D01*
X56653Y283548D01*
X55988Y281940D01*
X59690D01*
Y285643D01*
D02*
G37*
G36*
X668020Y284373D02*
Y280670D01*
X671722D01*
X671057Y282278D01*
X669628Y283707D01*
X668020Y284373D01*
D02*
G37*
G36*
X665480D02*
X663872Y283707D01*
X662443Y282278D01*
X661777Y280670D01*
X665480D01*
Y284373D01*
D02*
G37*
G36*
X567690D02*
Y280670D01*
X571393D01*
X570727Y282278D01*
X569298Y283707D01*
X567690Y284373D01*
D02*
G37*
G36*
X565150D02*
X563542Y283707D01*
X562113Y282278D01*
X561447Y280670D01*
X565150D01*
Y284373D01*
D02*
G37*
G36*
X264160Y283102D02*
Y279400D01*
X267862D01*
X267197Y281008D01*
X265768Y282437D01*
X264160Y283102D01*
D02*
G37*
G36*
X261620D02*
X260012Y282437D01*
X258583Y281008D01*
X257917Y279400D01*
X261620D01*
Y283102D01*
D02*
G37*
G36*
X220980D02*
Y279400D01*
X224683D01*
X224017Y281008D01*
X222588Y282437D01*
X220980Y283102D01*
D02*
G37*
G36*
X218440D02*
X216832Y282437D01*
X215403Y281008D01*
X214737Y279400D01*
X218440D01*
Y283102D01*
D02*
G37*
G36*
X299176Y282586D02*
Y278884D01*
X302878D01*
X302213Y280491D01*
X300784Y281920D01*
X299176Y282586D01*
D02*
G37*
G36*
X296636D02*
X295028Y281920D01*
X293599Y280491D01*
X292934Y278884D01*
X296636D01*
Y282586D01*
D02*
G37*
G36*
X327660Y281833D02*
Y278130D01*
X331362D01*
X330697Y279738D01*
X329268Y281167D01*
X327660Y281833D01*
D02*
G37*
G36*
X325120D02*
X323512Y281167D01*
X322083Y279738D01*
X321418Y278130D01*
X325120D01*
Y281833D01*
D02*
G37*
G36*
X241300D02*
Y278130D01*
X245002D01*
X244337Y279738D01*
X242908Y281167D01*
X241300Y281833D01*
D02*
G37*
G36*
X238760D02*
X237152Y281167D01*
X235723Y279738D01*
X235058Y278130D01*
X238760D01*
Y281833D01*
D02*
G37*
G36*
X192278Y284480D02*
X186309D01*
Y278130D01*
X192278D01*
Y284480D01*
D02*
G37*
G36*
X183769D02*
X177800D01*
Y278130D01*
X183769D01*
Y284480D01*
D02*
G37*
G36*
X65932Y279400D02*
X62230D01*
Y275697D01*
X63838Y276363D01*
X65267Y277792D01*
X65932Y279400D01*
D02*
G37*
G36*
X59690D02*
X55988D01*
X56653Y277792D01*
X58082Y276363D01*
X59690Y275697D01*
Y279400D01*
D02*
G37*
G36*
X524510Y279293D02*
Y275590D01*
X528213D01*
X527547Y277198D01*
X526118Y278627D01*
X524510Y279293D01*
D02*
G37*
G36*
X521970D02*
X520362Y278627D01*
X518933Y277198D01*
X518268Y275590D01*
X521970D01*
Y279293D01*
D02*
G37*
G36*
X671722Y278130D02*
X668020D01*
Y274428D01*
X669628Y275093D01*
X671057Y276522D01*
X671722Y278130D01*
D02*
G37*
G36*
X665480D02*
X661777D01*
X662443Y276522D01*
X663872Y275093D01*
X665480Y274428D01*
Y278130D01*
D02*
G37*
G36*
X571393D02*
X567690D01*
Y274428D01*
X569298Y275093D01*
X570727Y276522D01*
X571393Y278130D01*
D02*
G37*
G36*
X565150D02*
X561447D01*
X562113Y276522D01*
X563542Y275093D01*
X565150Y274428D01*
Y278130D01*
D02*
G37*
G36*
X267862Y276860D02*
X264160D01*
Y273158D01*
X265768Y273823D01*
X267197Y275252D01*
X267862Y276860D01*
D02*
G37*
G36*
X261620D02*
X257917D01*
X258583Y275252D01*
X260012Y273823D01*
X261620Y273158D01*
Y276860D01*
D02*
G37*
G36*
X224683D02*
X220980D01*
Y273158D01*
X222588Y273823D01*
X224017Y275252D01*
X224683Y276860D01*
D02*
G37*
G36*
X218440D02*
X214737D01*
X215403Y275252D01*
X216832Y273823D01*
X218440Y273158D01*
Y276860D01*
D02*
G37*
G36*
X302878Y276344D02*
X299176D01*
Y272641D01*
X300784Y273307D01*
X302213Y274736D01*
X302878Y276344D01*
D02*
G37*
G36*
X296636D02*
X292934D01*
X293599Y274736D01*
X295028Y273307D01*
X296636Y272641D01*
Y276344D01*
D02*
G37*
G36*
X331362Y275590D02*
X327660D01*
Y271887D01*
X329268Y272553D01*
X330697Y273982D01*
X331362Y275590D01*
D02*
G37*
G36*
X325120D02*
X321418D01*
X322083Y273982D01*
X323512Y272553D01*
X325120Y271887D01*
Y275590D01*
D02*
G37*
G36*
X245002D02*
X241300D01*
Y271887D01*
X242908Y272553D01*
X244337Y273982D01*
X245002Y275590D01*
D02*
G37*
G36*
X238760D02*
X235058D01*
X235723Y273982D01*
X237152Y272553D01*
X238760Y271887D01*
Y275590D01*
D02*
G37*
G36*
X528213Y273050D02*
X524510D01*
Y269347D01*
X526118Y270013D01*
X527547Y271442D01*
X528213Y273050D01*
D02*
G37*
G36*
X521970D02*
X518268D01*
X518933Y271442D01*
X520362Y270013D01*
X521970Y269347D01*
Y273050D01*
D02*
G37*
G36*
X463860Y274433D02*
X451860D01*
X450680Y274198D01*
X449680Y273530D01*
X449011Y272530D01*
X448777Y271350D01*
Y268350D01*
X449011Y267170D01*
X449680Y266170D01*
X450680Y265501D01*
X451860Y265267D01*
X463860D01*
X465040Y265501D01*
X466040Y266170D01*
X466708Y267170D01*
X466943Y268350D01*
Y271350D01*
X466708Y272530D01*
X466040Y273530D01*
X465040Y274198D01*
X463860Y274433D01*
D02*
G37*
G36*
X77470Y267862D02*
Y264160D01*
X81173D01*
X80507Y265768D01*
X79078Y267197D01*
X77470Y267862D01*
D02*
G37*
G36*
X74930D02*
X73322Y267197D01*
X71893Y265768D01*
X71227Y264160D01*
X74930D01*
Y267862D01*
D02*
G37*
G36*
X192278Y267970D02*
X186309D01*
Y261620D01*
X192278D01*
Y267970D01*
D02*
G37*
G36*
X183769D02*
X177800D01*
Y261620D01*
X183769D01*
Y267970D01*
D02*
G37*
G36*
X418084Y273812D02*
X404876D01*
Y261366D01*
X418084D01*
Y273812D01*
D02*
G37*
G36*
X81173Y261620D02*
X77470D01*
Y257917D01*
X79078Y258583D01*
X80507Y260012D01*
X81173Y261620D01*
D02*
G37*
G36*
X74930D02*
X71227D01*
X71893Y260012D01*
X73322Y258583D01*
X74930Y257917D01*
Y261620D01*
D02*
G37*
G36*
X669290Y260243D02*
Y256540D01*
X672992D01*
X672327Y258148D01*
X670898Y259577D01*
X669290Y260243D01*
D02*
G37*
G36*
X666750D02*
X665142Y259577D01*
X663713Y258148D01*
X663047Y256540D01*
X666750D01*
Y260243D01*
D02*
G37*
G36*
X383540D02*
Y256540D01*
X387243D01*
X386577Y258148D01*
X385148Y259577D01*
X383540Y260243D01*
D02*
G37*
G36*
X381000D02*
X379392Y259577D01*
X377963Y258148D01*
X377298Y256540D01*
X381000D01*
Y260243D01*
D02*
G37*
G36*
X672992Y254000D02*
X669290D01*
Y250298D01*
X670898Y250963D01*
X672327Y252392D01*
X672992Y254000D01*
D02*
G37*
G36*
X666750D02*
X663047D01*
X663713Y252392D01*
X665142Y250963D01*
X666750Y250298D01*
Y254000D01*
D02*
G37*
G36*
X387243D02*
X383540D01*
Y250298D01*
X385148Y250963D01*
X386577Y252392D01*
X387243Y254000D01*
D02*
G37*
G36*
X381000D02*
X377298D01*
X377963Y252392D01*
X379392Y250963D01*
X381000Y250298D01*
Y254000D01*
D02*
G37*
G36*
X355600Y250082D02*
Y246380D01*
X359302D01*
X358637Y247988D01*
X357208Y249417D01*
X355600Y250082D01*
D02*
G37*
G36*
X353060D02*
X351452Y249417D01*
X350023Y247988D01*
X349357Y246380D01*
X353060D01*
Y250082D01*
D02*
G37*
G36*
X654620Y257510D02*
X641350D01*
Y244240D01*
X654620D01*
Y257510D01*
D02*
G37*
G36*
X638810D02*
X625540D01*
Y244240D01*
X638810D01*
Y257510D01*
D02*
G37*
G36*
X227013Y246950D02*
Y243247D01*
X230715D01*
X230049Y244855D01*
X228620Y246284D01*
X227013Y246950D01*
D02*
G37*
G36*
X224473D02*
X222865Y246284D01*
X221436Y244855D01*
X220770Y243247D01*
X224473D01*
Y246950D01*
D02*
G37*
G36*
X408217Y246854D02*
Y243151D01*
X411919D01*
X411253Y244759D01*
X409824Y246188D01*
X408217Y246854D01*
D02*
G37*
G36*
X405677D02*
X404069Y246188D01*
X402640Y244759D01*
X401974Y243151D01*
X405677D01*
Y246854D01*
D02*
G37*
G36*
X321310Y246273D02*
Y242570D01*
X325013D01*
X324347Y244178D01*
X322918Y245607D01*
X321310Y246273D01*
D02*
G37*
G36*
X318770D02*
X317162Y245607D01*
X315733Y244178D01*
X315068Y242570D01*
X318770D01*
Y246273D01*
D02*
G37*
G36*
X359302Y243840D02*
X355600D01*
Y240138D01*
X357208Y240803D01*
X358637Y242232D01*
X359302Y243840D01*
D02*
G37*
G36*
X353060D02*
X349357D01*
X350023Y242232D01*
X351452Y240803D01*
X353060Y240138D01*
Y243840D01*
D02*
G37*
G36*
X443230Y243732D02*
Y240030D01*
X446932D01*
X446267Y241638D01*
X444838Y243067D01*
X443230Y243732D01*
D02*
G37*
G36*
X440690D02*
X439082Y243067D01*
X437653Y241638D01*
X436987Y240030D01*
X440690D01*
Y243732D01*
D02*
G37*
G36*
X264160Y241192D02*
Y237490D01*
X267862D01*
X267197Y239098D01*
X265768Y240527D01*
X264160Y241192D01*
D02*
G37*
G36*
X261620D02*
X260012Y240527D01*
X258583Y239098D01*
X257917Y237490D01*
X261620D01*
Y241192D01*
D02*
G37*
G36*
X230715Y240707D02*
X227013D01*
Y237005D01*
X228620Y237670D01*
X230049Y239099D01*
X230715Y240707D01*
D02*
G37*
G36*
X224473D02*
X220770D01*
X221436Y239099D01*
X222865Y237670D01*
X224473Y237005D01*
Y240707D01*
D02*
G37*
G36*
X411919Y240611D02*
X408217D01*
Y236908D01*
X409824Y237574D01*
X411253Y239003D01*
X411919Y240611D01*
D02*
G37*
G36*
X405677D02*
X401974D01*
X402640Y239003D01*
X404069Y237574D01*
X405677Y236908D01*
Y240611D01*
D02*
G37*
G36*
X325013Y240030D02*
X321310D01*
Y236327D01*
X322918Y236993D01*
X324347Y238422D01*
X325013Y240030D01*
D02*
G37*
G36*
X318770D02*
X315068D01*
X315733Y238422D01*
X317162Y236993D01*
X318770Y236327D01*
Y240030D01*
D02*
G37*
G36*
X669290Y238652D02*
Y234950D01*
X672992D01*
X672327Y236558D01*
X670898Y237987D01*
X669290Y238652D01*
D02*
G37*
G36*
X666750D02*
X665142Y237987D01*
X663713Y236558D01*
X663047Y234950D01*
X666750D01*
Y238652D01*
D02*
G37*
G36*
X446932Y237490D02*
X443230D01*
Y233787D01*
X444838Y234453D01*
X446267Y235882D01*
X446932Y237490D01*
D02*
G37*
G36*
X440690D02*
X436987D01*
X437653Y235882D01*
X439082Y234453D01*
X440690Y233787D01*
Y237490D01*
D02*
G37*
G36*
X267862Y234950D02*
X264160D01*
Y231248D01*
X265768Y231913D01*
X267197Y233342D01*
X267862Y234950D01*
D02*
G37*
G36*
X261620D02*
X257917D01*
X258583Y233342D01*
X260012Y231913D01*
X261620Y231248D01*
Y234950D01*
D02*
G37*
G36*
X672992Y232410D02*
X669290D01*
Y228708D01*
X670898Y229373D01*
X672327Y230802D01*
X672992Y232410D01*
D02*
G37*
G36*
X666750D02*
X663047D01*
X663713Y230802D01*
X665142Y229373D01*
X666750Y228708D01*
Y232410D01*
D02*
G37*
G36*
X654620Y241700D02*
X641350D01*
Y228430D01*
X654620D01*
Y241700D01*
D02*
G37*
G36*
X638810D02*
X625540D01*
Y228430D01*
X638810D01*
Y241700D01*
D02*
G37*
G36*
X566496Y226978D02*
Y223276D01*
X570198D01*
X569532Y224883D01*
X568103Y226312D01*
X566496Y226978D01*
D02*
G37*
G36*
X563956D02*
X562348Y226312D01*
X560919Y224883D01*
X560253Y223276D01*
X563956D01*
Y226978D01*
D02*
G37*
G36*
X570198Y220736D02*
X566496D01*
Y217033D01*
X568103Y217699D01*
X569532Y219128D01*
X570198Y220736D01*
D02*
G37*
G36*
X563956D02*
X560253D01*
X560919Y219128D01*
X562348Y217699D01*
X563956Y217033D01*
Y220736D01*
D02*
G37*
G36*
X169826Y220231D02*
Y216528D01*
X173528D01*
X172863Y218136D01*
X171434Y219565D01*
X169826Y220231D01*
D02*
G37*
G36*
X167286D02*
X165678Y219565D01*
X164249Y218136D01*
X163584Y216528D01*
X167286D01*
Y220231D01*
D02*
G37*
G36*
X492760Y214522D02*
Y210820D01*
X496463D01*
X495797Y212428D01*
X494368Y213857D01*
X492760Y214522D01*
D02*
G37*
G36*
X490220D02*
X488612Y213857D01*
X487183Y212428D01*
X486517Y210820D01*
X490220D01*
Y214522D01*
D02*
G37*
G36*
X173528Y213988D02*
X169826D01*
Y210286D01*
X171434Y210952D01*
X172863Y212381D01*
X173528Y213988D01*
D02*
G37*
G36*
X167286D02*
X163584D01*
X164249Y212381D01*
X165678Y210952D01*
X167286Y210286D01*
Y213988D01*
D02*
G37*
G36*
X196076Y212731D02*
Y209028D01*
X199778D01*
X199112Y210636D01*
X197683Y212065D01*
X196076Y212731D01*
D02*
G37*
G36*
X193536D02*
X191928Y212065D01*
X190499Y210636D01*
X189833Y209028D01*
X193536D01*
Y212731D01*
D02*
G37*
G36*
X496463Y208280D02*
X492760D01*
Y204578D01*
X494368Y205243D01*
X495797Y206672D01*
X496463Y208280D01*
D02*
G37*
G36*
X490220D02*
X486517D01*
X487183Y206672D01*
X488612Y205243D01*
X490220Y204578D01*
Y208280D01*
D02*
G37*
G36*
X199778Y206488D02*
X196076D01*
Y202786D01*
X197683Y203452D01*
X199112Y204881D01*
X199778Y206488D01*
D02*
G37*
G36*
X193536D02*
X189833D01*
X190499Y204881D01*
X191928Y203452D01*
X193536Y202786D01*
Y206488D01*
D02*
G37*
G36*
X320040Y206248D02*
X313690D01*
Y200279D01*
X320040D01*
Y206248D01*
D02*
G37*
G36*
X311150D02*
X304800D01*
Y200279D01*
X311150D01*
Y206248D01*
D02*
G37*
G36*
X402140Y204629D02*
X393910D01*
Y198260D01*
X407279D01*
Y199490D01*
X406888Y201457D01*
X405774Y203124D01*
X404106Y204238D01*
X402140Y204629D01*
D02*
G37*
G36*
X391370D02*
X383140D01*
X381174Y204238D01*
X379506Y203124D01*
X378392Y201457D01*
X378001Y199490D01*
Y198260D01*
X391370D01*
Y204629D01*
D02*
G37*
G36*
X599956Y197320D02*
Y193617D01*
X603659D01*
X602993Y195225D01*
X601564Y196654D01*
X599956Y197320D01*
D02*
G37*
G36*
X597416D02*
X595809Y196654D01*
X594380Y195225D01*
X593714Y193617D01*
X597416D01*
Y197320D01*
D02*
G37*
G36*
X344170Y197739D02*
X337820D01*
Y191770D01*
X344170D01*
Y197739D01*
D02*
G37*
G36*
X320040D02*
X313690D01*
Y191770D01*
X320040D01*
Y197739D01*
D02*
G37*
G36*
X311150D02*
X304800D01*
Y191770D01*
X311150D01*
Y197739D01*
D02*
G37*
G36*
X407279Y195720D02*
X393910D01*
Y189351D01*
X402140D01*
X404106Y189742D01*
X405774Y190856D01*
X406888Y192523D01*
X407279Y194490D01*
Y195720D01*
D02*
G37*
G36*
X603659Y191077D02*
X599956D01*
Y187375D01*
X601564Y188041D01*
X602993Y189470D01*
X603659Y191077D01*
D02*
G37*
G36*
X597416D02*
X593714D01*
X594380Y189470D01*
X595809Y188041D01*
X597416Y187375D01*
Y191077D01*
D02*
G37*
G36*
X92650Y213437D02*
X85150D01*
X83092Y213028D01*
X81348Y211862D01*
X80182Y210118D01*
X79773Y208060D01*
Y180560D01*
X80182Y178502D01*
X81348Y176758D01*
X83092Y175592D01*
X85150Y175183D01*
X92650D01*
X94708Y175592D01*
X96452Y176758D01*
X97618Y178502D01*
X98027Y180560D01*
Y208060D01*
X97618Y210118D01*
X96452Y211862D01*
X94708Y213028D01*
X92650Y213437D01*
D02*
G37*
G36*
X551180Y172612D02*
Y168910D01*
X554883D01*
X554217Y170518D01*
X552788Y171947D01*
X551180Y172612D01*
D02*
G37*
G36*
X548640D02*
X547032Y171947D01*
X545603Y170518D01*
X544938Y168910D01*
X548640D01*
Y172612D01*
D02*
G37*
G36*
X152650Y215937D02*
X145150D01*
X143092Y215528D01*
X141348Y214362D01*
X140182Y212618D01*
X139773Y210560D01*
Y178060D01*
X140182Y176002D01*
X141348Y174258D01*
X143092Y173092D01*
X143462Y173019D01*
Y149216D01*
X140237Y145991D01*
X140118Y146040D01*
X120170D01*
Y137147D01*
X129733D01*
X130219Y135973D01*
X127954Y133708D01*
X119380D01*
X117299Y133294D01*
X115534Y132116D01*
X107914Y124496D01*
X106735Y122731D01*
X106321Y120650D01*
Y103709D01*
X106589Y102365D01*
X105418Y101740D01*
X102982Y104176D01*
X101218Y105354D01*
X99137Y105768D01*
X66864D01*
Y113854D01*
X39816D01*
Y86806D01*
X66864D01*
Y94892D01*
X96884D01*
X113325Y78450D01*
X115089Y77271D01*
X117171Y76858D01*
X159689D01*
X161771Y77271D01*
X163535Y78450D01*
X171975Y86890D01*
X176276D01*
Y86106D01*
X189484D01*
Y86890D01*
X206756D01*
Y86106D01*
X219964D01*
Y98552D01*
X206756D01*
Y97767D01*
X189484D01*
Y98552D01*
X176276D01*
Y98552D01*
X175161Y98926D01*
Y99863D01*
X175260Y101092D01*
X176431Y101092D01*
X181610D01*
Y108331D01*
Y115570D01*
X175260Y115570D01*
X175161Y116799D01*
Y154260D01*
X188127Y167226D01*
X195484D01*
Y182274D01*
X180436D01*
Y174917D01*
X165877Y160358D01*
X164698Y158594D01*
X164284Y156512D01*
Y94582D01*
X160177Y90475D01*
X159004Y90961D01*
Y98552D01*
X145796D01*
Y97767D01*
X131064D01*
Y98552D01*
X124376D01*
X123910Y99250D01*
X123241Y99919D01*
X123727Y101092D01*
X132080D01*
Y107061D01*
X124460D01*
Y108331D01*
X123190D01*
Y115570D01*
X117198D01*
Y118397D01*
X121633Y122831D01*
X130207D01*
X132288Y123245D01*
X134052Y124424D01*
X152746Y143118D01*
X153925Y144882D01*
X154339Y146963D01*
Y173019D01*
X154708Y173092D01*
X156452Y174258D01*
X157618Y176002D01*
X158027Y178060D01*
Y188871D01*
X199167D01*
X213456Y174583D01*
Y167226D01*
X228504D01*
Y182274D01*
X221147D01*
X205266Y198156D01*
X203501Y199335D01*
X201420Y199748D01*
X158027D01*
Y210560D01*
X157618Y212618D01*
X156452Y214362D01*
X154708Y215528D01*
X152650Y215937D01*
D02*
G37*
G36*
X320040Y170688D02*
X313690D01*
Y164719D01*
X320040D01*
Y170688D01*
D02*
G37*
G36*
X311150D02*
X304800D01*
Y164719D01*
X311150D01*
Y170688D01*
D02*
G37*
G36*
X554883Y166370D02*
X551180D01*
Y162668D01*
X552788Y163333D01*
X554217Y164762D01*
X554883Y166370D01*
D02*
G37*
G36*
X548640D02*
X544938D01*
X545603Y164762D01*
X547032Y163333D01*
X548640Y162668D01*
Y166370D01*
D02*
G37*
G36*
X353060Y162179D02*
X346710D01*
Y156210D01*
X353060D01*
Y162179D01*
D02*
G37*
G36*
X344170D02*
X337820D01*
Y156210D01*
X344170D01*
Y162179D01*
D02*
G37*
G36*
X320040D02*
X313690D01*
Y156210D01*
X320040D01*
Y162179D01*
D02*
G37*
G36*
X311150D02*
X304800D01*
Y156210D01*
X311150D01*
Y162179D01*
D02*
G37*
G36*
X459040Y192114D02*
X442240D01*
X440241Y191717D01*
X438546Y190584D01*
X437413Y188889D01*
X437016Y186890D01*
Y161090D01*
X437413Y159091D01*
X438546Y157396D01*
X440241Y156263D01*
X442240Y155866D01*
X459040D01*
X461039Y156263D01*
X462734Y157396D01*
X463867Y159091D01*
X464264Y161090D01*
Y186890D01*
X463867Y188889D01*
X462734Y190584D01*
X461039Y191717D01*
X459040Y192114D01*
D02*
G37*
G36*
X132650Y157473D02*
X120170D01*
Y148580D01*
X139063D01*
Y151060D01*
X138575Y153514D01*
X137185Y155595D01*
X135104Y156985D01*
X132650Y157473D01*
D02*
G37*
G36*
X117630D02*
X105150D01*
X102696Y156985D01*
X100615Y155595D01*
X99225Y153514D01*
X98737Y151060D01*
Y148580D01*
X117630D01*
Y157473D01*
D02*
G37*
G36*
X275463Y218694D02*
X263017D01*
Y205486D01*
X267772D01*
X296763Y176494D01*
X298528Y175315D01*
X300609Y174902D01*
X305816D01*
Y173228D01*
X319024D01*
Y174013D01*
X338836D01*
Y173228D01*
X344353D01*
X345719Y171861D01*
X345233Y170688D01*
X337820D01*
Y164719D01*
X345440D01*
X353252D01*
X354233Y165126D01*
X372074Y147284D01*
X373839Y146105D01*
X375920Y145691D01*
X380170D01*
X380239Y145589D01*
X381570Y144699D01*
X383140Y144387D01*
X402140D01*
X403710Y144699D01*
X405041Y145589D01*
X405930Y146920D01*
X406243Y148490D01*
Y153490D01*
X405930Y155060D01*
X405041Y156391D01*
X403710Y157281D01*
X402140Y157593D01*
X383140D01*
X381570Y157281D01*
X380504Y156568D01*
X378173D01*
X357414Y177328D01*
X355649Y178507D01*
X354161Y178803D01*
X352044Y180919D01*
Y185674D01*
X338836D01*
Y184890D01*
X319024D01*
Y185674D01*
X312056D01*
X311531Y185779D01*
X302862D01*
X275463Y213177D01*
Y218694D01*
D02*
G37*
G36*
X640080Y147212D02*
Y143510D01*
X643783D01*
X643117Y145118D01*
X641688Y146547D01*
X640080Y147212D01*
D02*
G37*
G36*
X637540D02*
X635932Y146547D01*
X634503Y145118D01*
X633838Y143510D01*
X637540D01*
Y147212D01*
D02*
G37*
G36*
X643783Y140970D02*
X640080D01*
Y137268D01*
X641688Y137933D01*
X643117Y139362D01*
X643783Y140970D01*
D02*
G37*
G36*
X637540D02*
X633838D01*
X634503Y139362D01*
X635932Y137933D01*
X637540Y137268D01*
Y140970D01*
D02*
G37*
G36*
X117630Y146040D02*
X98737D01*
Y143560D01*
X99225Y141106D01*
X100615Y139025D01*
X102696Y137635D01*
X105150Y137147D01*
X117630D01*
Y146040D01*
D02*
G37*
G36*
X527050Y121812D02*
Y118110D01*
X530752D01*
X530087Y119718D01*
X528658Y121147D01*
X527050Y121812D01*
D02*
G37*
G36*
X524510D02*
X522902Y121147D01*
X521473Y119718D01*
X520807Y118110D01*
X524510D01*
Y121812D01*
D02*
G37*
G36*
X530752Y115570D02*
X527050D01*
Y111868D01*
X528658Y112533D01*
X530087Y113962D01*
X530752Y115570D01*
D02*
G37*
G36*
X524510D02*
X520807D01*
X521473Y113962D01*
X522902Y112533D01*
X524510Y111868D01*
Y115570D01*
D02*
G37*
G36*
X220980D02*
X214630D01*
Y109601D01*
X220980D01*
Y115570D01*
D02*
G37*
G36*
X184150D02*
Y109601D01*
X190500D01*
Y115570D01*
X184150D01*
D02*
G37*
G36*
X160020D02*
X153670D01*
Y109601D01*
X160020D01*
Y115570D01*
D02*
G37*
G36*
X132080D02*
X125730D01*
Y109601D01*
X132080D01*
Y115570D01*
D02*
G37*
G36*
X212090D02*
X205740D01*
Y109601D01*
X212090D01*
Y115570D01*
D02*
G37*
G36*
X151130D02*
X144780D01*
Y109601D01*
X151130D01*
Y115570D01*
D02*
G37*
G36*
X265430Y109113D02*
Y105410D01*
X269132D01*
X268467Y107018D01*
X267038Y108447D01*
X265430Y109113D01*
D02*
G37*
G36*
X262890D02*
X261282Y108447D01*
X259853Y107018D01*
X259188Y105410D01*
X262890D01*
Y109113D01*
D02*
G37*
G36*
X454660Y106573D02*
Y102870D01*
X458363D01*
X457697Y104478D01*
X456268Y105907D01*
X454660Y106573D01*
D02*
G37*
G36*
X452120D02*
X450512Y105907D01*
X449083Y104478D01*
X448418Y102870D01*
X452120D01*
Y106573D01*
D02*
G37*
G36*
X326390Y105302D02*
Y101600D01*
X330093D01*
X329427Y103208D01*
X327998Y104637D01*
X326390Y105302D01*
D02*
G37*
G36*
X323850D02*
X322242Y104637D01*
X320813Y103208D01*
X320148Y101600D01*
X323850D01*
Y105302D01*
D02*
G37*
G36*
X220980Y107061D02*
X214630D01*
Y101092D01*
X220980D01*
Y107061D01*
D02*
G37*
G36*
X212090D02*
X205740D01*
Y101092D01*
X212090D01*
Y107061D01*
D02*
G37*
G36*
X190500D02*
X184150D01*
Y101092D01*
X190500D01*
Y107061D01*
D02*
G37*
G36*
X160020D02*
X153670D01*
Y101092D01*
X160020D01*
Y107061D01*
D02*
G37*
G36*
X151130D02*
X144780D01*
Y101092D01*
X151130D01*
Y107061D01*
D02*
G37*
G36*
X382637Y103982D02*
Y100280D01*
X386339D01*
X385673Y101887D01*
X384244Y103316D01*
X382637Y103982D01*
D02*
G37*
G36*
X380097D02*
X378489Y103316D01*
X377060Y101887D01*
X376394Y100280D01*
X380097D01*
Y103982D01*
D02*
G37*
G36*
X269132Y102870D02*
X265430D01*
Y99167D01*
X267038Y99833D01*
X268467Y101262D01*
X269132Y102870D01*
D02*
G37*
G36*
X262890D02*
X259188D01*
X259853Y101262D01*
X261282Y99833D01*
X262890Y99167D01*
Y102870D01*
D02*
G37*
G36*
X458363Y100330D02*
X454660D01*
Y96628D01*
X456268Y97293D01*
X457697Y98722D01*
X458363Y100330D01*
D02*
G37*
G36*
X452120D02*
X448418D01*
X449083Y98722D01*
X450512Y97293D01*
X452120Y96628D01*
Y100330D01*
D02*
G37*
G36*
X330093Y99060D02*
X326390D01*
Y95358D01*
X327998Y96023D01*
X329427Y97452D01*
X330093Y99060D01*
D02*
G37*
G36*
X323850D02*
X320148D01*
X320813Y97452D01*
X322242Y96023D01*
X323850Y95358D01*
Y99060D01*
D02*
G37*
G36*
X386339Y97740D02*
X382637D01*
Y94037D01*
X384244Y94703D01*
X385673Y96132D01*
X386339Y97740D01*
D02*
G37*
G36*
X380097D02*
X376394D01*
X377060Y96132D01*
X378489Y94703D01*
X380097Y94037D01*
Y97740D01*
D02*
G37*
G36*
X618968Y90855D02*
Y87152D01*
X622670D01*
X622005Y88760D01*
X620575Y90189D01*
X618968Y90855D01*
D02*
G37*
G36*
X616428D02*
X614820Y90189D01*
X613391Y88760D01*
X612725Y87152D01*
X616428D01*
Y90855D01*
D02*
G37*
G36*
X622670Y84612D02*
X618968D01*
Y80910D01*
X620575Y81575D01*
X622005Y83004D01*
X622670Y84612D01*
D02*
G37*
G36*
X616428D02*
X612725D01*
X613391Y83004D01*
X614820Y81575D01*
X616428Y80910D01*
Y84612D01*
D02*
G37*
G36*
X53984Y64870D02*
X53340D01*
Y51600D01*
X66610D01*
Y52244D01*
X65619Y55942D01*
X63705Y59258D01*
X60998Y61965D01*
X57682Y63879D01*
X53984Y64870D01*
D02*
G37*
G36*
X50800D02*
X50156D01*
X46458Y63879D01*
X43142Y61965D01*
X40435Y59258D01*
X38521Y55942D01*
X37530Y52244D01*
Y51600D01*
X50800D01*
Y64870D01*
D02*
G37*
G36*
X598435Y49789D02*
Y46087D01*
X602138D01*
X601472Y47694D01*
X600043Y49123D01*
X598435Y49789D01*
D02*
G37*
G36*
X595895D02*
X594288Y49123D01*
X592859Y47694D01*
X592193Y46087D01*
X595895D01*
Y49789D01*
D02*
G37*
G36*
X415290Y45613D02*
Y41910D01*
X418993D01*
X418327Y43518D01*
X416898Y44947D01*
X415290Y45613D01*
D02*
G37*
G36*
X412750D02*
X411142Y44947D01*
X409713Y43518D01*
X409048Y41910D01*
X412750D01*
Y45613D01*
D02*
G37*
G36*
X349002Y43705D02*
Y40003D01*
X352704D01*
X352038Y41610D01*
X350609Y43039D01*
X349002Y43705D01*
D02*
G37*
G36*
X346462D02*
X344854Y43039D01*
X343425Y41610D01*
X342759Y40003D01*
X346462D01*
Y43705D01*
D02*
G37*
G36*
X602138Y43547D02*
X598435D01*
Y39844D01*
X600043Y40510D01*
X601472Y41939D01*
X602138Y43547D01*
D02*
G37*
G36*
X595895D02*
X592193D01*
X592859Y41939D01*
X594288Y40510D01*
X595895Y39844D01*
Y43547D01*
D02*
G37*
G36*
X500380Y43073D02*
Y39370D01*
X504082D01*
X503417Y40978D01*
X501988Y42407D01*
X500380Y43073D01*
D02*
G37*
G36*
X497840D02*
X496232Y42407D01*
X494803Y40978D01*
X494137Y39370D01*
X497840D01*
Y43073D01*
D02*
G37*
G36*
X287020Y40532D02*
Y36830D01*
X290723D01*
X290057Y38438D01*
X288628Y39867D01*
X287020Y40532D01*
D02*
G37*
G36*
X284480D02*
X282872Y39867D01*
X281443Y38438D01*
X280777Y36830D01*
X284480D01*
Y40532D01*
D02*
G37*
G36*
X66610Y49060D02*
X53340D01*
Y35790D01*
X53984D01*
X57682Y36781D01*
X60998Y38695D01*
X63705Y41402D01*
X65619Y44718D01*
X66610Y48416D01*
Y49060D01*
D02*
G37*
G36*
X50800D02*
X37530D01*
Y48416D01*
X38521Y44718D01*
X40435Y41402D01*
X43142Y38695D01*
X46458Y36781D01*
X50156Y35790D01*
X50800D01*
Y49060D01*
D02*
G37*
G36*
X418993Y39370D02*
X415290D01*
Y35668D01*
X416898Y36333D01*
X418327Y37762D01*
X418993Y39370D01*
D02*
G37*
G36*
X412750D02*
X409048D01*
X409713Y37762D01*
X411142Y36333D01*
X412750Y35668D01*
Y39370D01*
D02*
G37*
G36*
X130810Y37992D02*
Y34290D01*
X134513D01*
X133847Y35898D01*
X132418Y37327D01*
X130810Y37992D01*
D02*
G37*
G36*
X128270D02*
X126662Y37327D01*
X125233Y35898D01*
X124567Y34290D01*
X128270D01*
Y37992D01*
D02*
G37*
G36*
X352704Y37463D02*
X349002D01*
Y33760D01*
X350609Y34426D01*
X352038Y35855D01*
X352704Y37463D01*
D02*
G37*
G36*
X346462D02*
X342759D01*
X343425Y35855D01*
X344854Y34426D01*
X346462Y33760D01*
Y37463D01*
D02*
G37*
G36*
X504082Y36830D02*
X500380D01*
Y33128D01*
X501988Y33793D01*
X503417Y35222D01*
X504082Y36830D01*
D02*
G37*
G36*
X497840D02*
X494137D01*
X494803Y35222D01*
X496232Y33793D01*
X497840Y33128D01*
Y36830D01*
D02*
G37*
G36*
X217170Y36723D02*
Y33020D01*
X220872D01*
X220207Y34628D01*
X218778Y36057D01*
X217170Y36723D01*
D02*
G37*
G36*
X214630D02*
X213022Y36057D01*
X211593Y34628D01*
X210928Y33020D01*
X214630D01*
Y36723D01*
D02*
G37*
G36*
X290723Y34290D02*
X287020D01*
Y30587D01*
X288628Y31253D01*
X290057Y32682D01*
X290723Y34290D01*
D02*
G37*
G36*
X284480D02*
X280777D01*
X281443Y32682D01*
X282872Y31253D01*
X284480Y30587D01*
Y34290D01*
D02*
G37*
G36*
X134513Y31750D02*
X130810D01*
Y28047D01*
X132418Y28713D01*
X133847Y30142D01*
X134513Y31750D01*
D02*
G37*
G36*
X128270D02*
X124567D01*
X125233Y30142D01*
X126662Y28713D01*
X128270Y28047D01*
Y31750D01*
D02*
G37*
G36*
X220872Y30480D02*
X217170D01*
Y26778D01*
X218778Y27443D01*
X220207Y28872D01*
X220872Y30480D01*
D02*
G37*
G36*
X214630D02*
X210928D01*
X211593Y28872D01*
X213022Y27443D01*
X214630Y26778D01*
Y30480D01*
D02*
G37*
%LPD*%
G36*
X626198Y634691D02*
X598120Y606613D01*
X587065D01*
X585885Y606379D01*
X584885Y605710D01*
X584216Y604710D01*
X583982Y603530D01*
Y600530D01*
X584216Y599350D01*
X584885Y598350D01*
X585885Y597682D01*
X587065Y597447D01*
X596366D01*
X596852Y596273D01*
X595600Y595021D01*
X543111D01*
X542625Y596194D01*
X555113Y608681D01*
X565329D01*
X565885Y607850D01*
X566885Y607182D01*
X568065Y606947D01*
X580065D01*
X581245Y607182D01*
X582245Y607850D01*
X582914Y608850D01*
X583148Y610030D01*
Y613030D01*
X582914Y614210D01*
X582245Y615210D01*
X581245Y615878D01*
X580065Y616113D01*
X568065D01*
X566885Y615878D01*
X565885Y615210D01*
X565329Y614379D01*
X553933D01*
X553933Y614379D01*
X553434Y614280D01*
X552809Y615450D01*
X573320Y635961D01*
X625672D01*
X626198Y634691D01*
D02*
G37*
G36*
X675331Y632550D02*
Y564919D01*
X668177Y557765D01*
X667004Y558251D01*
Y565912D01*
X653796D01*
Y562538D01*
X635508D01*
Y565349D01*
X643128D01*
X643128Y565349D01*
X644218Y565566D01*
X645142Y566184D01*
X647174Y568216D01*
X647792Y569140D01*
X648009Y570230D01*
X648009Y570230D01*
Y577676D01*
X648423Y577758D01*
X649348Y578376D01*
X651607Y580635D01*
X652780Y580149D01*
Y576961D01*
X659130D01*
Y582930D01*
X655561D01*
X655075Y584103D01*
X667494Y596522D01*
X667494Y596522D01*
X668112Y597447D01*
X668329Y598537D01*
Y632242D01*
X668112Y633332D01*
X667494Y634257D01*
X667494Y634257D01*
X667060Y634691D01*
X667586Y635961D01*
X671920D01*
X675331Y632550D01*
D02*
G37*
G36*
X658528Y595613D02*
X646031Y583116D01*
X645558Y583022D01*
X644633Y582404D01*
X644633Y582404D01*
X643146Y580916D01*
X642528Y579992D01*
X642311Y578902D01*
X642311Y578902D01*
Y571410D01*
X641948Y571047D01*
X635508D01*
Y578845D01*
X635563Y579120D01*
X635563Y579120D01*
Y582744D01*
X649605Y596787D01*
X658042D01*
X658528Y595613D01*
D02*
G37*
G36*
X589788Y576961D02*
X597408D01*
Y574421D01*
X589788D01*
Y570031D01*
X572516D01*
Y577885D01*
X574966Y580335D01*
X589788D01*
Y576961D01*
D02*
G37*
G36*
X416451Y574950D02*
X417120Y573950D01*
X418120Y573282D01*
X419300Y573047D01*
X422300D01*
X423480Y573282D01*
X424480Y573950D01*
X425092Y574865D01*
X425184Y574877D01*
X426362Y574127D01*
Y571754D01*
X425196D01*
Y559871D01*
X407924D01*
Y571754D01*
X406758D01*
Y573914D01*
X408036Y575191D01*
X416404D01*
X416451Y574950D01*
D02*
G37*
G36*
X618202Y552632D02*
X617604Y551434D01*
X616412D01*
X614918Y550815D01*
X614321Y550219D01*
X544364D01*
X543878Y551392D01*
X549326Y556840D01*
X559308D01*
Y553466D01*
X572516D01*
Y556840D01*
X590804D01*
Y553466D01*
X604012D01*
Y564333D01*
X606501D01*
X618202Y552632D01*
D02*
G37*
G36*
X425196Y543306D02*
X424043Y543025D01*
X416986D01*
X416986Y543025D01*
X415896Y542808D01*
X414972Y542190D01*
X414972Y542190D01*
X340395Y467614D01*
X339552D01*
X338058Y466995D01*
X336915Y465852D01*
X336296Y464358D01*
Y462742D01*
X336915Y461248D01*
X338058Y460105D01*
X339552Y459486D01*
X341168D01*
X342662Y460105D01*
X343805Y461248D01*
X344424Y462742D01*
Y463450D01*
X345337Y464185D01*
X346456Y463703D01*
Y462742D01*
X347075Y461248D01*
X348218Y460105D01*
X348733Y459891D01*
X349031Y458393D01*
X338092Y447454D01*
X337474Y446530D01*
X337257Y445439D01*
X337257Y445439D01*
Y440021D01*
X337257Y440021D01*
X337311Y439750D01*
Y437343D01*
X323143D01*
Y457151D01*
X370568Y504577D01*
X370568Y504577D01*
X371186Y505501D01*
X371403Y506591D01*
X371403Y506591D01*
Y529313D01*
X393543Y551453D01*
X394716Y550967D01*
Y543306D01*
X407924D01*
Y554173D01*
X425196D01*
Y543306D01*
D02*
G37*
G36*
X527812Y553466D02*
X536235D01*
X536721Y552293D01*
X525630Y541202D01*
X489740D01*
X489254Y542375D01*
X500345Y553466D01*
X509524D01*
Y556840D01*
X527812D01*
Y553466D01*
D02*
G37*
G36*
X614673Y543869D02*
X614199Y542599D01*
X572140D01*
X571050Y542382D01*
X570126Y541764D01*
X570126Y541764D01*
X540994Y512633D01*
X529940D01*
X528760Y512398D01*
X527760Y511730D01*
X527091Y510730D01*
X526857Y509550D01*
Y506550D01*
X526892Y506375D01*
X525858Y505105D01*
X519841D01*
X513153Y511794D01*
X513639Y512967D01*
X522940D01*
X524120Y513201D01*
X525120Y513870D01*
X525788Y514870D01*
X526023Y516050D01*
Y519050D01*
X525788Y520230D01*
X525120Y521230D01*
X524120Y521898D01*
X522940Y522133D01*
X511885D01*
X504686Y529332D01*
X503762Y529950D01*
X502672Y530167D01*
X502672Y530167D01*
X452365D01*
X452363Y530170D01*
X453041Y531440D01*
X525665D01*
X526264Y530320D01*
X526134Y530126D01*
X525821Y528550D01*
Y528320D01*
X534670D01*
Y532669D01*
X532562D01*
X532076Y533843D01*
X542755Y544521D01*
X614078D01*
X614673Y543869D01*
D02*
G37*
G36*
X619969Y535728D02*
X596214Y511973D01*
X585160D01*
X583980Y511739D01*
X582980Y511070D01*
X582312Y510070D01*
X582077Y508890D01*
Y505890D01*
X582312Y504710D01*
X582980Y503710D01*
X583980Y503041D01*
X585160Y502807D01*
X597160D01*
X598340Y503041D01*
X599340Y503710D01*
X600009Y504710D01*
X600243Y505890D01*
Y507944D01*
X625136Y532837D01*
X636520D01*
X636678Y532391D01*
X636732Y531567D01*
X635587Y530803D01*
X634694Y529466D01*
X634381Y527890D01*
Y527660D01*
X644500D01*
Y526390D01*
X645770D01*
Y520771D01*
X650500D01*
X652076Y521084D01*
X652208Y521172D01*
X653328Y520574D01*
Y512165D01*
X652058Y511486D01*
X651680Y511739D01*
X650500Y511973D01*
X638500D01*
X637320Y511739D01*
X636320Y511070D01*
X635652Y510070D01*
X635417Y508890D01*
Y505890D01*
X635652Y504710D01*
X636320Y503710D01*
X637320Y503041D01*
X638500Y502807D01*
X641651D01*
Y499122D01*
X630463Y487934D01*
X621284D01*
Y480273D01*
X620111Y479787D01*
X608679Y491218D01*
X607755Y491836D01*
X606665Y492053D01*
X606665Y492053D01*
X591679D01*
X591679Y492053D01*
X590588Y491836D01*
X589664Y491218D01*
X583006Y484560D01*
X574548D01*
Y487934D01*
X561340D01*
Y480273D01*
X560167Y479787D01*
X548735Y491218D01*
X547811Y491836D01*
X546721Y492053D01*
X546721Y492053D01*
X531735D01*
X531735Y492053D01*
X530644Y491836D01*
X529720Y491218D01*
X523062Y484560D01*
X514604D01*
Y487934D01*
X501396D01*
Y476051D01*
X475121D01*
X474031Y475834D01*
X473107Y475216D01*
X473107Y475216D01*
X467517Y469627D01*
X466344Y470113D01*
Y477774D01*
X465178D01*
Y483870D01*
X464765Y485951D01*
X463586Y487716D01*
X458506Y492796D01*
X456741Y493974D01*
X454660Y494389D01*
X444704D01*
X444608Y494870D01*
X443940Y495870D01*
X442940Y496539D01*
X441760Y496773D01*
X438760D01*
X437580Y496539D01*
X436580Y495870D01*
X435911Y494870D01*
X435677Y493690D01*
Y492627D01*
X434458Y492117D01*
X434372Y492130D01*
X433843Y492649D01*
Y493690D01*
X433609Y494870D01*
X432940Y495870D01*
X431940Y496539D01*
X430760Y496773D01*
X427760D01*
X426580Y496539D01*
X425580Y495870D01*
X424911Y494870D01*
X424677Y493690D01*
Y492627D01*
X423458Y492117D01*
X423372Y492130D01*
X422843Y492649D01*
Y493690D01*
X422608Y494870D01*
X421940Y495870D01*
X420940Y496539D01*
X419760Y496773D01*
X416760D01*
X415580Y496539D01*
X414580Y495870D01*
X413912Y494870D01*
X413863Y494628D01*
X406640D01*
X404559Y494215D01*
X402794Y493036D01*
X396204Y486446D01*
X395025Y484681D01*
X394612Y482600D01*
Y477774D01*
X392176D01*
Y465891D01*
X358685D01*
X358159Y467161D01*
X389368Y498369D01*
X390445Y497650D01*
X389997Y496570D01*
X393700D01*
Y500272D01*
X392620Y499825D01*
X391900Y500902D01*
X412503Y521505D01*
X413677Y521019D01*
Y514690D01*
X413912Y513510D01*
X414580Y512510D01*
X415580Y511842D01*
X416760Y511607D01*
X419760D01*
X420940Y511842D01*
X421940Y512510D01*
X422608Y513510D01*
X422843Y514690D01*
Y522212D01*
X423407Y522639D01*
X424677Y522008D01*
Y514690D01*
X424911Y513510D01*
X425580Y512510D01*
X426580Y511842D01*
X427760Y511607D01*
X430760D01*
X431940Y511842D01*
X432940Y512510D01*
X433609Y513510D01*
X433843Y514690D01*
Y522212D01*
X434407Y522639D01*
X435677Y522008D01*
Y514690D01*
X435911Y513510D01*
X436580Y512510D01*
X437580Y511842D01*
X438760Y511607D01*
X441760D01*
X442940Y511842D01*
X443940Y512510D01*
X444608Y513510D01*
X444843Y514690D01*
Y516341D01*
X494800D01*
X516586Y494556D01*
X516586Y494556D01*
X517510Y493938D01*
X518600Y493721D01*
X600680D01*
X600680Y493721D01*
X601770Y493938D01*
X602694Y494556D01*
X620446Y512307D01*
X631500D01*
X632680Y512542D01*
X633680Y513210D01*
X634348Y514210D01*
X634583Y515390D01*
Y518390D01*
X634348Y519570D01*
X633680Y520570D01*
X632680Y521239D01*
X631500Y521473D01*
X619500D01*
X618320Y521239D01*
X617320Y520570D01*
X616651Y519570D01*
X616417Y518390D01*
Y516335D01*
X599500Y499419D01*
X556013D01*
X555488Y500689D01*
X567105Y512307D01*
X578160D01*
X579340Y512542D01*
X580340Y513210D01*
X581008Y514210D01*
X581243Y515390D01*
Y518390D01*
X581008Y519570D01*
X580340Y520570D01*
X579340Y521239D01*
X578160Y521473D01*
X566160D01*
X564980Y521239D01*
X563980Y520570D01*
X563312Y519570D01*
X563077Y518390D01*
Y516335D01*
X551846Y505105D01*
X546022D01*
X544988Y506375D01*
X545023Y506550D01*
Y508605D01*
X573320Y536901D01*
X619483D01*
X619969Y535728D01*
D02*
G37*
G36*
X670251Y523330D02*
Y468399D01*
X665637Y463785D01*
X664464Y464271D01*
Y471932D01*
X651256D01*
Y468558D01*
X634492D01*
Y470637D01*
X635508Y471369D01*
X636598Y471586D01*
X637522Y472204D01*
X649067Y483748D01*
X650240Y483262D01*
Y482981D01*
X656590D01*
Y488950D01*
X655928D01*
X655442Y490123D01*
X658191Y492872D01*
X658191Y492872D01*
X658809Y493797D01*
X659025Y494887D01*
Y532760D01*
X660295Y533286D01*
X670251Y523330D01*
D02*
G37*
G36*
X454301Y481617D02*
Y477774D01*
X453136D01*
Y465891D01*
X435864D01*
Y477774D01*
X434698D01*
Y482687D01*
X435876Y483437D01*
X435969Y483425D01*
X436580Y482510D01*
X437580Y481842D01*
X438760Y481607D01*
X441760D01*
X442940Y481842D01*
X443940Y482510D01*
X444608Y483510D01*
X444609Y483512D01*
X452407D01*
X454301Y481617D01*
D02*
G37*
G36*
X413912Y483510D02*
X414580Y482510D01*
X415580Y481842D01*
X416760Y481607D01*
X419760D01*
X420940Y481842D01*
X421940Y482510D01*
X422551Y483425D01*
X422644Y483437D01*
X423821Y482687D01*
Y477774D01*
X422656D01*
Y465891D01*
X405384D01*
Y471915D01*
X405489Y472440D01*
Y480347D01*
X408893Y483751D01*
X413863D01*
X413912Y483510D01*
D02*
G37*
G36*
X619636Y472204D02*
X620560Y471586D01*
X621284Y471442D01*
Y461802D01*
X620014Y461370D01*
X606168Y475216D01*
X605536Y475638D01*
Y480441D01*
X597916D01*
Y482981D01*
X605536D01*
Y484645D01*
X606709Y485131D01*
X619636Y472204D01*
D02*
G37*
G36*
X617125Y456202D02*
X618049Y455584D01*
X619139Y455367D01*
X619139Y455367D01*
X623465D01*
X624060Y454097D01*
X623727Y453699D01*
X507784D01*
X507783Y453699D01*
X506693Y453482D01*
X505769Y452864D01*
X505769Y452864D01*
X496189Y443285D01*
X467031D01*
X466505Y444555D01*
X484810Y462860D01*
X501396D01*
Y459486D01*
X514604D01*
Y462860D01*
X531368D01*
Y459486D01*
X544576D01*
Y467147D01*
X545749Y467633D01*
X549688Y463695D01*
X550612Y463077D01*
X551702Y462860D01*
X551702Y462860D01*
X561340D01*
Y459486D01*
X574548D01*
Y462860D01*
X591312D01*
Y459486D01*
X604520D01*
Y467147D01*
X605693Y467633D01*
X617125Y456202D01*
D02*
G37*
G36*
X453136Y449326D02*
X452159Y448619D01*
X436841D01*
X435864Y449326D01*
Y460193D01*
X453136D01*
Y449326D01*
D02*
G37*
G36*
X422656D02*
X421679Y448619D01*
X406361D01*
X405384Y449326D01*
Y460193D01*
X422656D01*
Y449326D01*
D02*
G37*
G36*
X432796Y402645D02*
X432882Y402517D01*
X435397Y400002D01*
X436321Y399384D01*
X437411Y399167D01*
X437411Y399167D01*
X443969D01*
X443969Y399167D01*
X445059Y399384D01*
X445983Y400002D01*
X449610Y403629D01*
X449610Y403629D01*
X449872Y404021D01*
X450710Y403461D01*
X451890Y403227D01*
X452191D01*
X452677Y402053D01*
X423991Y373367D01*
X378791D01*
X377653Y374435D01*
Y382001D01*
X380353D01*
X380353Y382001D01*
X381037Y382137D01*
X381423Y381978D01*
X383040D01*
X384534Y382596D01*
X385677Y383740D01*
X386296Y385233D01*
Y386850D01*
X386213Y387050D01*
X387290Y387769D01*
X388982Y386077D01*
Y385233D01*
X389600Y383740D01*
X390744Y382596D01*
X392238Y381978D01*
X393854D01*
X395348Y382596D01*
X396491Y383740D01*
X397110Y385233D01*
Y386850D01*
X397027Y387050D01*
X398104Y387769D01*
X399796Y386077D01*
Y385233D01*
X400415Y383740D01*
X401558Y382596D01*
X403052Y381978D01*
X404668D01*
X406162Y382596D01*
X407305Y383740D01*
X407924Y385233D01*
Y386850D01*
X407305Y388344D01*
X406162Y389487D01*
X404668Y390106D01*
X403825D01*
X397917Y396014D01*
X398403Y397187D01*
X405465D01*
X405876Y396776D01*
X407370Y396157D01*
X408986D01*
X410480Y396776D01*
X411623Y397919D01*
X412242Y399413D01*
Y401030D01*
X411623Y402523D01*
X410480Y403667D01*
X408986Y404285D01*
X407370D01*
X405876Y403667D01*
X405094Y402884D01*
X395138D01*
X394652Y404058D01*
X400496Y409901D01*
X413661D01*
X414258Y409305D01*
X415752Y408686D01*
X417368D01*
X418862Y409305D01*
X420005Y410448D01*
X420624Y411942D01*
Y413021D01*
X421894Y413547D01*
X432796Y402645D01*
D02*
G37*
G36*
X173736Y411226D02*
X174902D01*
Y408427D01*
X173631Y407901D01*
X173099Y408434D01*
X171071Y409604D01*
X168910Y410183D01*
Y401320D01*
X166370D01*
Y410183D01*
X164209Y409604D01*
X162181Y408434D01*
X161046Y407298D01*
X159406Y407141D01*
X159340Y407208D01*
X157313Y408378D01*
X155152Y408957D01*
Y400094D01*
Y391032D01*
X155165Y391029D01*
X155774Y390083D01*
Y388424D01*
X152552Y385202D01*
X151934Y384278D01*
X151717Y383187D01*
X151717Y383187D01*
Y377524D01*
X146456Y372262D01*
X145838Y371338D01*
X145621Y370248D01*
X145621Y370248D01*
Y367665D01*
X144351Y366835D01*
X143768Y367090D01*
X143701Y367376D01*
X143946Y368605D01*
Y371855D01*
X143701Y373084D01*
X143005Y374125D01*
X143721Y375082D01*
X143738Y375102D01*
X143738Y375102D01*
X144658Y376480D01*
X144982Y378105D01*
Y378460D01*
X135860D01*
Y381000D01*
X144982D01*
Y381355D01*
X144658Y382980D01*
X143738Y384358D01*
X143738Y384358D01*
X143721Y384378D01*
X143005Y385335D01*
X143701Y386376D01*
X143946Y387605D01*
Y390855D01*
X143701Y392084D01*
X143005Y393125D01*
X141964Y393821D01*
X140735Y394066D01*
X130985D01*
X129756Y393821D01*
X128715Y393125D01*
X128019Y392084D01*
X127774Y390855D01*
Y388423D01*
X125930Y386579D01*
X111671D01*
X111483Y387522D01*
X110870Y388440D01*
Y389940D01*
X111483Y390858D01*
X111698Y391940D01*
Y392197D01*
X131512Y412010D01*
X173736D01*
Y411226D01*
D02*
G37*
G36*
X414012Y416251D02*
X413418Y415599D01*
X399316D01*
X398226Y415382D01*
X397301Y414764D01*
X397301Y414764D01*
X390236Y407699D01*
X378669D01*
Y408580D01*
X370160D01*
Y411120D01*
X378669D01*
Y413914D01*
X377653D01*
Y417521D01*
X413539D01*
X414012Y416251D01*
D02*
G37*
G36*
X422867Y366496D02*
X414752Y358381D01*
X398359D01*
X397873Y359554D01*
X398745Y360426D01*
X399588D01*
X401082Y361045D01*
X402225Y362188D01*
X402844Y363682D01*
Y365298D01*
X402388Y366399D01*
X403008Y367669D01*
X422381D01*
X422867Y366496D01*
D02*
G37*
G36*
X468267Y401531D02*
X468281Y401228D01*
X451376Y384323D01*
X450758Y383399D01*
X450541Y382309D01*
X450541Y382308D01*
Y366046D01*
X449710Y365490D01*
X449041Y364490D01*
X448807Y363310D01*
Y351810D01*
X449041Y350630D01*
X449710Y349630D01*
X450710Y348961D01*
X451331Y348838D01*
X451885Y347669D01*
X451884Y347459D01*
X451553Y347019D01*
X402575D01*
X402321Y347349D01*
X402948Y348619D01*
X417615D01*
X417615Y348619D01*
X418705Y348836D01*
X419630Y349454D01*
X424887Y354711D01*
X436107D01*
Y351810D01*
X436342Y350630D01*
X437010Y349630D01*
X438010Y348961D01*
X439190Y348727D01*
X442190D01*
X443370Y348961D01*
X444370Y349630D01*
X445038Y350630D01*
X445273Y351810D01*
Y363310D01*
X445038Y364490D01*
X444370Y365490D01*
X443370Y366159D01*
X442190Y366393D01*
X439190D01*
X438010Y366159D01*
X437010Y365490D01*
X436342Y364490D01*
X436107Y363310D01*
Y360409D01*
X426497D01*
X426011Y361582D01*
X442231Y377803D01*
X442231Y377803D01*
X466516Y402088D01*
X466516Y402088D01*
X466820Y402542D01*
X466946Y402567D01*
X468267Y401531D01*
D02*
G37*
%LPC*%
G36*
X599065Y626649D02*
X594335D01*
Y622300D01*
X603184D01*
Y622530D01*
X602870Y624106D01*
X601978Y625443D01*
X600641Y626336D01*
X599065Y626649D01*
D02*
G37*
G36*
X591795D02*
X587065D01*
X585489Y626336D01*
X584152Y625443D01*
X583259Y624106D01*
X582946Y622530D01*
Y622300D01*
X591795D01*
Y626649D01*
D02*
G37*
G36*
X603184Y619760D02*
X594335D01*
Y615411D01*
X599065D01*
X600641Y615724D01*
X601978Y616617D01*
X602870Y617954D01*
X603184Y619530D01*
Y619760D01*
D02*
G37*
G36*
X591795D02*
X582946D01*
Y619530D01*
X583259Y617954D01*
X584152Y616617D01*
X585489Y615724D01*
X587065Y615411D01*
X591795D01*
Y619760D01*
D02*
G37*
G36*
X668020Y582930D02*
X661670D01*
Y576961D01*
X668020D01*
Y582930D01*
D02*
G37*
G36*
Y574421D02*
X661670D01*
Y568452D01*
X668020D01*
Y574421D01*
D02*
G37*
G36*
X659130D02*
X652780D01*
Y568452D01*
X659130D01*
Y574421D01*
D02*
G37*
G36*
X541940Y532669D02*
X537210D01*
Y528320D01*
X546059D01*
Y528550D01*
X545746Y530126D01*
X544853Y531463D01*
X543516Y532356D01*
X541940Y532669D01*
D02*
G37*
G36*
X546059Y525780D02*
X537210D01*
Y521431D01*
X541940D01*
X543516Y521744D01*
X544853Y522637D01*
X545746Y523974D01*
X546059Y525550D01*
Y525780D01*
D02*
G37*
G36*
X534670D02*
X525821D01*
Y525550D01*
X526134Y523974D01*
X527027Y522637D01*
X528364Y521744D01*
X529940Y521431D01*
X534670D01*
Y525780D01*
D02*
G37*
G36*
X597160Y532009D02*
X592430D01*
Y527660D01*
X601279D01*
Y527890D01*
X600965Y529466D01*
X600073Y530803D01*
X598736Y531696D01*
X597160Y532009D01*
D02*
G37*
G36*
X589890D02*
X585160D01*
X583584Y531696D01*
X582247Y530803D01*
X581354Y529466D01*
X581041Y527890D01*
Y527660D01*
X589890D01*
Y532009D01*
D02*
G37*
G36*
X643230Y525120D02*
X634381D01*
Y524890D01*
X634694Y523314D01*
X635587Y521977D01*
X636924Y521084D01*
X638500Y520771D01*
X643230D01*
Y525120D01*
D02*
G37*
G36*
X601279D02*
X592430D01*
Y520771D01*
X597160D01*
X598736Y521084D01*
X600073Y521977D01*
X600965Y523314D01*
X601279Y524890D01*
Y525120D01*
D02*
G37*
G36*
X589890D02*
X581041D01*
Y524890D01*
X581354Y523314D01*
X582247Y521977D01*
X583584Y521084D01*
X585160Y520771D01*
X589890D01*
Y525120D01*
D02*
G37*
G36*
X475220Y503702D02*
Y500000D01*
X478923D01*
X478257Y501607D01*
X476828Y503036D01*
X475220Y503702D01*
D02*
G37*
G36*
X472680D02*
X471073Y503036D01*
X469644Y501607D01*
X468978Y500000D01*
X472680D01*
Y503702D01*
D02*
G37*
G36*
X505460Y500272D02*
Y496570D01*
X509162D01*
X508497Y498178D01*
X507068Y499607D01*
X505460Y500272D01*
D02*
G37*
G36*
X502920D02*
X501312Y499607D01*
X499883Y498178D01*
X499217Y496570D01*
X502920D01*
Y500272D01*
D02*
G37*
G36*
X396240D02*
Y496570D01*
X399943D01*
X399277Y498178D01*
X397848Y499607D01*
X396240Y500272D01*
D02*
G37*
G36*
X478923Y497460D02*
X475220D01*
Y493757D01*
X476828Y494423D01*
X478257Y495852D01*
X478923Y497460D01*
D02*
G37*
G36*
X472680D02*
X468978D01*
X469644Y495852D01*
X471073Y494423D01*
X472680Y493757D01*
Y497460D01*
D02*
G37*
G36*
X509162Y494030D02*
X505460D01*
Y490327D01*
X507068Y490993D01*
X508497Y492422D01*
X509162Y494030D01*
D02*
G37*
G36*
X502920D02*
X499217D01*
X499883Y492422D01*
X501312Y490993D01*
X502920Y490327D01*
Y494030D01*
D02*
G37*
G36*
X399943D02*
X396240D01*
Y490327D01*
X397848Y490993D01*
X399277Y492422D01*
X399943Y494030D01*
D02*
G37*
G36*
X393700D02*
X389997D01*
X390663Y492422D01*
X392092Y490993D01*
X393700Y490327D01*
Y494030D01*
D02*
G37*
G36*
X384810Y486302D02*
Y482600D01*
X388512D01*
X387847Y484208D01*
X386418Y485637D01*
X384810Y486302D01*
D02*
G37*
G36*
X382270D02*
X380662Y485637D01*
X379233Y484208D01*
X378568Y482600D01*
X382270D01*
Y486302D01*
D02*
G37*
G36*
X388512Y480060D02*
X384810D01*
Y476357D01*
X386418Y477023D01*
X387847Y478452D01*
X388512Y480060D01*
D02*
G37*
G36*
X382270D02*
X378568D01*
X379233Y478452D01*
X380662Y477023D01*
X382270Y476357D01*
Y480060D01*
D02*
G37*
G36*
X665480Y488950D02*
X659130D01*
Y482981D01*
X665480D01*
Y488950D01*
D02*
G37*
G36*
Y480441D02*
X659130D01*
Y474472D01*
X665480D01*
Y480441D01*
D02*
G37*
G36*
X656590D02*
X650240D01*
Y474472D01*
X656590D01*
Y480441D01*
D02*
G37*
G36*
X152612Y408957D02*
X150450Y408378D01*
X148423Y407208D01*
X146768Y405552D01*
X145597Y403525D01*
X145018Y401364D01*
X152612D01*
Y408957D01*
D02*
G37*
G36*
Y398824D02*
X145018D01*
X145597Y396662D01*
X146768Y394635D01*
X148423Y392980D01*
X150450Y391810D01*
X152612Y391231D01*
Y398824D01*
D02*
G37*
%LPD*%
G36*
X279393Y461971D02*
X278798Y461319D01*
X134703D01*
X134130Y462033D01*
X134662Y463241D01*
X278919D01*
X279393Y461971D01*
D02*
G37*
D16*
X193040Y364272D02*
Y372110D01*
X187960Y364272D02*
Y372110D01*
Y374214D01*
X193040Y353060D02*
Y364272D01*
X187960Y354330D02*
Y364272D01*
X186690Y353060D02*
X187960Y354330D01*
X193040Y352226D02*
Y353060D01*
X154632Y339090D02*
X178108D01*
X153550Y366040D02*
X154632Y364958D01*
X153550Y366040D02*
Y368144D01*
X154632Y369226D01*
X178108Y339090D02*
X179904D01*
X154324D02*
X154632D01*
Y364958D02*
X154940Y364649D01*
X154632Y369226D02*
X155195Y369789D01*
X177800Y344170D02*
X186690Y353060D01*
X156428Y344170D02*
X177800D01*
X360213Y402492D02*
X360699Y402978D01*
Y406834D02*
X363462Y409596D01*
X369906D01*
X370160Y409850D01*
X360699Y402978D02*
Y406834D01*
X355414Y421604D02*
Y429596D01*
Y421604D02*
X356648Y420370D01*
X419100D01*
X355160Y429850D02*
X355414Y429596D01*
X419100Y420370D02*
X434896Y404574D01*
X370160Y404850D02*
X391416D01*
X399316Y412750D01*
X326136Y334817D02*
X326571D01*
X329906Y344596D02*
X330160Y344850D01*
X326571Y334817D02*
X329906Y338152D01*
Y344596D01*
X284906Y379596D02*
X285160Y379850D01*
X276726Y379596D02*
X284906D01*
X267970Y370840D02*
X276726Y379596D01*
X259080Y370840D02*
X267970D01*
X398780Y344170D02*
X453323D01*
X407992Y400036D02*
X408178Y400221D01*
X399316Y412750D02*
X416560D01*
X370346Y400036D02*
X407992D01*
X370160Y399850D02*
X370346Y400036D01*
X388874Y440436D02*
X497369D01*
X507783Y450850D01*
X378460Y445770D02*
X463691D01*
X92722Y499110D02*
X133362Y458470D01*
X281940D01*
X131489Y466090D02*
X287020D01*
X73069Y524510D02*
X131489Y466090D01*
X58420Y499110D02*
X92722D01*
X199517Y433451D02*
X215519Y417449D01*
X180340Y433451D02*
X199517D01*
X215519Y417449D02*
X215900D01*
X258423Y407604D02*
X274051Y423232D01*
X295334D01*
X226726Y404781D02*
Y405528D01*
X228802Y407604D02*
X258423D01*
X275735Y419168D02*
X293650D01*
X264160Y400050D02*
Y400294D01*
X231250Y401604D02*
X258171D01*
X226250Y400540D02*
Y404305D01*
X264160Y400294D02*
X278462Y414596D01*
X258171Y401604D02*
X275735Y419168D01*
X226726Y405528D02*
X228802Y407604D01*
X226250Y404305D02*
X226726Y404781D01*
X351790Y440003D02*
Y440690D01*
X350160Y429850D02*
X350414Y430104D01*
Y438627D01*
X351790Y440003D01*
X340106Y445439D02*
X357709Y463042D01*
X340106Y440021D02*
Y445439D01*
X345440Y436880D02*
Y443230D01*
X357709Y463042D02*
X464961D01*
X340106Y440021D02*
X340160Y439967D01*
X58420Y524510D02*
X73069D01*
X94727Y508600D02*
X130887Y472440D01*
X94727Y508600D02*
Y539003D01*
X130887Y472440D02*
X294640D01*
X345160Y429850D02*
X345414Y430104D01*
Y436854D01*
X345440Y436880D01*
X340160Y429850D02*
Y439967D01*
X58420Y575310D02*
X94727Y539003D01*
X350520Y463550D02*
X423082Y536112D01*
X340360Y463550D02*
X416986Y540176D01*
X449136D01*
X423082Y536112D02*
X447453D01*
X380353Y384850D02*
X381544Y386042D01*
X382232D01*
X370160Y384850D02*
X380353D01*
X515239Y328930D02*
X599440D01*
X670560Y400050D01*
X453323Y344170D02*
X459486Y350333D01*
Y364279D02*
X462811Y367604D01*
X482069D01*
X496939Y352733D01*
Y347230D02*
Y352733D01*
Y347230D02*
X515239Y328930D01*
X459486Y350333D02*
Y364279D01*
X361350Y351468D02*
X417615D01*
X415932Y355532D02*
X440217Y379817D01*
X361397Y357169D02*
Y372531D01*
X417615Y351468D02*
X423707Y357560D01*
X363034Y355532D02*
X415932D01*
X357333Y355485D02*
X361350Y351468D01*
X310160Y494310D02*
X316230Y500380D01*
X310160Y429850D02*
Y494310D01*
X320160Y429850D02*
X320294Y429984D01*
Y458331D01*
X368554Y506591D01*
X378791Y370518D02*
X425171D01*
X375367Y364596D02*
X375469Y364698D01*
X380514D01*
X425171Y370518D02*
X460296Y405643D01*
X380514Y364698D02*
X381000Y365184D01*
X378377Y370104D02*
X378791Y370518D01*
X370414Y370104D02*
X378377D01*
X370414Y364596D02*
X375367D01*
X370160Y364850D02*
X370414Y364596D01*
X370160Y359850D02*
X394140D01*
X398780Y364490D01*
X370160Y369850D02*
X370414Y370104D01*
X278462Y404596D02*
X284906D01*
X264160Y389890D02*
Y390294D01*
X284906Y404596D02*
X285160Y404850D01*
X264160Y390294D02*
X278462Y404596D01*
X387712Y391376D02*
X393046Y386042D01*
X394462Y395440D02*
X403860Y386042D01*
X380022Y391376D02*
X387712D01*
X278462Y414596D02*
X284906D01*
X285160Y414850D01*
X526810Y538353D02*
X548146Y559689D01*
X435054Y527984D02*
X443539D01*
X445222Y532048D02*
X449952Y527318D01*
X428118Y532048D02*
X445222D01*
X502672Y527318D02*
X512440Y517550D01*
X449952Y527318D02*
X502672D01*
X429260Y519190D02*
Y522190D01*
X435054Y527984D01*
X497663Y523254D02*
X518661Y502256D01*
X418260Y522190D02*
X428118Y532048D01*
X450959Y538353D02*
X526810D01*
X528494Y534289D02*
X541575Y547370D01*
X449276Y534289D02*
X528494D01*
X447453Y536112D02*
X449276Y534289D01*
X443539Y527984D02*
X448269Y523254D01*
X497663D01*
X449136Y540176D02*
X450959Y538353D01*
X541575Y547370D02*
X617220D01*
X485267Y542417D02*
X502539Y559689D01*
X452642Y542417D02*
X485267D01*
X438037Y557022D02*
X452642Y542417D01*
X548146Y559689D02*
X565912D01*
X511810Y567182D02*
X607681D01*
X622667Y552196D01*
X678180Y563739D02*
Y633730D01*
X622667Y552196D02*
X666637D01*
X678180Y563739D01*
X645160Y570230D02*
Y578902D01*
X622667Y568198D02*
X643128D01*
X646648Y580390D02*
X647333D01*
X643128Y568198D02*
X645160Y570230D01*
Y578902D02*
X646648Y580390D01*
X573786Y583184D02*
X607681D01*
X647333Y580390D02*
X665480Y598537D01*
X565912Y575691D02*
X566293D01*
X573786Y583184D01*
X607681D02*
X622667Y568198D01*
X507783Y450850D02*
X627380D01*
X469369Y422104D02*
X471884Y419589D01*
X447596D02*
X454175Y426168D01*
X460296Y405643D02*
Y419589D01*
X471884Y400803D02*
Y419589D01*
X471052Y426168D02*
X477202Y420018D01*
X454175Y426168D02*
X471052D01*
X453390Y382309D02*
X471884Y400803D01*
X462811Y422104D02*
X469369D01*
X460296Y419589D02*
X462811Y422104D01*
X477202Y413648D02*
Y420018D01*
X463691Y445770D02*
X483630Y465709D01*
X508000D01*
X635508Y474218D02*
X656177Y494887D01*
X621651Y474218D02*
X635508D01*
X656177Y494887D02*
Y534198D01*
X623956Y535686D02*
X654689D01*
X656177Y534198D01*
X664097Y458216D02*
X673100Y467219D01*
X619139Y458216D02*
X664097D01*
X604153Y473202D02*
X619139Y458216D01*
X562723Y473202D02*
X604153D01*
X546721Y489204D02*
X562723Y473202D01*
X508000Y481711D02*
X524242D01*
X531735Y489204D01*
X546721D01*
X657860Y539750D02*
X673100Y524510D01*
Y467219D02*
Y524510D01*
X595660Y507390D02*
X623956Y535686D01*
X572140Y539750D02*
X657860D01*
X540440Y508050D02*
X572140Y539750D01*
X584186Y481711D02*
X591679Y489204D01*
X606665D02*
X621651Y474218D01*
X567944Y481711D02*
X584186D01*
X591679Y489204D02*
X606665D01*
X518600Y496570D02*
X600680D01*
X621000Y516890D01*
X495980Y519190D02*
X518600Y496570D01*
X475121Y473202D02*
X544209D01*
X464961Y463042D02*
X475121Y473202D01*
X544209D02*
X551702Y465709D01*
X591160Y507390D02*
X595660D01*
X628269Y481711D02*
X644500Y497942D01*
X627888Y481711D02*
X628269D01*
X644500Y497942D02*
Y507390D01*
X535940Y508050D02*
X540440D01*
X503301Y575691D02*
X511810Y567182D01*
X502920Y575691D02*
X503301D01*
X663992Y633730D02*
X665480Y632242D01*
Y598537D02*
Y632242D01*
X629265Y633730D02*
X663992D01*
X593065Y602030D02*
X597565D01*
X629265Y633730D01*
X632714Y583924D02*
X650160Y601370D01*
X632714Y579120D02*
Y583924D01*
X628904Y575691D02*
X629285D01*
X650160Y601370D02*
X654660D01*
X629285Y575691D02*
X632714Y579120D01*
X572140Y638810D02*
X673100D01*
X678180Y633730D01*
X596780Y592172D02*
X615478Y610870D01*
X535360Y602030D02*
X572140Y638810D01*
X482173Y610630D02*
X500631Y592172D01*
X596780D01*
X615478Y610870D02*
X635660D01*
X530860Y602030D02*
X535360D01*
X538639Y596236D02*
X553933Y611530D01*
X574065D01*
X502314Y596236D02*
X538639D01*
X479126Y619424D02*
X502314Y596236D01*
X508000Y465709D02*
X537972D01*
X627888D02*
X657860D01*
X628904Y559689D02*
X660400D01*
X565912D02*
X597408D01*
X551702Y465709D02*
X567944D01*
X553026Y502256D02*
X567660Y516890D01*
X518661Y502256D02*
X553026D01*
X567944Y465709D02*
X597916D01*
X368554Y530493D02*
X395083Y557022D01*
X368554Y506591D02*
Y530493D01*
X395083Y557022D02*
X438037D01*
X502539Y559689D02*
X502920D01*
X440260Y519190D02*
X495980D01*
X502920Y559689D02*
X534416D01*
X621000Y516890D02*
X625500D01*
X567660D02*
X572160D01*
X512440Y517550D02*
X516940D01*
X418260Y519190D02*
Y522190D01*
X442800Y610630D02*
X482173D01*
X420800Y613630D02*
X430658Y623488D01*
X495402D02*
X507360Y611530D01*
X431800Y613630D02*
X437594Y619424D01*
X431800Y610630D02*
Y613630D01*
X437594Y619424D02*
X479126D01*
X430658Y623488D02*
X495402D01*
X507360Y611530D02*
X511860D01*
X420800Y610630D02*
Y613630D01*
X370414Y395104D02*
X378003D01*
X378339Y395440D02*
X394462D01*
X370160Y394850D02*
X370414Y395104D01*
X378003D02*
X378339Y395440D01*
X378751Y390104D02*
X380022Y391376D01*
X370414Y390104D02*
X378751D01*
X370160Y389850D02*
X370414Y390104D01*
X368060Y560030D02*
Y618530D01*
Y558763D02*
Y560030D01*
X360680Y532892D02*
Y551383D01*
X368060Y558763D01*
X330200Y532892D02*
X360680D01*
X302020Y560030D02*
Y618530D01*
Y535192D02*
Y560030D01*
X299720Y532892D02*
X302020Y535192D01*
X266700Y532892D02*
X299720D01*
X234710Y560030D02*
Y618530D01*
X233680Y532892D02*
X234710Y533922D01*
Y560030D01*
X200660Y532892D02*
X233680D01*
X162320Y560030D02*
Y618530D01*
Y557979D02*
Y560030D01*
X167640Y532892D02*
Y552659D01*
X162320Y557979D02*
X167640Y552659D01*
X137160Y532892D02*
X167640D01*
X330200Y499491D02*
Y516890D01*
X266700Y499491D02*
Y516890D01*
X200660Y499110D02*
Y516890D01*
X137160Y499491D02*
Y516890D01*
X340160Y318970D02*
X340360Y318770D01*
X340741Y319151D01*
X221000Y356890D02*
Y369290D01*
X220980Y356870D02*
X221000Y356890D01*
X434896Y404531D02*
X437411Y402016D01*
X434896Y404531D02*
Y404574D01*
X437411Y402016D02*
X443969D01*
X423707Y357560D02*
X440690D01*
X440217Y379817D02*
X440217D01*
X464502Y404102D01*
X443969Y402016D02*
X447596Y405643D01*
Y419589D01*
X477202Y413648D02*
X478790Y412060D01*
X464502Y404102D02*
Y410472D01*
X466090Y412060D01*
X453390Y357560D02*
Y382309D01*
X357333Y355485D02*
Y374215D01*
X362714Y379596D02*
X369906D01*
X357333Y374215D02*
X362714Y379596D01*
X369906D02*
X370160Y379850D01*
X363462Y374596D02*
X369906D01*
X361397Y372531D02*
X363462Y374596D01*
X369906D02*
X370160Y374850D01*
X361397Y357169D02*
X363034Y355532D01*
X226020Y361913D02*
X228981Y358952D01*
Y346710D02*
Y358952D01*
X226020Y361913D02*
Y369310D01*
X221000Y369290D02*
X221020Y369310D01*
X322841Y421087D02*
X324906Y423152D01*
X295334Y423232D02*
X297479Y421087D01*
X322841D01*
X293650Y419168D02*
X295795Y417023D01*
X324906Y423152D02*
Y429596D01*
X324525Y417023D02*
X329906Y422404D01*
X295795Y417023D02*
X324525D01*
X324906Y429596D02*
X325160Y429850D01*
X226020Y400310D02*
X226250Y400540D01*
X329906Y422404D02*
Y429596D01*
X330160Y429850D01*
X231020Y401374D02*
X231250Y401604D01*
X231020Y400310D02*
Y401374D01*
X196016Y382270D02*
X208020D01*
X198120Y377190D02*
X208020D01*
X187960Y374214D02*
X196016Y382270D01*
X193040Y372110D02*
X198120Y377190D01*
X179904Y339090D02*
X193040Y352226D01*
X149860Y343554D02*
X154324Y339090D01*
X154940Y345658D02*
Y364649D01*
Y345658D02*
X156428Y344170D01*
X148470Y363935D02*
X149860Y362545D01*
X148470Y363935D02*
Y370248D01*
X149860Y343554D02*
Y362545D01*
X154566Y376344D02*
Y383187D01*
X160609Y389230D02*
X163860D01*
X154566Y383187D02*
X160609Y389230D01*
X148470Y370248D02*
X154566Y376344D01*
X163419Y369789D02*
X163860Y370230D01*
X155195Y369789D02*
X163419D01*
X127110Y383730D02*
X132610Y389230D01*
X110338Y383730D02*
X127110D01*
X132610Y389230D02*
X135860D01*
X110338Y378650D02*
X124190D01*
X132610Y370230D01*
X135860D01*
X110108Y383960D02*
X110338Y383730D01*
X99850Y383960D02*
X110108D01*
X98620Y385190D02*
X99850Y383960D01*
X110108Y378420D02*
X110338Y378650D01*
X99850Y378420D02*
X110108D01*
X98620Y377190D02*
X99850Y378420D01*
D17*
X459740Y471551D02*
D03*
Y455549D02*
D03*
X429260Y471551D02*
D03*
Y455549D02*
D03*
X398780Y471551D02*
D03*
Y455549D02*
D03*
X401320Y565531D02*
D03*
Y549529D02*
D03*
X462280Y565912D02*
D03*
Y549910D02*
D03*
X431800Y565531D02*
D03*
Y549529D02*
D03*
X515620Y328930D02*
D03*
Y312928D02*
D03*
X259080Y370840D02*
D03*
Y354838D02*
D03*
X657860Y481711D02*
D03*
Y465709D02*
D03*
X627888Y481711D02*
D03*
Y465709D02*
D03*
X597916Y481711D02*
D03*
Y465709D02*
D03*
X567944Y481711D02*
D03*
Y465709D02*
D03*
X537972Y481711D02*
D03*
Y465709D02*
D03*
X508000Y481711D02*
D03*
Y465709D02*
D03*
X660400Y575691D02*
D03*
Y559689D02*
D03*
X628904Y575691D02*
D03*
Y559689D02*
D03*
X597408Y575691D02*
D03*
Y559689D02*
D03*
X565912Y575691D02*
D03*
Y559689D02*
D03*
X534416D02*
D03*
Y575691D02*
D03*
X502920Y559689D02*
D03*
Y575691D02*
D03*
X266700Y483489D02*
D03*
Y499491D02*
D03*
X330200Y483489D02*
D03*
Y499491D02*
D03*
X200660Y483108D02*
D03*
Y499110D02*
D03*
X137160Y483489D02*
D03*
Y499491D02*
D03*
X330200Y516890D02*
D03*
Y532892D02*
D03*
X360680D02*
D03*
Y516890D02*
D03*
X299720Y532892D02*
D03*
Y516890D02*
D03*
X266700D02*
D03*
Y532892D02*
D03*
X167640D02*
D03*
Y516890D02*
D03*
X200660D02*
D03*
Y532892D02*
D03*
X233680D02*
D03*
Y516890D02*
D03*
X137160D02*
D03*
Y532892D02*
D03*
X312420Y199009D02*
D03*
Y215011D02*
D03*
X345440Y199009D02*
D03*
Y215011D02*
D03*
X312420Y163449D02*
D03*
Y179451D02*
D03*
X345440Y163449D02*
D03*
Y179451D02*
D03*
X124460Y108331D02*
D03*
Y92329D02*
D03*
X152400Y108331D02*
D03*
Y92329D02*
D03*
X213360Y108331D02*
D03*
Y92329D02*
D03*
X182880Y108331D02*
D03*
Y92329D02*
D03*
X411480Y267589D02*
D03*
Y283591D02*
D03*
X218440Y303149D02*
D03*
Y319151D02*
D03*
X248920Y303149D02*
D03*
Y319151D02*
D03*
X279400Y303149D02*
D03*
Y319151D02*
D03*
X309880Y303149D02*
D03*
Y319151D02*
D03*
X411480D02*
D03*
Y303149D02*
D03*
X373380D02*
D03*
Y319151D02*
D03*
X340360Y302768D02*
D03*
Y318770D02*
D03*
X215900Y433451D02*
D03*
Y417449D02*
D03*
X180340Y433451D02*
D03*
Y417449D02*
D03*
D18*
X440260Y489190D02*
D03*
X429260D02*
D03*
X418260D02*
D03*
Y519190D02*
D03*
X429260D02*
D03*
X440260D02*
D03*
X442800Y580630D02*
D03*
X431800D02*
D03*
X420800D02*
D03*
Y610630D02*
D03*
X431800D02*
D03*
X442800D02*
D03*
D19*
X256540Y142750D02*
D03*
Y174750D02*
D03*
X220980Y142750D02*
D03*
Y174750D02*
D03*
X187960Y142750D02*
D03*
Y174750D02*
D03*
D20*
X338060Y560030D02*
D03*
Y618530D02*
D03*
X368060Y560030D02*
D03*
Y618530D02*
D03*
X272020Y560030D02*
D03*
Y618530D02*
D03*
X302020Y560030D02*
D03*
Y618530D02*
D03*
X204710Y560030D02*
D03*
Y618530D02*
D03*
X234710Y560030D02*
D03*
Y618530D02*
D03*
X132320Y560030D02*
D03*
Y618530D02*
D03*
X162320Y560030D02*
D03*
Y618530D02*
D03*
D21*
X450640Y173990D02*
D03*
D22*
X392640Y150990D02*
D03*
Y173990D02*
D03*
Y196990D02*
D03*
D23*
X300160Y344850D02*
D03*
X305160D02*
D03*
X310160D02*
D03*
X315160D02*
D03*
X320160D02*
D03*
X325160D02*
D03*
X330160D02*
D03*
X335160D02*
D03*
X340160D02*
D03*
X345160D02*
D03*
X350160D02*
D03*
X355160D02*
D03*
Y429850D02*
D03*
X350160D02*
D03*
X345160D02*
D03*
X340160D02*
D03*
X335160D02*
D03*
X330160D02*
D03*
X325160D02*
D03*
X320160D02*
D03*
X315160D02*
D03*
X310160D02*
D03*
X305160D02*
D03*
X300160D02*
D03*
D24*
X370160Y359850D02*
D03*
Y364850D02*
D03*
Y369850D02*
D03*
Y374850D02*
D03*
Y379850D02*
D03*
Y384850D02*
D03*
Y389850D02*
D03*
Y394850D02*
D03*
Y399850D02*
D03*
Y404850D02*
D03*
Y409850D02*
D03*
Y414850D02*
D03*
X285160D02*
D03*
Y409850D02*
D03*
Y404850D02*
D03*
Y399850D02*
D03*
Y394850D02*
D03*
Y389850D02*
D03*
Y384850D02*
D03*
Y379850D02*
D03*
Y374850D02*
D03*
Y369850D02*
D03*
Y364850D02*
D03*
Y359850D02*
D03*
D25*
X482981Y311150D02*
D03*
X466979D02*
D03*
X482981Y330200D02*
D03*
X466979D02*
D03*
X269240Y212090D02*
D03*
X253238D02*
D03*
X243459Y260350D02*
D03*
X259461D02*
D03*
X185039D02*
D03*
X201041D02*
D03*
X185039Y285750D02*
D03*
X201041D02*
D03*
X185039Y311150D02*
D03*
X201041D02*
D03*
X228981Y346710D02*
D03*
X212979D02*
D03*
D26*
X530860Y602030D02*
D03*
Y621030D02*
D03*
X511860Y611530D02*
D03*
X516940Y517550D02*
D03*
X535940Y527050D02*
D03*
Y508050D02*
D03*
X625500Y516890D02*
D03*
X644500Y526390D02*
D03*
Y507390D02*
D03*
X572160Y516890D02*
D03*
X591160Y526390D02*
D03*
Y507390D02*
D03*
X635660Y610870D02*
D03*
X654660Y620370D02*
D03*
Y601370D02*
D03*
X574065Y611530D02*
D03*
X593065Y621030D02*
D03*
Y602030D02*
D03*
X476860Y260350D02*
D03*
X457860Y250850D02*
D03*
Y269850D02*
D03*
D27*
X440690Y357560D02*
D03*
X453390D02*
D03*
X466090D02*
D03*
X478790D02*
D03*
X440690Y412060D02*
D03*
X453390D02*
D03*
X466090D02*
D03*
X478790D02*
D03*
D28*
X135860Y389230D02*
D03*
Y379730D02*
D03*
Y370230D02*
D03*
X163860D02*
D03*
Y389230D02*
D03*
Y379732D02*
D03*
D29*
X98620Y377190D02*
D03*
Y385190D02*
D03*
Y369190D02*
D03*
Y393190D02*
D03*
Y361190D02*
D03*
D30*
X43620Y332690D02*
D03*
Y421690D02*
D03*
X98620D02*
D03*
Y332690D02*
D03*
D31*
X208020Y392310D02*
D03*
Y387310D02*
D03*
Y382310D02*
D03*
Y377310D02*
D03*
X239020D02*
D03*
Y382310D02*
D03*
Y387310D02*
D03*
Y392310D02*
D03*
D32*
X231020Y369310D02*
D03*
X226020D02*
D03*
X221020D02*
D03*
X216020D02*
D03*
Y400310D02*
D03*
X221020D02*
D03*
X226020D02*
D03*
X231020D02*
D03*
D33*
X211020Y397310D02*
D03*
X236020Y372310D02*
D03*
X211020D02*
D03*
D34*
X236020Y397310D02*
D03*
D35*
X223520Y384810D02*
D03*
D66*
X429260Y471551D02*
Y489190D01*
X459740Y471551D02*
Y483870D01*
X398780Y471551D02*
X399161D01*
X400050Y472440D01*
Y482600D01*
X406640Y489190D01*
X454660Y488950D02*
X459740Y483870D01*
X440500Y488950D02*
X454660D01*
X440260Y489190D02*
X440500Y488950D01*
X406640Y489190D02*
X418260D01*
X462280Y562991D02*
Y565912D01*
X401320Y565531D02*
Y576166D01*
X462280Y565912D02*
Y575926D01*
X457816Y580390D02*
X462280Y575926D01*
X401320Y576166D02*
X405784Y580630D01*
X442800D02*
X443040Y580390D01*
X457816D01*
X405784Y580630D02*
X420800D01*
X431800Y565531D02*
Y580630D01*
X457860Y250850D02*
X599230D01*
X641350Y292970D01*
X608838Y312928D02*
X670560Y374650D01*
X515620Y312928D02*
X608838D01*
X483335Y281024D02*
X515239Y312928D01*
X515620D01*
X476860Y281024D02*
X483335D01*
X466979Y290905D02*
X476860Y281024D01*
X466979Y290905D02*
Y311150D01*
X476860Y260350D02*
Y281024D01*
X466578Y329712D02*
X467066Y330200D01*
X466090D02*
Y357560D01*
Y330200D02*
X466979Y329311D01*
Y311150D02*
Y329311D01*
X482981Y330200D02*
Y350739D01*
X478790Y354930D02*
X482981Y350739D01*
X478790Y354930D02*
Y357560D01*
X259461Y260350D02*
X347903D01*
X267970Y259080D02*
X312039Y215011D01*
X260350Y259080D02*
X267970D01*
X259461Y259969D02*
X260350Y259080D01*
X259461Y259969D02*
Y260350D01*
X312039Y215011D02*
X312420D01*
X385640Y173990D02*
X392640D01*
X384450Y175180D02*
X385640Y173990D01*
X384450Y175180D02*
Y177321D01*
X352729Y209042D02*
X384450Y177321D01*
X351790Y209042D02*
X352729D01*
X345821Y215011D02*
X351790Y209042D01*
X345440Y215011D02*
X345821D01*
X312420D02*
X345440D01*
X392500Y151130D02*
X392640Y150990D01*
X375920Y151130D02*
X392500D01*
X345821Y179451D02*
X351790Y173482D01*
X353568D01*
X345440Y179451D02*
X345821D01*
X353568Y173482D02*
X375920Y151130D01*
X312420Y179451D02*
X345440D01*
X269240Y211709D02*
X300609Y180340D01*
X311531D01*
X312420Y179451D01*
X269240Y211709D02*
Y212090D01*
X253238D02*
X254127Y211201D01*
X267874Y154084D02*
Y182959D01*
X254127Y196706D02*
Y211201D01*
X256540Y142750D02*
X267874Y154084D01*
X254127Y196706D02*
X267874Y182959D01*
X181354Y249936D02*
X256540Y174750D01*
X60786Y343410D02*
X154260Y249936D01*
X60786Y343410D02*
Y368167D01*
X85643Y393024D01*
X98454D01*
X98620Y393190D01*
X154260Y249936D02*
X181354D01*
X220980Y142750D02*
X256540D01*
X187960D02*
X220980D01*
X169722Y156512D02*
X187960Y174750D01*
X169722Y92329D02*
Y156512D01*
X148900Y194310D02*
X201420D01*
X220980Y174750D01*
X163860Y379732D02*
X172722D01*
X180340Y387350D02*
Y417449D01*
X172722Y379732D02*
X180340Y387350D01*
X105000Y393190D02*
X129259Y417449D01*
X180340D01*
X98620Y393190D02*
X105000D01*
X124460Y92329D02*
X152400D01*
X111760Y103709D02*
X120064Y95404D01*
X111760Y103709D02*
Y120650D01*
X119380Y128270D01*
X148900Y146963D02*
Y194310D01*
X130207Y128270D02*
X148900Y146963D01*
X119380Y128270D02*
X130207D01*
X182880Y92329D02*
X213360D01*
X159689Y82296D02*
X169722Y92329D01*
X117171Y82296D02*
X159689D01*
X99137Y100330D02*
X117171Y82296D01*
X53340Y100330D02*
X99137D01*
X169722Y92329D02*
X182880D01*
X279400Y319151D02*
X309499D01*
X309519Y319131D01*
X309860D01*
X218440Y319151D02*
X248920D01*
X279400D01*
X411480Y283591D02*
Y303149D01*
X201041Y334391D02*
X212979Y346329D01*
Y346710D01*
X201041Y311150D02*
Y334391D01*
Y285750D02*
Y311150D01*
Y260350D02*
Y285750D01*
X390702Y303149D02*
X411480D01*
X347903Y260350D02*
X390702Y303149D01*
X340741Y319151D02*
X373380D01*
X411480D01*
Y303149D02*
X439039D01*
X466090Y330200D01*
X201041Y260350D02*
X243459D01*
D67*
X307818Y359850D02*
X334921Y386953D01*
Y387700D02*
X362023Y414803D01*
X370113D01*
X334921Y386953D02*
Y387700D01*
X370113Y414803D02*
X370160Y414850D01*
X300207Y352239D02*
X307818Y359850D01*
X285160D02*
X307818D01*
X300207Y344897D02*
Y352239D01*
X300160Y344850D02*
X300207Y344897D01*
X300160Y328490D02*
Y344850D01*
Y328490D02*
X309499Y319151D01*
X340160Y318970D02*
Y344850D01*
X213360Y347091D02*
Y359333D01*
X216020Y361993D02*
Y369310D01*
X213360Y359333D02*
X216020Y361993D01*
X212979Y346710D02*
X213360Y347091D01*
X211250Y372080D02*
X215790D01*
X216020Y371850D01*
X211020Y372310D02*
X211250Y372080D01*
X216020Y369310D02*
Y371850D01*
D68*
X52070Y50330D02*
D03*
X641350Y292970D02*
D03*
D69*
X53340Y100330D02*
D03*
X640080Y242970D02*
D03*
D70*
X58420Y600710D02*
D03*
D71*
Y575310D02*
D03*
Y549910D02*
D03*
Y524510D02*
D03*
Y499110D02*
D03*
D72*
X148900Y194310D02*
D03*
D73*
X88900D02*
D03*
D74*
X118900Y147310D02*
D03*
D75*
X73120Y355190D02*
D03*
Y399190D02*
D03*
D76*
X670560Y349250D02*
D03*
D77*
Y374650D02*
D03*
Y400050D02*
D03*
D78*
X124914Y437219D02*
D03*
X151130Y441960D02*
D03*
X16168Y461554D02*
D03*
X38221Y468398D02*
D03*
X101600Y579120D02*
D03*
X19970Y652431D02*
D03*
X67310Y652780D02*
D03*
X100330Y655320D02*
D03*
X176530Y651510D02*
D03*
X241300Y647700D02*
D03*
X302104Y647868D02*
D03*
X374650Y651510D02*
D03*
X647700D02*
D03*
X604010Y651670D02*
D03*
X551180Y651510D02*
D03*
X510540Y641350D02*
D03*
X464820Y642620D02*
D03*
X427990Y640080D02*
D03*
X687070Y394970D02*
D03*
X688340Y372110D02*
D03*
X689610Y345440D02*
D03*
X668020Y298450D02*
D03*
X666750Y279400D02*
D03*
X668020Y255270D02*
D03*
Y233680D02*
D03*
X565226Y222006D02*
D03*
X598686Y192348D02*
D03*
X638810Y142240D02*
D03*
X617698Y85882D02*
D03*
X597165Y44817D02*
D03*
X499110Y38100D02*
D03*
X414020Y40640D02*
D03*
X347732Y38733D02*
D03*
X285750Y35560D02*
D03*
X215900Y31750D02*
D03*
X129540Y33020D02*
D03*
X13126Y290447D02*
D03*
X12700Y331470D02*
D03*
Y367030D02*
D03*
X15240Y394970D02*
D03*
X15407Y420488D02*
D03*
X13126Y632658D02*
D03*
X14647Y604521D02*
D03*
X12700Y575310D02*
D03*
Y537210D02*
D03*
Y501650D02*
D03*
X102870Y459740D02*
D03*
X302260Y447040D02*
D03*
X259080Y435610D02*
D03*
X394970Y495300D02*
D03*
X383540Y481330D02*
D03*
X504190Y495300D02*
D03*
X473950Y498730D02*
D03*
X566420Y279400D02*
D03*
X523240Y274320D02*
D03*
X406947Y241881D02*
D03*
X441960Y238760D02*
D03*
X491490Y209550D02*
D03*
X525780Y116840D02*
D03*
X381367Y99010D02*
D03*
X194806Y207759D02*
D03*
X168556Y215258D02*
D03*
X262890Y236220D02*
D03*
X225743Y241977D02*
D03*
X382270Y255270D02*
D03*
X354330Y245110D02*
D03*
X320040Y241300D02*
D03*
X129540Y317500D02*
D03*
X144780Y297180D02*
D03*
X326390Y276860D02*
D03*
X297906Y277614D02*
D03*
X262890Y278130D02*
D03*
X240030Y276860D02*
D03*
X219710Y278130D02*
D03*
X551180Y350520D02*
D03*
X607060Y373380D02*
D03*
X562610Y426720D02*
D03*
X521970Y414020D02*
D03*
X535940Y372110D02*
D03*
X570230Y382270D02*
D03*
X600710Y403860D02*
D03*
X635000Y425450D02*
D03*
X680720Y452120D02*
D03*
X678180Y539750D02*
D03*
X383088Y565013D02*
D03*
X388620Y607060D02*
D03*
X318770Y551180D02*
D03*
X322350Y599826D02*
D03*
X237490Y494030D02*
D03*
X247650Y542290D02*
D03*
X250190Y593090D02*
D03*
X184150Y601980D02*
D03*
X97790Y608330D02*
D03*
X110490Y538480D02*
D03*
X71120Y455930D02*
D03*
X43180Y372110D02*
D03*
X60960Y280670D02*
D03*
X76200Y262890D02*
D03*
X264160Y104140D02*
D03*
X325120Y100330D02*
D03*
X453390Y101600D02*
D03*
X549910Y167640D02*
D03*
X223520Y384810D02*
D03*
X591160Y526390D02*
D03*
X535940Y527050D02*
D03*
X360213Y402492D02*
D03*
X657860Y481711D02*
D03*
X597916D02*
D03*
X537972D02*
D03*
X654660Y620370D02*
D03*
X593065Y621030D02*
D03*
X534416Y575691D02*
D03*
X660400D02*
D03*
X597408D02*
D03*
X326136Y334817D02*
D03*
X398780Y344170D02*
D03*
X408178Y400221D02*
D03*
X378460Y445770D02*
D03*
X388874Y440436D02*
D03*
X281940Y458470D02*
D03*
X264160Y400050D02*
D03*
X351790Y440690D02*
D03*
X345440Y443230D02*
D03*
X287020Y466090D02*
D03*
X294640Y472440D02*
D03*
X350520Y463550D02*
D03*
X382232Y386042D02*
D03*
X515620Y328930D02*
D03*
X316230Y500380D02*
D03*
X381000Y365184D02*
D03*
X457860Y269850D02*
D03*
X398780Y364490D02*
D03*
X264160Y389890D02*
D03*
X393046Y386042D02*
D03*
X403860D02*
D03*
X416560Y412750D02*
D03*
X340360Y463550D02*
D03*
X617220Y547370D02*
D03*
X628731Y559019D02*
D03*
X627380Y450850D02*
D03*
X627888Y465709D02*
D03*
X462896Y549294D02*
D03*
X398780Y455549D02*
D03*
X429260D02*
D03*
X459740D02*
D03*
X431800Y549529D02*
D03*
X401320D02*
D03*
X330339Y499306D02*
D03*
X266838D02*
D03*
X200798Y498925D02*
D03*
X167640Y516890D02*
D03*
X137160D02*
D03*
X233680D02*
D03*
X299720D02*
D03*
X360680D02*
D03*
X309860Y319131D02*
D03*
X411460Y267569D02*
D03*
X220980Y356870D02*
D03*
X215900Y417449D02*
D03*
X467066Y330200D02*
D03*
X482981Y311150D02*
D03*
X453390Y412060D02*
D03*
D79*
X153882Y400094D02*
D03*
X139519Y358485D02*
D03*
X139559Y343245D02*
D03*
X148307Y330765D02*
D03*
X163413Y328749D02*
D03*
X178653D02*
D03*
X203381Y362790D02*
D03*
X167640Y401320D02*
D03*
M02*
