G04*
G04 #@! TF.GenerationSoftware,Altium Limited,Altium Designer,23.3.1 (30)*
G04*
G04 Layer_Physical_Order=3*
G04 Layer_Color=16711680*
%FSLAX44Y44*%
%MOMM*%
G71*
G04*
G04 #@! TF.SameCoordinates,313F503E-43F4-47E4-83EF-6EFAA7C5E57D*
G04*
G04*
G04 #@! TF.FilePolarity,Positive*
G04*
G01*
G75*
%ADD16C,0.2540*%
%ADD66C,0.7620*%
%ADD68C,2.4000*%
%ADD69R,2.4000X2.4000*%
%ADD70R,1.3700X1.3700*%
%ADD71C,1.3700*%
G04:AMPARAMS|DCode=72|XSize=1.5mm|YSize=4mm|CornerRadius=0.375mm|HoleSize=0mm|Usage=FLASHONLY|Rotation=0.000|XOffset=0mm|YOffset=0mm|HoleType=Round|Shape=RoundedRectangle|*
%AMROUNDEDRECTD72*
21,1,1.5000,3.2500,0,0,0.0*
21,1,0.7500,4.0000,0,0,0.0*
1,1,0.7500,0.3750,-1.6250*
1,1,0.7500,-0.3750,-1.6250*
1,1,0.7500,-0.3750,1.6250*
1,1,0.7500,0.3750,1.6250*
%
%ADD72ROUNDEDRECTD72*%
G04:AMPARAMS|DCode=73|XSize=1.5mm|YSize=3.5mm|CornerRadius=0.375mm|HoleSize=0mm|Usage=FLASHONLY|Rotation=180.000|XOffset=0mm|YOffset=0mm|HoleType=Round|Shape=RoundedRectangle|*
%AMROUNDEDRECTD73*
21,1,1.5000,2.7500,0,0,180.0*
21,1,0.7500,3.5000,0,0,180.0*
1,1,0.7500,-0.3750,1.3750*
1,1,0.7500,0.3750,1.3750*
1,1,0.7500,0.3750,-1.3750*
1,1,0.7500,-0.3750,-1.3750*
%
%ADD73ROUNDEDRECTD73*%
G04:AMPARAMS|DCode=74|XSize=1.5mm|YSize=3.5mm|CornerRadius=0.375mm|HoleSize=0mm|Usage=FLASHONLY|Rotation=270.000|XOffset=0mm|YOffset=0mm|HoleType=Round|Shape=RoundedRectangle|*
%AMROUNDEDRECTD74*
21,1,1.5000,2.7500,0,0,270.0*
21,1,0.7500,3.5000,0,0,270.0*
1,1,0.7500,-1.3750,-0.3750*
1,1,0.7500,-1.3750,0.3750*
1,1,0.7500,1.3750,0.3750*
1,1,0.7500,1.3750,-0.3750*
%
%ADD74ROUNDEDRECTD74*%
%ADD75C,1.4000*%
%ADD76R,1.6500X1.6500*%
%ADD77C,1.6500*%
%ADD78C,0.5080*%
%ADD79C,1.2700*%
G36*
X700731Y2849D02*
X2849D01*
Y665171D01*
X700731D01*
X700731Y2849D01*
D02*
G37*
%LPC*%
G36*
X101600Y660293D02*
Y656590D01*
X105302D01*
X104637Y658198D01*
X103208Y659627D01*
X101600Y660293D01*
D02*
G37*
G36*
X99060D02*
X97452Y659627D01*
X96023Y658198D01*
X95358Y656590D01*
X99060D01*
Y660293D01*
D02*
G37*
G36*
X68580Y657753D02*
Y654050D01*
X72283D01*
X71617Y655658D01*
X70188Y657087D01*
X68580Y657753D01*
D02*
G37*
G36*
X66040D02*
X64432Y657087D01*
X63003Y655658D01*
X62337Y654050D01*
X66040D01*
Y657753D01*
D02*
G37*
G36*
X21240Y657403D02*
Y653701D01*
X24943D01*
X24277Y655308D01*
X22848Y656737D01*
X21240Y657403D01*
D02*
G37*
G36*
X18700D02*
X17092Y656737D01*
X15663Y655308D01*
X14998Y653701D01*
X18700D01*
Y657403D01*
D02*
G37*
G36*
X605280Y656643D02*
Y652940D01*
X608982D01*
X608316Y654548D01*
X606887Y655977D01*
X605280Y656643D01*
D02*
G37*
G36*
X602740D02*
X601132Y655977D01*
X599703Y654548D01*
X599037Y652940D01*
X602740D01*
Y656643D01*
D02*
G37*
G36*
X648970Y656482D02*
Y652780D01*
X652673D01*
X652007Y654388D01*
X650578Y655817D01*
X648970Y656482D01*
D02*
G37*
G36*
X646430D02*
X644822Y655817D01*
X643393Y654388D01*
X642728Y652780D01*
X646430D01*
Y656482D01*
D02*
G37*
G36*
X552450D02*
Y652780D01*
X556152D01*
X555487Y654388D01*
X554058Y655817D01*
X552450Y656482D01*
D02*
G37*
G36*
X549910D02*
X548302Y655817D01*
X546873Y654388D01*
X546208Y652780D01*
X549910D01*
Y656482D01*
D02*
G37*
G36*
X375920D02*
Y652780D01*
X379622D01*
X378957Y654388D01*
X377528Y655817D01*
X375920Y656482D01*
D02*
G37*
G36*
X373380D02*
X371772Y655817D01*
X370343Y654388D01*
X369678Y652780D01*
X373380D01*
Y656482D01*
D02*
G37*
G36*
X177800D02*
Y652780D01*
X181502D01*
X180837Y654388D01*
X179408Y655817D01*
X177800Y656482D01*
D02*
G37*
G36*
X175260D02*
X173652Y655817D01*
X172223Y654388D01*
X171558Y652780D01*
X175260D01*
Y656482D01*
D02*
G37*
G36*
X105302Y654050D02*
X101600D01*
Y650348D01*
X103208Y651013D01*
X104637Y652442D01*
X105302Y654050D01*
D02*
G37*
G36*
X99060D02*
X95358D01*
X96023Y652442D01*
X97452Y651013D01*
X99060Y650348D01*
Y654050D01*
D02*
G37*
G36*
X303374Y652841D02*
Y649138D01*
X307076D01*
X306411Y650746D01*
X304981Y652175D01*
X303374Y652841D01*
D02*
G37*
G36*
X300834D02*
X299226Y652175D01*
X297797Y650746D01*
X297131Y649138D01*
X300834D01*
Y652841D01*
D02*
G37*
G36*
X242570Y652673D02*
Y648970D01*
X246273D01*
X245607Y650578D01*
X244178Y652007D01*
X242570Y652673D01*
D02*
G37*
G36*
X240030D02*
X238422Y652007D01*
X236993Y650578D01*
X236327Y648970D01*
X240030D01*
Y652673D01*
D02*
G37*
G36*
X72283Y651510D02*
X68580D01*
Y647807D01*
X70188Y648473D01*
X71617Y649902D01*
X72283Y651510D01*
D02*
G37*
G36*
X66040D02*
X62337D01*
X63003Y649902D01*
X64432Y648473D01*
X66040Y647807D01*
Y651510D01*
D02*
G37*
G36*
X24943Y651161D02*
X21240D01*
Y647458D01*
X22848Y648124D01*
X24277Y649553D01*
X24943Y651161D01*
D02*
G37*
G36*
X18700D02*
X14998D01*
X15663Y649553D01*
X17092Y648124D01*
X18700Y647458D01*
Y651161D01*
D02*
G37*
G36*
X608982Y650400D02*
X605280D01*
Y646698D01*
X606887Y647364D01*
X608316Y648793D01*
X608982Y650400D01*
D02*
G37*
G36*
X602740D02*
X599037D01*
X599703Y648793D01*
X601132Y647364D01*
X602740Y646698D01*
Y650400D01*
D02*
G37*
G36*
X652673Y650240D02*
X648970D01*
Y646537D01*
X650578Y647203D01*
X652007Y648632D01*
X652673Y650240D01*
D02*
G37*
G36*
X646430D02*
X642728D01*
X643393Y648632D01*
X644822Y647203D01*
X646430Y646537D01*
Y650240D01*
D02*
G37*
G36*
X556152D02*
X552450D01*
Y646537D01*
X554058Y647203D01*
X555487Y648632D01*
X556152Y650240D01*
D02*
G37*
G36*
X549910D02*
X546208D01*
X546873Y648632D01*
X548302Y647203D01*
X549910Y646537D01*
Y650240D01*
D02*
G37*
G36*
X379622D02*
X375920D01*
Y646537D01*
X377528Y647203D01*
X378957Y648632D01*
X379622Y650240D01*
D02*
G37*
G36*
X373380D02*
X369678D01*
X370343Y648632D01*
X371772Y647203D01*
X373380Y646537D01*
Y650240D01*
D02*
G37*
G36*
X181502D02*
X177800D01*
Y646537D01*
X179408Y647203D01*
X180837Y648632D01*
X181502Y650240D01*
D02*
G37*
G36*
X175260D02*
X171558D01*
X172223Y648632D01*
X173652Y647203D01*
X175260Y646537D01*
Y650240D01*
D02*
G37*
G36*
X466090Y647592D02*
Y643890D01*
X469793D01*
X469127Y645498D01*
X467698Y646927D01*
X466090Y647592D01*
D02*
G37*
G36*
X463550D02*
X461942Y646927D01*
X460513Y645498D01*
X459847Y643890D01*
X463550D01*
Y647592D01*
D02*
G37*
G36*
X307076Y646598D02*
X303374D01*
Y642896D01*
X304981Y643561D01*
X306411Y644990D01*
X307076Y646598D01*
D02*
G37*
G36*
X300834D02*
X297131D01*
X297797Y644990D01*
X299226Y643561D01*
X300834Y642896D01*
Y646598D01*
D02*
G37*
G36*
X246273Y646430D02*
X242570D01*
Y642728D01*
X244178Y643393D01*
X245607Y644822D01*
X246273Y646430D01*
D02*
G37*
G36*
X240030D02*
X236327D01*
X236993Y644822D01*
X238422Y643393D01*
X240030Y642728D01*
Y646430D01*
D02*
G37*
G36*
X511810Y646322D02*
Y642620D01*
X515513D01*
X514847Y644228D01*
X513418Y645657D01*
X511810Y646322D01*
D02*
G37*
G36*
X509270D02*
X507662Y645657D01*
X506233Y644228D01*
X505568Y642620D01*
X509270D01*
Y646322D01*
D02*
G37*
G36*
X429260Y645052D02*
Y641350D01*
X432962D01*
X432297Y642958D01*
X430868Y644387D01*
X429260Y645052D01*
D02*
G37*
G36*
X426720D02*
X425112Y644387D01*
X423683Y642958D01*
X423018Y641350D01*
X426720D01*
Y645052D01*
D02*
G37*
G36*
X469793Y641350D02*
X466090D01*
Y637648D01*
X467698Y638313D01*
X469127Y639742D01*
X469793Y641350D01*
D02*
G37*
G36*
X463550D02*
X459847D01*
X460513Y639742D01*
X461942Y638313D01*
X463550Y637648D01*
Y641350D01*
D02*
G37*
G36*
X515513Y640080D02*
X511810D01*
Y636377D01*
X513418Y637043D01*
X514847Y638472D01*
X515513Y640080D01*
D02*
G37*
G36*
X509270D02*
X505568D01*
X506233Y638472D01*
X507662Y637043D01*
X509270Y636377D01*
Y640080D01*
D02*
G37*
G36*
X432962Y638810D02*
X429260D01*
Y635107D01*
X430868Y635773D01*
X432297Y637202D01*
X432962Y638810D01*
D02*
G37*
G36*
X426720D02*
X423018D01*
X423683Y637202D01*
X425112Y635773D01*
X426720Y635107D01*
Y638810D01*
D02*
G37*
G36*
X14396Y637631D02*
Y633928D01*
X18098D01*
X17433Y635536D01*
X16004Y636965D01*
X14396Y637631D01*
D02*
G37*
G36*
X11856D02*
X10248Y636965D01*
X8819Y635536D01*
X8153Y633928D01*
X11856D01*
Y637631D01*
D02*
G37*
G36*
X18098Y631388D02*
X14396D01*
Y627686D01*
X16004Y628351D01*
X17433Y629780D01*
X18098Y631388D01*
D02*
G37*
G36*
X11856D02*
X8153D01*
X8819Y629780D01*
X10248Y628351D01*
X11856Y627686D01*
Y631388D01*
D02*
G37*
G36*
X594335Y626003D02*
Y622300D01*
X598037D01*
X597372Y623908D01*
X595943Y625337D01*
X594335Y626003D01*
D02*
G37*
G36*
X591795D02*
X590187Y625337D01*
X588758Y623908D01*
X588092Y622300D01*
X591795D01*
Y626003D01*
D02*
G37*
G36*
X655930Y625342D02*
Y621640D01*
X659632D01*
X658967Y623248D01*
X657538Y624677D01*
X655930Y625342D01*
D02*
G37*
G36*
X653390D02*
X651782Y624677D01*
X650353Y623248D01*
X649688Y621640D01*
X653390D01*
Y625342D01*
D02*
G37*
G36*
X598037Y619760D02*
X594335D01*
Y616058D01*
X595943Y616723D01*
X597372Y618152D01*
X598037Y619760D01*
D02*
G37*
G36*
X591795D02*
X588092D01*
X588758Y618152D01*
X590187Y616723D01*
X591795Y616058D01*
Y619760D01*
D02*
G37*
G36*
X659632Y619100D02*
X655930D01*
Y615397D01*
X657538Y616063D01*
X658967Y617492D01*
X659632Y619100D01*
D02*
G37*
G36*
X653390D02*
X649688D01*
X650353Y617492D01*
X651782Y616063D01*
X653390Y615397D01*
Y619100D01*
D02*
G37*
G36*
X99060Y613302D02*
Y609600D01*
X102762D01*
X102097Y611208D01*
X100668Y612637D01*
X99060Y613302D01*
D02*
G37*
G36*
X96520D02*
X94912Y612637D01*
X93483Y611208D01*
X92817Y609600D01*
X96520D01*
Y613302D01*
D02*
G37*
G36*
X389890Y612033D02*
Y608330D01*
X393592D01*
X392927Y609938D01*
X391498Y611367D01*
X389890Y612033D01*
D02*
G37*
G36*
X387350D02*
X385742Y611367D01*
X384313Y609938D01*
X383647Y608330D01*
X387350D01*
Y612033D01*
D02*
G37*
G36*
X15917Y609493D02*
Y605791D01*
X19619D01*
X18953Y607398D01*
X17524Y608827D01*
X15917Y609493D01*
D02*
G37*
G36*
X13377D02*
X11769Y608827D01*
X10340Y607398D01*
X9674Y605791D01*
X13377D01*
Y609493D01*
D02*
G37*
G36*
X102762Y607060D02*
X99060D01*
Y603358D01*
X100668Y604023D01*
X102097Y605452D01*
X102762Y607060D01*
D02*
G37*
G36*
X96520D02*
X92817D01*
X93483Y605452D01*
X94912Y604023D01*
X96520Y603358D01*
Y607060D01*
D02*
G37*
G36*
X185420Y606953D02*
Y603250D01*
X189123D01*
X188457Y604858D01*
X187028Y606287D01*
X185420Y606953D01*
D02*
G37*
G36*
X182880D02*
X181272Y606287D01*
X179843Y604858D01*
X179177Y603250D01*
X182880D01*
Y606953D01*
D02*
G37*
G36*
X393592Y605790D02*
X389890D01*
Y602088D01*
X391498Y602753D01*
X392927Y604182D01*
X393592Y605790D01*
D02*
G37*
G36*
X387350D02*
X383647D01*
X384313Y604182D01*
X385742Y602753D01*
X387350Y602088D01*
Y605790D01*
D02*
G37*
G36*
X323619Y604799D02*
Y601096D01*
X327322D01*
X326656Y602704D01*
X325227Y604133D01*
X323619Y604799D01*
D02*
G37*
G36*
X321079D02*
X319472Y604133D01*
X318043Y602704D01*
X317377Y601096D01*
X321079D01*
Y604799D01*
D02*
G37*
G36*
X19619Y603251D02*
X15917D01*
Y599548D01*
X17524Y600214D01*
X18953Y601643D01*
X19619Y603251D01*
D02*
G37*
G36*
X13377D02*
X9674D01*
X10340Y601643D01*
X11769Y600214D01*
X13377Y599548D01*
Y603251D01*
D02*
G37*
G36*
X189123Y600710D02*
X185420D01*
Y597007D01*
X187028Y597673D01*
X188457Y599102D01*
X189123Y600710D01*
D02*
G37*
G36*
X182880D02*
X179177D01*
X179843Y599102D01*
X181272Y597673D01*
X182880Y597007D01*
Y600710D01*
D02*
G37*
G36*
X327322Y598556D02*
X323619D01*
Y594854D01*
X325227Y595520D01*
X326656Y596949D01*
X327322Y598556D01*
D02*
G37*
G36*
X321079D02*
X317377D01*
X318043Y596949D01*
X319472Y595520D01*
X321079Y594854D01*
Y598556D01*
D02*
G37*
G36*
X251460Y598063D02*
Y594360D01*
X255163D01*
X254497Y595968D01*
X253068Y597397D01*
X251460Y598063D01*
D02*
G37*
G36*
X248920D02*
X247312Y597397D01*
X245883Y595968D01*
X245217Y594360D01*
X248920D01*
Y598063D01*
D02*
G37*
G36*
X66794Y609084D02*
X50046D01*
Y592336D01*
X66794D01*
Y609084D01*
D02*
G37*
G36*
X255163Y591820D02*
X251460D01*
Y588117D01*
X253068Y588783D01*
X254497Y590212D01*
X255163Y591820D01*
D02*
G37*
G36*
X248920D02*
X245217D01*
X245883Y590212D01*
X247312Y588783D01*
X248920Y588117D01*
Y591820D01*
D02*
G37*
G36*
X102870Y584092D02*
Y580390D01*
X106573D01*
X105907Y581998D01*
X104478Y583427D01*
X102870Y584092D01*
D02*
G37*
G36*
X100330D02*
X98722Y583427D01*
X97293Y581998D01*
X96628Y580390D01*
X100330D01*
Y584092D01*
D02*
G37*
G36*
X661670Y580663D02*
Y576961D01*
X665372D01*
X664707Y578569D01*
X663278Y579998D01*
X661670Y580663D01*
D02*
G37*
G36*
X659130D02*
X657522Y579998D01*
X656093Y578569D01*
X655427Y576961D01*
X659130D01*
Y580663D01*
D02*
G37*
G36*
X598678D02*
Y576961D01*
X602380D01*
X601715Y578569D01*
X600286Y579998D01*
X598678Y580663D01*
D02*
G37*
G36*
X596138D02*
X594530Y579998D01*
X593101Y578569D01*
X592435Y576961D01*
X596138D01*
Y580663D01*
D02*
G37*
G36*
X535686D02*
Y576961D01*
X539389D01*
X538723Y578569D01*
X537294Y579998D01*
X535686Y580663D01*
D02*
G37*
G36*
X533146D02*
X531538Y579998D01*
X530109Y578569D01*
X529444Y576961D01*
X533146D01*
Y580663D01*
D02*
G37*
G36*
X13970Y580283D02*
Y576580D01*
X17672D01*
X17007Y578188D01*
X15578Y579617D01*
X13970Y580283D01*
D02*
G37*
G36*
X11430D02*
X9822Y579617D01*
X8393Y578188D01*
X7728Y576580D01*
X11430D01*
Y580283D01*
D02*
G37*
G36*
X106573Y577850D02*
X102870D01*
Y574147D01*
X104478Y574813D01*
X105907Y576242D01*
X106573Y577850D01*
D02*
G37*
G36*
X100330D02*
X96628D01*
X97293Y576242D01*
X98722Y574813D01*
X100330Y574147D01*
Y577850D01*
D02*
G37*
G36*
X665372Y574421D02*
X661670D01*
Y570718D01*
X663278Y571384D01*
X664707Y572813D01*
X665372Y574421D01*
D02*
G37*
G36*
X659130D02*
X655427D01*
X656093Y572813D01*
X657522Y571384D01*
X659130Y570718D01*
Y574421D01*
D02*
G37*
G36*
X602380D02*
X598678D01*
Y570718D01*
X600286Y571384D01*
X601715Y572813D01*
X602380Y574421D01*
D02*
G37*
G36*
X596138D02*
X592435D01*
X593101Y572813D01*
X594530Y571384D01*
X596138Y570718D01*
Y574421D01*
D02*
G37*
G36*
X539389D02*
X535686D01*
Y570718D01*
X537294Y571384D01*
X538723Y572813D01*
X539389Y574421D01*
D02*
G37*
G36*
X533146D02*
X529444D01*
X530109Y572813D01*
X531538Y571384D01*
X533146Y570718D01*
Y574421D01*
D02*
G37*
G36*
X17672Y574040D02*
X13970D01*
Y570337D01*
X15578Y571003D01*
X17007Y572432D01*
X17672Y574040D01*
D02*
G37*
G36*
X11430D02*
X7728D01*
X8393Y572432D01*
X9822Y571003D01*
X11430Y570337D01*
Y574040D01*
D02*
G37*
G36*
X59523Y583684D02*
X57318D01*
X55188Y583113D01*
X53278Y582011D01*
X51719Y580452D01*
X50617Y578542D01*
X50046Y576413D01*
Y574207D01*
X50617Y572078D01*
X51719Y570168D01*
X53278Y568609D01*
X55188Y567507D01*
X57318Y566936D01*
X59523D01*
X61652Y567507D01*
X63562Y568609D01*
X65121Y570168D01*
X66223Y572078D01*
X66794Y574207D01*
Y576413D01*
X66223Y578542D01*
X65121Y580452D01*
X63562Y582011D01*
X61652Y583113D01*
X59523Y583684D01*
D02*
G37*
G36*
X384358Y569985D02*
Y566283D01*
X388061D01*
X387395Y567890D01*
X385966Y569319D01*
X384358Y569985D01*
D02*
G37*
G36*
X381819D02*
X380211Y569319D01*
X378782Y567890D01*
X378116Y566283D01*
X381819D01*
Y569985D01*
D02*
G37*
G36*
X388061Y563743D02*
X384358D01*
Y560040D01*
X385966Y560706D01*
X387395Y562135D01*
X388061Y563743D01*
D02*
G37*
G36*
X381819D02*
X378116D01*
X378782Y562135D01*
X380211Y560706D01*
X381819Y560040D01*
Y563743D01*
D02*
G37*
G36*
X320040Y556152D02*
Y552450D01*
X323742D01*
X323077Y554058D01*
X321648Y555487D01*
X320040Y556152D01*
D02*
G37*
G36*
X317500D02*
X315892Y555487D01*
X314463Y554058D01*
X313797Y552450D01*
X317500D01*
Y556152D01*
D02*
G37*
G36*
X59690Y559291D02*
Y551180D01*
X67801D01*
X67170Y553534D01*
X65934Y555676D01*
X64186Y557424D01*
X62044Y558660D01*
X59690Y559291D01*
D02*
G37*
G36*
X57150D02*
X54796Y558660D01*
X52654Y557424D01*
X50906Y555676D01*
X49670Y553534D01*
X49039Y551180D01*
X57150D01*
Y559291D01*
D02*
G37*
G36*
X323742Y549910D02*
X320040D01*
Y546208D01*
X321648Y546873D01*
X323077Y548302D01*
X323742Y549910D01*
D02*
G37*
G36*
X317500D02*
X313797D01*
X314463Y548302D01*
X315892Y546873D01*
X317500Y546208D01*
Y549910D01*
D02*
G37*
G36*
X248920Y547262D02*
Y543560D01*
X252623D01*
X251957Y545168D01*
X250528Y546597D01*
X248920Y547262D01*
D02*
G37*
G36*
X246380D02*
X244772Y546597D01*
X243343Y545168D01*
X242677Y543560D01*
X246380D01*
Y547262D01*
D02*
G37*
G36*
X629539Y563083D02*
X627922D01*
X626429Y562464D01*
X625285Y561321D01*
X624667Y559827D01*
Y558915D01*
X617186Y551434D01*
X616412D01*
X614918Y550815D01*
X613775Y549672D01*
X613156Y548178D01*
Y546562D01*
X613775Y545068D01*
X614918Y543925D01*
X616412Y543306D01*
X618028D01*
X619522Y543925D01*
X620665Y545068D01*
X621284Y546562D01*
Y547474D01*
X628765Y554955D01*
X629539D01*
X631033Y555574D01*
X632176Y556717D01*
X632795Y558211D01*
Y559827D01*
X632176Y561321D01*
X631033Y562464D01*
X629539Y563083D01*
D02*
G37*
G36*
X679450Y544723D02*
Y541020D01*
X683152D01*
X682487Y542628D01*
X681058Y544057D01*
X679450Y544723D01*
D02*
G37*
G36*
X676910D02*
X675302Y544057D01*
X673873Y542628D01*
X673207Y541020D01*
X676910D01*
Y544723D01*
D02*
G37*
G36*
X67801Y548640D02*
X59690D01*
Y540529D01*
X62044Y541160D01*
X64186Y542396D01*
X65934Y544144D01*
X67170Y546286D01*
X67801Y548640D01*
D02*
G37*
G36*
X57150D02*
X49039D01*
X49670Y546286D01*
X50906Y544144D01*
X52654Y542396D01*
X54796Y541160D01*
X57150Y540529D01*
Y548640D01*
D02*
G37*
G36*
X111760Y543452D02*
Y539750D01*
X115463D01*
X114797Y541358D01*
X113368Y542787D01*
X111760Y543452D01*
D02*
G37*
G36*
X109220D02*
X107612Y542787D01*
X106183Y541358D01*
X105518Y539750D01*
X109220D01*
Y543452D01*
D02*
G37*
G36*
X13970Y542183D02*
Y538480D01*
X17672D01*
X17007Y540088D01*
X15578Y541517D01*
X13970Y542183D01*
D02*
G37*
G36*
X11430D02*
X9822Y541517D01*
X8393Y540088D01*
X7728Y538480D01*
X11430D01*
Y542183D01*
D02*
G37*
G36*
X252623Y541020D02*
X248920D01*
Y537318D01*
X250528Y537983D01*
X251957Y539412D01*
X252623Y541020D01*
D02*
G37*
G36*
X246380D02*
X242677D01*
X243343Y539412D01*
X244772Y537983D01*
X246380Y537318D01*
Y541020D01*
D02*
G37*
G36*
X683152Y538480D02*
X679450D01*
Y534777D01*
X681058Y535443D01*
X682487Y536872D01*
X683152Y538480D01*
D02*
G37*
G36*
X676910D02*
X673207D01*
X673873Y536872D01*
X675302Y535443D01*
X676910Y534777D01*
Y538480D01*
D02*
G37*
G36*
X115463Y537210D02*
X111760D01*
Y533507D01*
X113368Y534173D01*
X114797Y535602D01*
X115463Y537210D01*
D02*
G37*
G36*
X109220D02*
X105518D01*
X106183Y535602D01*
X107612Y534173D01*
X109220Y533507D01*
Y537210D01*
D02*
G37*
G36*
X17672Y535940D02*
X13970D01*
Y532238D01*
X15578Y532903D01*
X17007Y534332D01*
X17672Y535940D01*
D02*
G37*
G36*
X11430D02*
X7728D01*
X8393Y534332D01*
X9822Y532903D01*
X11430Y532238D01*
Y535940D01*
D02*
G37*
G36*
X537210Y532023D02*
Y528320D01*
X540913D01*
X540247Y529928D01*
X538818Y531357D01*
X537210Y532023D01*
D02*
G37*
G36*
X534670D02*
X533062Y531357D01*
X531633Y529928D01*
X530967Y528320D01*
X534670D01*
Y532023D01*
D02*
G37*
G36*
X592430Y531362D02*
Y527660D01*
X596133D01*
X595467Y529268D01*
X594038Y530697D01*
X592430Y531362D01*
D02*
G37*
G36*
X589890D02*
X588282Y530697D01*
X586853Y529268D01*
X586188Y527660D01*
X589890D01*
Y531362D01*
D02*
G37*
G36*
X540913Y525780D02*
X537210D01*
Y522077D01*
X538818Y522743D01*
X540247Y524172D01*
X540913Y525780D01*
D02*
G37*
G36*
X534670D02*
X530967D01*
X531633Y524172D01*
X533062Y522743D01*
X534670Y522077D01*
Y525780D01*
D02*
G37*
G36*
X596133Y525120D02*
X592430D01*
Y521418D01*
X594038Y522083D01*
X595467Y523512D01*
X596133Y525120D01*
D02*
G37*
G36*
X589890D02*
X586188D01*
X586853Y523512D01*
X588282Y522083D01*
X589890Y521418D01*
Y525120D01*
D02*
G37*
G36*
X59523Y532884D02*
X57318D01*
X55188Y532313D01*
X53278Y531211D01*
X51719Y529652D01*
X50617Y527742D01*
X50046Y525612D01*
Y523408D01*
X50617Y521278D01*
X51719Y519368D01*
X53278Y517809D01*
X55188Y516707D01*
X57318Y516136D01*
X59523D01*
X61652Y516707D01*
X63562Y517809D01*
X65121Y519368D01*
X66223Y521278D01*
X66794Y523408D01*
Y525612D01*
X66223Y527742D01*
X65121Y529652D01*
X63562Y531211D01*
X61652Y532313D01*
X59523Y532884D01*
D02*
G37*
G36*
X13970Y506623D02*
Y502920D01*
X17672D01*
X17007Y504528D01*
X15578Y505957D01*
X13970Y506623D01*
D02*
G37*
G36*
X11430D02*
X9822Y505957D01*
X8393Y504528D01*
X7728Y502920D01*
X11430D01*
Y506623D01*
D02*
G37*
G36*
X475220Y503702D02*
Y500000D01*
X478923D01*
X478257Y501607D01*
X476828Y503036D01*
X475220Y503702D01*
D02*
G37*
G36*
X472680D02*
X471073Y503036D01*
X469644Y501607D01*
X468978Y500000D01*
X472680D01*
Y503702D01*
D02*
G37*
G36*
X17672Y500380D02*
X13970D01*
Y496678D01*
X15578Y497343D01*
X17007Y498772D01*
X17672Y500380D01*
D02*
G37*
G36*
X11430D02*
X7728D01*
X8393Y498772D01*
X9822Y497343D01*
X11430Y496678D01*
Y500380D01*
D02*
G37*
G36*
X505460Y500272D02*
Y496570D01*
X509162D01*
X508497Y498178D01*
X507068Y499607D01*
X505460Y500272D01*
D02*
G37*
G36*
X502920D02*
X501312Y499607D01*
X499883Y498178D01*
X499217Y496570D01*
X502920D01*
Y500272D01*
D02*
G37*
G36*
X396240D02*
Y496570D01*
X399943D01*
X399277Y498178D01*
X397848Y499607D01*
X396240Y500272D01*
D02*
G37*
G36*
X393700D02*
X392092Y499607D01*
X390663Y498178D01*
X389997Y496570D01*
X393700D01*
Y500272D01*
D02*
G37*
G36*
X238760Y499002D02*
Y495300D01*
X242463D01*
X241797Y496908D01*
X240368Y498337D01*
X238760Y499002D01*
D02*
G37*
G36*
X236220D02*
X234612Y498337D01*
X233183Y496908D01*
X232518Y495300D01*
X236220D01*
Y499002D01*
D02*
G37*
G36*
X478923Y497460D02*
X475220D01*
Y493757D01*
X476828Y494423D01*
X478257Y495852D01*
X478923Y497460D01*
D02*
G37*
G36*
X472680D02*
X468978D01*
X469644Y495852D01*
X471073Y494423D01*
X472680Y493757D01*
Y497460D01*
D02*
G37*
G36*
X59523Y507484D02*
X57318D01*
X55188Y506913D01*
X53278Y505811D01*
X51719Y504252D01*
X50617Y502342D01*
X50046Y500213D01*
Y498008D01*
X50617Y495878D01*
X51719Y493968D01*
X53278Y492409D01*
X55188Y491307D01*
X57318Y490736D01*
X59523D01*
X61652Y491307D01*
X63562Y492409D01*
X65121Y493968D01*
X66223Y495878D01*
X66794Y498008D01*
Y500213D01*
X66223Y502342D01*
X65121Y504252D01*
X63562Y505811D01*
X61652Y506913D01*
X59523Y507484D01*
D02*
G37*
G36*
X509162Y494030D02*
X505460D01*
Y490327D01*
X507068Y490993D01*
X508497Y492422D01*
X509162Y494030D01*
D02*
G37*
G36*
X502920D02*
X499217D01*
X499883Y492422D01*
X501312Y490993D01*
X502920Y490327D01*
Y494030D01*
D02*
G37*
G36*
X399943D02*
X396240D01*
Y490327D01*
X397848Y490993D01*
X399277Y492422D01*
X399943Y494030D01*
D02*
G37*
G36*
X393700D02*
X389997D01*
X390663Y492422D01*
X392092Y490993D01*
X393700Y490327D01*
Y494030D01*
D02*
G37*
G36*
X242463Y492760D02*
X238760D01*
Y489058D01*
X240368Y489723D01*
X241797Y491152D01*
X242463Y492760D01*
D02*
G37*
G36*
X236220D02*
X232518D01*
X233183Y491152D01*
X234612Y489723D01*
X236220Y489058D01*
Y492760D01*
D02*
G37*
G36*
X659130Y486684D02*
Y482981D01*
X662832D01*
X662167Y484589D01*
X660738Y486018D01*
X659130Y486684D01*
D02*
G37*
G36*
X656590D02*
X654982Y486018D01*
X653553Y484589D01*
X652887Y482981D01*
X656590D01*
Y486684D01*
D02*
G37*
G36*
X599186D02*
Y482981D01*
X602888D01*
X602223Y484589D01*
X600794Y486018D01*
X599186Y486684D01*
D02*
G37*
G36*
X596646D02*
X595038Y486018D01*
X593609Y484589D01*
X592943Y482981D01*
X596646D01*
Y486684D01*
D02*
G37*
G36*
X539242D02*
Y482981D01*
X542944D01*
X542279Y484589D01*
X540850Y486018D01*
X539242Y486684D01*
D02*
G37*
G36*
X536702D02*
X535094Y486018D01*
X533665Y484589D01*
X532999Y482981D01*
X536702D01*
Y486684D01*
D02*
G37*
G36*
X384810Y486302D02*
Y482600D01*
X388512D01*
X387847Y484208D01*
X386418Y485637D01*
X384810Y486302D01*
D02*
G37*
G36*
X382270D02*
X380662Y485637D01*
X379233Y484208D01*
X378568Y482600D01*
X382270D01*
Y486302D01*
D02*
G37*
G36*
X662832Y480441D02*
X659130D01*
Y476739D01*
X660738Y477404D01*
X662167Y478833D01*
X662832Y480441D01*
D02*
G37*
G36*
X656590D02*
X652887D01*
X653553Y478833D01*
X654982Y477404D01*
X656590Y476739D01*
Y480441D01*
D02*
G37*
G36*
X602888D02*
X599186D01*
Y476739D01*
X600794Y477404D01*
X602223Y478833D01*
X602888Y480441D01*
D02*
G37*
G36*
X596646D02*
X592943D01*
X593609Y478833D01*
X595038Y477404D01*
X596646Y476739D01*
Y480441D01*
D02*
G37*
G36*
X542944D02*
X539242D01*
Y476739D01*
X540850Y477404D01*
X542279Y478833D01*
X542944Y480441D01*
D02*
G37*
G36*
X536702D02*
X532999D01*
X533665Y478833D01*
X535094Y477404D01*
X536702Y476739D01*
Y480441D01*
D02*
G37*
G36*
X388512Y480060D02*
X384810D01*
Y476357D01*
X386418Y477023D01*
X387847Y478452D01*
X388512Y480060D01*
D02*
G37*
G36*
X382270D02*
X378568D01*
X379233Y478452D01*
X380662Y477023D01*
X382270Y476357D01*
Y480060D01*
D02*
G37*
G36*
X39491Y473370D02*
Y469668D01*
X43193D01*
X42528Y471275D01*
X41099Y472705D01*
X39491Y473370D01*
D02*
G37*
G36*
X36951D02*
X35343Y472705D01*
X33914Y471275D01*
X33249Y469668D01*
X36951D01*
Y473370D01*
D02*
G37*
G36*
X43193Y467128D02*
X39491D01*
Y463425D01*
X41099Y464091D01*
X42528Y465520D01*
X43193Y467128D01*
D02*
G37*
G36*
X36951D02*
X33249D01*
X33914Y465520D01*
X35343Y464091D01*
X36951Y463425D01*
Y467128D01*
D02*
G37*
G36*
X17437Y466526D02*
Y462824D01*
X21140D01*
X20474Y464431D01*
X19045Y465860D01*
X17437Y466526D01*
D02*
G37*
G36*
X14898D02*
X13290Y465860D01*
X11861Y464431D01*
X11195Y462824D01*
X14898D01*
Y466526D01*
D02*
G37*
G36*
X104140Y464712D02*
Y461010D01*
X107843D01*
X107177Y462618D01*
X105748Y464047D01*
X104140Y464712D01*
D02*
G37*
G36*
X101600D02*
X99992Y464047D01*
X98563Y462618D01*
X97898Y461010D01*
X101600D01*
Y464712D01*
D02*
G37*
G36*
X72390Y460902D02*
Y457200D01*
X76093D01*
X75427Y458808D01*
X73998Y460237D01*
X72390Y460902D01*
D02*
G37*
G36*
X69850D02*
X68242Y460237D01*
X66813Y458808D01*
X66147Y457200D01*
X69850D01*
Y460902D01*
D02*
G37*
G36*
X21140Y460284D02*
X17437D01*
Y456581D01*
X19045Y457247D01*
X20474Y458676D01*
X21140Y460284D01*
D02*
G37*
G36*
X14898D02*
X11195D01*
X11861Y458676D01*
X13290Y457247D01*
X14898Y456581D01*
Y460284D01*
D02*
G37*
G36*
X107843Y458470D02*
X104140D01*
Y454767D01*
X105748Y455433D01*
X107177Y456862D01*
X107843Y458470D01*
D02*
G37*
G36*
X101600D02*
X97898D01*
X98563Y456862D01*
X99992Y455433D01*
X101600Y454767D01*
Y458470D01*
D02*
G37*
G36*
X681990Y457093D02*
Y453390D01*
X685693D01*
X685027Y454998D01*
X683598Y456427D01*
X681990Y457093D01*
D02*
G37*
G36*
X679450D02*
X677842Y456427D01*
X676413Y454998D01*
X675748Y453390D01*
X679450D01*
Y457093D01*
D02*
G37*
G36*
X76093Y454660D02*
X72390D01*
Y450957D01*
X73998Y451623D01*
X75427Y453052D01*
X76093Y454660D01*
D02*
G37*
G36*
X69850D02*
X66147D01*
X66813Y453052D01*
X68242Y451623D01*
X69850Y450957D01*
Y454660D01*
D02*
G37*
G36*
X685693Y450850D02*
X681990D01*
Y447147D01*
X683598Y447813D01*
X685027Y449242D01*
X685693Y450850D01*
D02*
G37*
G36*
X679450D02*
X675748D01*
X676413Y449242D01*
X677842Y447813D01*
X679450Y447147D01*
Y450850D01*
D02*
G37*
G36*
X628696Y469773D02*
X627080D01*
X625586Y469154D01*
X624443Y468011D01*
X623824Y466517D01*
Y464901D01*
X624443Y463407D01*
X624785Y463064D01*
Y454003D01*
X623935Y453152D01*
X623316Y451658D01*
Y450042D01*
X623935Y448548D01*
X625078Y447405D01*
X626572Y446786D01*
X628188D01*
X629682Y447405D01*
X630825Y448548D01*
X631444Y450042D01*
Y451658D01*
X630825Y453152D01*
X630483Y453495D01*
Y462556D01*
X631333Y463407D01*
X631952Y464901D01*
Y466517D01*
X631333Y468011D01*
X630190Y469154D01*
X628696Y469773D01*
D02*
G37*
G36*
X462661Y554967D02*
X393319D01*
X391238Y554553D01*
X389473Y553375D01*
X358427Y522328D01*
X343913D01*
X341860Y524383D01*
X340095Y525561D01*
X338014Y525975D01*
X318995D01*
X316914Y525561D01*
X315149Y524383D01*
X313095Y522328D01*
X167640D01*
X165559Y521914D01*
X163794Y520736D01*
X162616Y518971D01*
X162201Y516890D01*
X162616Y514809D01*
X163794Y513044D01*
X165559Y511866D01*
X167640Y511451D01*
X315348D01*
X317429Y511866D01*
X319193Y513044D01*
X321247Y515098D01*
X335761D01*
X336593Y514266D01*
X336067Y512996D01*
X325998D01*
X325998Y512996D01*
X324907Y512780D01*
X323983Y512162D01*
X323983Y512162D01*
X316265Y504444D01*
X315422D01*
X313928Y503825D01*
X312785Y502682D01*
X312166Y501188D01*
Y499572D01*
X312785Y498078D01*
X312188Y496879D01*
X307417D01*
X307417Y496879D01*
X306326Y496662D01*
X305402Y496044D01*
X279672Y470314D01*
X279054Y469390D01*
X278837Y468299D01*
X278837Y468299D01*
Y461115D01*
X278495Y460772D01*
X278304Y460311D01*
X276806Y460013D01*
X269687Y467132D01*
Y496408D01*
X270284Y497004D01*
X270903Y498498D01*
Y500115D01*
X270284Y501609D01*
X269140Y502752D01*
X267647Y503370D01*
X266030D01*
X264536Y502752D01*
X263393Y501609D01*
X262775Y500115D01*
Y498498D01*
X263393Y497004D01*
X263990Y496408D01*
Y465952D01*
X263990Y465952D01*
X264207Y464861D01*
X264824Y463937D01*
X276332Y452429D01*
X275807Y451159D01*
X252594D01*
X204862Y498890D01*
Y499734D01*
X204244Y501227D01*
X203100Y502371D01*
X201607Y502989D01*
X199990D01*
X198496Y502371D01*
X197353Y501227D01*
X196735Y499734D01*
Y498117D01*
X197353Y496623D01*
X198496Y495480D01*
X199990Y494861D01*
X200834D01*
X247427Y448268D01*
X246941Y447095D01*
X210984D01*
X141224Y516855D01*
Y517698D01*
X140605Y519192D01*
X139462Y520335D01*
X137968Y520954D01*
X136352D01*
X134858Y520335D01*
X133715Y519192D01*
X133096Y517698D01*
Y516082D01*
X133715Y514588D01*
X134858Y513445D01*
X136352Y512826D01*
X137195D01*
X207790Y442232D01*
X207790Y442232D01*
X208714Y441614D01*
X209804Y441397D01*
X209804Y441397D01*
X256458D01*
X256711Y440127D01*
X256202Y439917D01*
X254773Y438488D01*
X254107Y436880D01*
X264053D01*
X263387Y438488D01*
X261958Y439917D01*
X261449Y440127D01*
X261702Y441397D01*
X273394D01*
X351516Y363275D01*
X351465Y362833D01*
X351079Y362005D01*
X273214D01*
X264469Y370750D01*
Y385826D01*
X264968D01*
X266462Y386445D01*
X267605Y387588D01*
X268224Y389082D01*
Y390698D01*
X267605Y392192D01*
X266462Y393335D01*
X264968Y393954D01*
X264007D01*
X263524Y395073D01*
X264260Y395986D01*
X264968D01*
X266462Y396605D01*
X267605Y397748D01*
X268224Y399242D01*
Y400858D01*
X267605Y402352D01*
X266462Y403495D01*
X264968Y404114D01*
X263352D01*
X261858Y403495D01*
X260715Y402352D01*
X260096Y400858D01*
Y400015D01*
X254526Y394444D01*
X253908Y393520D01*
X253691Y392430D01*
X253691Y392430D01*
Y364490D01*
X253691Y364490D01*
X253908Y363400D01*
X254526Y362476D01*
X289533Y327469D01*
X289533Y327469D01*
X290457Y326851D01*
X291547Y326634D01*
X291547Y326634D01*
X397384D01*
X397384Y326634D01*
X398474Y326851D01*
X399398Y327469D01*
X417872Y345942D01*
X419045Y345456D01*
Y305816D01*
X419045Y305816D01*
X419262Y304726D01*
X419880Y303802D01*
X453796Y269885D01*
Y269042D01*
X454415Y267548D01*
X455558Y266405D01*
X457052Y265786D01*
X458668D01*
X460162Y266405D01*
X461305Y267548D01*
X461924Y269042D01*
Y270658D01*
X461305Y272152D01*
X460162Y273295D01*
X458668Y273914D01*
X457825D01*
X424743Y306996D01*
Y414959D01*
X424743Y414959D01*
X424526Y416050D01*
X423908Y416974D01*
X366428Y474454D01*
X365504Y475072D01*
X364413Y475289D01*
X364413Y475289D01*
X356101D01*
X347455Y483935D01*
Y508660D01*
X347238Y509750D01*
X346949Y510182D01*
X347569Y511451D01*
X360680D01*
X362761Y511866D01*
X364526Y513044D01*
X395572Y544090D01*
X461713D01*
X462896Y543855D01*
X468264D01*
X484781Y527337D01*
Y445319D01*
X483608Y444833D01*
X469047Y459395D01*
X467282Y460574D01*
X465201Y460988D01*
X398780D01*
X396699Y460574D01*
X394934Y459395D01*
X393755Y457630D01*
X393341Y455549D01*
X393755Y453468D01*
X394934Y451703D01*
X396699Y450524D01*
X398780Y450111D01*
X462948D01*
X484781Y428277D01*
Y338803D01*
X481617Y335639D01*
X467066D01*
X464984Y335224D01*
X463220Y334046D01*
X462041Y332281D01*
X461923Y331687D01*
X460707Y331318D01*
X458829Y333197D01*
Y412060D01*
X458414Y414141D01*
X457236Y415906D01*
X455471Y417085D01*
X453390Y417499D01*
X451309Y417085D01*
X449544Y415906D01*
X448366Y414141D01*
X447952Y412060D01*
Y330944D01*
X448366Y328863D01*
X449544Y327098D01*
X469338Y307304D01*
X471103Y306126D01*
X473184Y305711D01*
X482981D01*
X485062Y306126D01*
X486827Y307304D01*
X488005Y309069D01*
X488419Y311150D01*
X488005Y313231D01*
X486827Y314996D01*
X485062Y316175D01*
X482981Y316588D01*
X475437D01*
X468437Y323588D01*
X468923Y324762D01*
X483870D01*
X485951Y325176D01*
X487716Y326354D01*
X494066Y332704D01*
X495244Y334469D01*
X495658Y336550D01*
Y430530D01*
Y529590D01*
X495244Y531671D01*
X494066Y533436D01*
X474362Y553139D01*
X472598Y554318D01*
X470516Y554732D01*
X463844D01*
X462661Y554967D01*
D02*
G37*
G36*
X152400Y446932D02*
Y443230D01*
X156103D01*
X155437Y444838D01*
X154008Y446267D01*
X152400Y446932D01*
D02*
G37*
G36*
X149860D02*
X148252Y446267D01*
X146823Y444838D01*
X146158Y443230D01*
X149860D01*
Y446932D01*
D02*
G37*
G36*
X126184Y442191D02*
Y438489D01*
X129887D01*
X129221Y440096D01*
X127792Y441525D01*
X126184Y442191D01*
D02*
G37*
G36*
X123644D02*
X122037Y441525D01*
X120608Y440096D01*
X119942Y438489D01*
X123644D01*
Y442191D01*
D02*
G37*
G36*
X156103Y440690D02*
X152400D01*
Y436987D01*
X154008Y437653D01*
X155437Y439082D01*
X156103Y440690D01*
D02*
G37*
G36*
X149860D02*
X146158D01*
X146823Y439082D01*
X148252Y437653D01*
X149860Y436987D01*
Y440690D01*
D02*
G37*
G36*
X129887Y435948D02*
X126184D01*
Y432246D01*
X127792Y432912D01*
X129221Y434341D01*
X129887Y435948D01*
D02*
G37*
G36*
X123644D02*
X119942D01*
X120608Y434341D01*
X122037Y432912D01*
X123644Y432246D01*
Y435948D01*
D02*
G37*
G36*
X264053Y434340D02*
X260350D01*
Y430638D01*
X261958Y431303D01*
X263387Y432732D01*
X264053Y434340D01*
D02*
G37*
G36*
X257810D02*
X254107D01*
X254773Y432732D01*
X256202Y431303D01*
X257810Y430638D01*
Y434340D01*
D02*
G37*
G36*
X563880Y431693D02*
Y427990D01*
X567583D01*
X566917Y429598D01*
X565488Y431027D01*
X563880Y431693D01*
D02*
G37*
G36*
X561340D02*
X559732Y431027D01*
X558303Y429598D01*
X557637Y427990D01*
X561340D01*
Y431693D01*
D02*
G37*
G36*
X636270Y430423D02*
Y426720D01*
X639972D01*
X639307Y428328D01*
X637878Y429757D01*
X636270Y430423D01*
D02*
G37*
G36*
X633730D02*
X632122Y429757D01*
X630693Y428328D01*
X630028Y426720D01*
X633730D01*
Y430423D01*
D02*
G37*
G36*
X16677Y425460D02*
Y421758D01*
X20380D01*
X19714Y423365D01*
X18285Y424794D01*
X16677Y425460D01*
D02*
G37*
G36*
X14137D02*
X12530Y424794D01*
X11101Y423365D01*
X10435Y421758D01*
X14137D01*
Y425460D01*
D02*
G37*
G36*
X567583Y425450D02*
X563880D01*
Y421748D01*
X565488Y422413D01*
X566917Y423842D01*
X567583Y425450D01*
D02*
G37*
G36*
X561340D02*
X557637D01*
X558303Y423842D01*
X559732Y422413D01*
X561340Y421748D01*
Y425450D01*
D02*
G37*
G36*
X639972Y424180D02*
X636270D01*
Y420477D01*
X637878Y421143D01*
X639307Y422572D01*
X639972Y424180D01*
D02*
G37*
G36*
X633730D02*
X630028D01*
X630693Y422572D01*
X632122Y421143D01*
X633730Y420477D01*
Y424180D01*
D02*
G37*
G36*
X216708Y421513D02*
X215092D01*
X213598Y420894D01*
X212515Y419812D01*
X210334D01*
X210334Y419812D01*
X209244Y419595D01*
X208320Y418977D01*
X208320Y418977D01*
X203726Y414383D01*
X203108Y413459D01*
X202891Y412369D01*
X202891Y412369D01*
Y389890D01*
X202891Y389890D01*
X203108Y388800D01*
X203726Y387876D01*
X206266Y385336D01*
X206266Y385336D01*
X207190Y384718D01*
X208280Y384501D01*
X209640D01*
X213051Y381090D01*
Y365957D01*
X211781Y365790D01*
X211665Y366222D01*
X210495Y368249D01*
X208840Y369904D01*
X206813Y371075D01*
X204651Y371654D01*
Y362790D01*
Y353927D01*
X206813Y354506D01*
X208840Y355677D01*
X210495Y357332D01*
X211665Y359359D01*
X212013Y360658D01*
X212836Y360790D01*
X213350Y360738D01*
X213886Y359936D01*
X216916Y356905D01*
Y356062D01*
X217535Y354568D01*
X218678Y353425D01*
X220172Y352806D01*
X221788D01*
X223282Y353425D01*
X224425Y354568D01*
X225044Y356062D01*
Y357678D01*
X224425Y359172D01*
X223282Y360315D01*
X221788Y360934D01*
X220945D01*
X218749Y363130D01*
Y380601D01*
X220019Y381127D01*
X220642Y380503D01*
X222250Y379837D01*
Y384810D01*
Y389782D01*
X220642Y389117D01*
X219213Y387688D01*
X218440Y385821D01*
Y385555D01*
X217170Y385029D01*
X212834Y389364D01*
X211910Y389982D01*
X210820Y390199D01*
X210820Y390199D01*
X209460D01*
X208589Y391070D01*
Y411189D01*
X211514Y414114D01*
X213487D01*
X213598Y414004D01*
X215092Y413385D01*
X216708D01*
X218202Y414004D01*
X219345Y415147D01*
X219964Y416641D01*
Y418257D01*
X219345Y419751D01*
X218202Y420894D01*
X216708Y421513D01*
D02*
G37*
G36*
X20380Y419218D02*
X16677D01*
Y415515D01*
X18285Y416181D01*
X19714Y417610D01*
X20380Y419218D01*
D02*
G37*
G36*
X14137D02*
X10435D01*
X11101Y417610D01*
X12530Y416181D01*
X14137Y415515D01*
Y419218D01*
D02*
G37*
G36*
X523240Y418993D02*
Y415290D01*
X526942D01*
X526277Y416898D01*
X524848Y418327D01*
X523240Y418993D01*
D02*
G37*
G36*
X520700D02*
X519092Y418327D01*
X517663Y416898D01*
X516997Y415290D01*
X520700D01*
Y418993D01*
D02*
G37*
G36*
X526942Y412750D02*
X523240D01*
Y409048D01*
X524848Y409713D01*
X526277Y411142D01*
X526942Y412750D01*
D02*
G37*
G36*
X520700D02*
X516997D01*
X517663Y411142D01*
X519092Y409713D01*
X520700Y409048D01*
Y412750D01*
D02*
G37*
G36*
X166370Y410183D02*
X164209Y409604D01*
X162181Y408434D01*
X161046Y407298D01*
X159406Y407141D01*
X159340Y407208D01*
X157313Y408378D01*
X155152Y408957D01*
Y400094D01*
Y391231D01*
X157313Y391810D01*
X159340Y392980D01*
X160476Y394116D01*
X162115Y394272D01*
X162181Y394206D01*
X164209Y393036D01*
X166370Y392457D01*
Y401320D01*
Y410183D01*
D02*
G37*
G36*
X601980Y408833D02*
Y405130D01*
X605682D01*
X605017Y406738D01*
X603588Y408167D01*
X601980Y408833D01*
D02*
G37*
G36*
X599440D02*
X597832Y408167D01*
X596403Y406738D01*
X595737Y405130D01*
X599440D01*
Y408833D01*
D02*
G37*
G36*
X168910Y410183D02*
Y402590D01*
X176503D01*
X175924Y404751D01*
X174754Y406779D01*
X173099Y408434D01*
X171071Y409604D01*
X168910Y410183D01*
D02*
G37*
G36*
X152612Y408957D02*
X150450Y408378D01*
X148423Y407208D01*
X146768Y405552D01*
X145597Y403525D01*
X145018Y401364D01*
X152612D01*
Y408957D01*
D02*
G37*
G36*
X74390Y408726D02*
Y400460D01*
X82656D01*
X82010Y402872D01*
X80754Y405048D01*
X78978Y406824D01*
X76802Y408080D01*
X74390Y408726D01*
D02*
G37*
G36*
X71850D02*
X69438Y408080D01*
X67262Y406824D01*
X65486Y405048D01*
X64230Y402872D01*
X63584Y400460D01*
X71850D01*
Y408726D01*
D02*
G37*
G36*
X605682Y402590D02*
X601980D01*
Y398887D01*
X603588Y399553D01*
X605017Y400982D01*
X605682Y402590D01*
D02*
G37*
G36*
X599440D02*
X595737D01*
X596403Y400982D01*
X597832Y399553D01*
X599440Y398887D01*
Y402590D01*
D02*
G37*
G36*
X688340Y399943D02*
Y396240D01*
X692042D01*
X691377Y397848D01*
X689948Y399277D01*
X688340Y399943D01*
D02*
G37*
G36*
X685800D02*
X684192Y399277D01*
X682763Y397848D01*
X682097Y396240D01*
X685800D01*
Y399943D01*
D02*
G37*
G36*
X16510D02*
Y396240D01*
X20213D01*
X19547Y397848D01*
X18118Y399277D01*
X16510Y399943D01*
D02*
G37*
G36*
X13970D02*
X12362Y399277D01*
X10933Y397848D01*
X10267Y396240D01*
X13970D01*
Y399943D01*
D02*
G37*
G36*
X176503Y400050D02*
X168910D01*
Y392457D01*
X171071Y393036D01*
X173099Y394206D01*
X174754Y395861D01*
X175924Y397889D01*
X176503Y400050D01*
D02*
G37*
G36*
X152612Y398824D02*
X145018D01*
X145597Y396662D01*
X146768Y394635D01*
X148423Y392980D01*
X150450Y391810D01*
X152612Y391231D01*
Y398824D01*
D02*
G37*
G36*
X671847Y409824D02*
X669273D01*
X666787Y409158D01*
X664559Y407871D01*
X662739Y406051D01*
X661452Y403823D01*
X660786Y401337D01*
Y398763D01*
X661452Y396277D01*
X662739Y394049D01*
X664559Y392229D01*
X666787Y390942D01*
X669273Y390276D01*
X671847D01*
X674333Y390942D01*
X676561Y392229D01*
X678381Y394049D01*
X679668Y396277D01*
X680334Y398763D01*
Y401337D01*
X679668Y403823D01*
X678381Y406051D01*
X676561Y407871D01*
X674333Y409158D01*
X671847Y409824D01*
D02*
G37*
G36*
X692042Y393700D02*
X688340D01*
Y389997D01*
X689948Y390663D01*
X691377Y392092D01*
X692042Y393700D01*
D02*
G37*
G36*
X685800D02*
X682097D01*
X682763Y392092D01*
X684192Y390663D01*
X685800Y389997D01*
Y393700D01*
D02*
G37*
G36*
X20213D02*
X16510D01*
Y389997D01*
X18118Y390663D01*
X19547Y392092D01*
X20213Y393700D01*
D02*
G37*
G36*
X13970D02*
X10267D01*
X10933Y392092D01*
X12362Y390663D01*
X13970Y389997D01*
Y393700D01*
D02*
G37*
G36*
X82656Y397920D02*
X74390D01*
Y389654D01*
X76802Y390300D01*
X78978Y391556D01*
X80754Y393332D01*
X82010Y395508D01*
X82656Y397920D01*
D02*
G37*
G36*
X71850D02*
X63584D01*
X64230Y395508D01*
X65486Y393332D01*
X67262Y391556D01*
X69438Y390300D01*
X71850Y389654D01*
Y397920D01*
D02*
G37*
G36*
X224790Y389782D02*
Y386080D01*
X228493D01*
X227827Y387688D01*
X226398Y389117D01*
X224790Y389782D01*
D02*
G37*
G36*
X571500Y387243D02*
Y383540D01*
X575202D01*
X574537Y385148D01*
X573108Y386577D01*
X571500Y387243D01*
D02*
G37*
G36*
X568960D02*
X567352Y386577D01*
X565923Y385148D01*
X565257Y383540D01*
X568960D01*
Y387243D01*
D02*
G37*
G36*
X228493Y383540D02*
X224790D01*
Y379837D01*
X226398Y380503D01*
X227827Y381932D01*
X228493Y383540D01*
D02*
G37*
G36*
X575202Y381000D02*
X571500D01*
Y377298D01*
X573108Y377963D01*
X574537Y379392D01*
X575202Y381000D01*
D02*
G37*
G36*
X568960D02*
X565257D01*
X565923Y379392D01*
X567352Y377963D01*
X568960Y377298D01*
Y381000D01*
D02*
G37*
G36*
X608330Y378353D02*
Y374650D01*
X612033D01*
X611367Y376258D01*
X609938Y377687D01*
X608330Y378353D01*
D02*
G37*
G36*
X605790D02*
X604182Y377687D01*
X602753Y376258D01*
X602088Y374650D01*
X605790D01*
Y378353D01*
D02*
G37*
G36*
X689610Y377082D02*
Y373380D01*
X693313D01*
X692647Y374988D01*
X691218Y376417D01*
X689610Y377082D01*
D02*
G37*
G36*
X687070D02*
X685462Y376417D01*
X684033Y374988D01*
X683367Y373380D01*
X687070D01*
Y377082D01*
D02*
G37*
G36*
X537210D02*
Y373380D01*
X540913D01*
X540247Y374988D01*
X538818Y376417D01*
X537210Y377082D01*
D02*
G37*
G36*
X534670D02*
X533062Y376417D01*
X531633Y374988D01*
X530967Y373380D01*
X534670D01*
Y377082D01*
D02*
G37*
G36*
X44450D02*
Y373380D01*
X48152D01*
X47487Y374988D01*
X46058Y376417D01*
X44450Y377082D01*
D02*
G37*
G36*
X41910D02*
X40302Y376417D01*
X38873Y374988D01*
X38207Y373380D01*
X41910D01*
Y377082D01*
D02*
G37*
G36*
X612033Y372110D02*
X608330D01*
Y368408D01*
X609938Y369073D01*
X611367Y370502D01*
X612033Y372110D01*
D02*
G37*
G36*
X605790D02*
X602088D01*
X602753Y370502D01*
X604182Y369073D01*
X605790Y368408D01*
Y372110D01*
D02*
G37*
G36*
X13970Y372002D02*
Y368300D01*
X17672D01*
X17007Y369908D01*
X15578Y371337D01*
X13970Y372002D01*
D02*
G37*
G36*
X11430D02*
X9822Y371337D01*
X8393Y369908D01*
X7728Y368300D01*
X11430D01*
Y372002D01*
D02*
G37*
G36*
X693313Y370840D02*
X689610D01*
Y367137D01*
X691218Y367803D01*
X692647Y369232D01*
X693313Y370840D01*
D02*
G37*
G36*
X687070D02*
X683367D01*
X684033Y369232D01*
X685462Y367803D01*
X687070Y367137D01*
Y370840D01*
D02*
G37*
G36*
X540913D02*
X537210D01*
Y367137D01*
X538818Y367803D01*
X540247Y369232D01*
X540913Y370840D01*
D02*
G37*
G36*
X534670D02*
X530967D01*
X531633Y369232D01*
X533062Y367803D01*
X534670Y367137D01*
Y370840D01*
D02*
G37*
G36*
X48152D02*
X44450D01*
Y367137D01*
X46058Y367803D01*
X47487Y369232D01*
X48152Y370840D01*
D02*
G37*
G36*
X41910D02*
X38207D01*
X38873Y369232D01*
X40302Y367803D01*
X41910Y367137D01*
Y370840D01*
D02*
G37*
G36*
X671847Y384424D02*
X669273D01*
X666787Y383758D01*
X664559Y382471D01*
X662739Y380651D01*
X661452Y378423D01*
X660786Y375937D01*
Y373363D01*
X661452Y370877D01*
X662739Y368649D01*
X664559Y366829D01*
X666787Y365542D01*
X669273Y364876D01*
X671847D01*
X674333Y365542D01*
X676561Y366829D01*
X678381Y368649D01*
X679668Y370877D01*
X680334Y373363D01*
Y375937D01*
X679668Y378423D01*
X678381Y380651D01*
X676561Y382471D01*
X674333Y383758D01*
X671847Y384424D01*
D02*
G37*
G36*
X202111Y371654D02*
X199950Y371075D01*
X197923Y369904D01*
X196268Y368249D01*
X195097Y366222D01*
X194518Y364061D01*
X202111D01*
Y371654D01*
D02*
G37*
G36*
X17672Y365760D02*
X13970D01*
Y362057D01*
X15578Y362723D01*
X17007Y364152D01*
X17672Y365760D01*
D02*
G37*
G36*
X11430D02*
X7728D01*
X8393Y364152D01*
X9822Y362723D01*
X11430Y362057D01*
Y365760D01*
D02*
G37*
G36*
X140789Y367348D02*
Y359755D01*
X148382D01*
X147803Y361916D01*
X146632Y363943D01*
X144977Y365599D01*
X142950Y366769D01*
X140789Y367348D01*
D02*
G37*
G36*
X138249D02*
X136087Y366769D01*
X134060Y365599D01*
X132405Y363943D01*
X131235Y361916D01*
X130655Y359755D01*
X138249D01*
Y367348D01*
D02*
G37*
G36*
X74390Y364726D02*
Y356460D01*
X82656D01*
X82010Y358872D01*
X80754Y361048D01*
X78978Y362824D01*
X76802Y364080D01*
X74390Y364726D01*
D02*
G37*
G36*
X71850D02*
X69438Y364080D01*
X67262Y362824D01*
X65486Y361048D01*
X64230Y358872D01*
X63584Y356460D01*
X71850D01*
Y364726D01*
D02*
G37*
G36*
X202111Y361521D02*
X194518D01*
X195097Y359359D01*
X196268Y357332D01*
X197923Y355677D01*
X199950Y354506D01*
X202111Y353927D01*
Y361521D01*
D02*
G37*
G36*
X552450Y355493D02*
Y351790D01*
X556152D01*
X555487Y353398D01*
X554058Y354827D01*
X552450Y355493D01*
D02*
G37*
G36*
X549910D02*
X548302Y354827D01*
X546873Y353398D01*
X546208Y351790D01*
X549910D01*
Y355493D01*
D02*
G37*
G36*
X681350Y360040D02*
X671830D01*
Y350520D01*
X681350D01*
Y360040D01*
D02*
G37*
G36*
X669290D02*
X659770D01*
Y350520D01*
X669290D01*
Y360040D01*
D02*
G37*
G36*
X690880Y350412D02*
Y346710D01*
X694583D01*
X693917Y348318D01*
X692488Y349747D01*
X690880Y350412D01*
D02*
G37*
G36*
X688340D02*
X686732Y349747D01*
X685303Y348318D01*
X684638Y346710D01*
X688340D01*
Y350412D01*
D02*
G37*
G36*
X82656Y353920D02*
X74390D01*
Y345654D01*
X76802Y346300D01*
X78978Y347556D01*
X80754Y349332D01*
X82010Y351508D01*
X82656Y353920D01*
D02*
G37*
G36*
X71850D02*
X63584D01*
X64230Y351508D01*
X65486Y349332D01*
X67262Y347556D01*
X69438Y346300D01*
X71850Y345654D01*
Y353920D01*
D02*
G37*
G36*
X556152Y349250D02*
X552450D01*
Y345547D01*
X554058Y346213D01*
X555487Y347642D01*
X556152Y349250D01*
D02*
G37*
G36*
X549910D02*
X546208D01*
X546873Y347642D01*
X548302Y346213D01*
X549910Y345547D01*
Y349250D01*
D02*
G37*
G36*
X148382Y357215D02*
X130655D01*
X131235Y355053D01*
X132405Y353026D01*
X133787Y351644D01*
X133967Y350906D01*
X133798Y350056D01*
X132445Y348703D01*
X131275Y346676D01*
X130696Y344515D01*
X148423D01*
X147843Y346676D01*
X146673Y348703D01*
X145291Y350086D01*
X145111Y350824D01*
X145280Y351674D01*
X146632Y353026D01*
X147803Y355053D01*
X148382Y357215D01*
D02*
G37*
G36*
X694583Y344170D02*
X690880D01*
Y340467D01*
X692488Y341133D01*
X693917Y342562D01*
X694583Y344170D01*
D02*
G37*
G36*
X688340D02*
X684638D01*
X685303Y342562D01*
X686732Y341133D01*
X688340Y340467D01*
Y344170D01*
D02*
G37*
G36*
X681350Y347980D02*
X671830D01*
Y338460D01*
X681350D01*
Y347980D01*
D02*
G37*
G36*
X669290D02*
X659770D01*
Y338460D01*
X669290D01*
Y347980D01*
D02*
G37*
G36*
X177383Y337612D02*
X175221Y337033D01*
X173194Y335862D01*
X171827Y334495D01*
X171033Y334319D01*
X170239Y334495D01*
X168871Y335862D01*
X166844Y337033D01*
X164683Y337612D01*
Y328749D01*
Y319885D01*
X166844Y320465D01*
X168871Y321635D01*
X170239Y323002D01*
X171033Y323178D01*
X171827Y323002D01*
X173194Y321635D01*
X175221Y320465D01*
X177383Y319885D01*
Y328749D01*
Y337612D01*
D02*
G37*
G36*
X13970Y336442D02*
Y332740D01*
X17672D01*
X17007Y334348D01*
X15578Y335777D01*
X13970Y336442D01*
D02*
G37*
G36*
X11430D02*
X9822Y335777D01*
X8393Y334348D01*
X7728Y332740D01*
X11430D01*
Y336442D01*
D02*
G37*
G36*
X179923Y337612D02*
Y330019D01*
X187516D01*
X186937Y332180D01*
X185767Y334207D01*
X184111Y335862D01*
X182084Y337033D01*
X179923Y337612D01*
D02*
G37*
G36*
X17672Y330200D02*
X13970D01*
Y326497D01*
X15578Y327163D01*
X17007Y328592D01*
X17672Y330200D01*
D02*
G37*
G36*
X11430D02*
X7728D01*
X8393Y328592D01*
X9822Y327163D01*
X11430Y326497D01*
Y330200D01*
D02*
G37*
G36*
X516428Y332994D02*
X514812D01*
X513318Y332375D01*
X512175Y331232D01*
X511556Y329738D01*
Y328122D01*
X512175Y326628D01*
X513318Y325485D01*
X514812Y324866D01*
X516428D01*
X517922Y325485D01*
X519065Y326628D01*
X519684Y328122D01*
Y329738D01*
X519065Y331232D01*
X517922Y332375D01*
X516428Y332994D01*
D02*
G37*
G36*
X147037Y329495D02*
X139443D01*
X140023Y327334D01*
X141193Y325307D01*
X142848Y323652D01*
X144875Y322481D01*
X147037Y321902D01*
Y329495D01*
D02*
G37*
G36*
X187516Y327479D02*
X179923D01*
Y319885D01*
X182084Y320465D01*
X184111Y321635D01*
X185767Y323290D01*
X186937Y325317D01*
X187516Y327479D01*
D02*
G37*
G36*
X148423Y341975D02*
X130696D01*
X131275Y339813D01*
X132445Y337786D01*
X134101Y336131D01*
X136128Y334961D01*
X138389Y334355D01*
X138750D01*
X139725Y333085D01*
X139443Y332035D01*
X148307D01*
Y330765D01*
X149577D01*
Y321902D01*
X151738Y322481D01*
X153765Y323652D01*
X154502Y324388D01*
X155761Y324222D01*
X156299Y323290D01*
X157954Y321635D01*
X159981Y320465D01*
X162143Y319885D01*
Y328749D01*
Y337612D01*
X159981Y337033D01*
X157954Y335862D01*
X157218Y335126D01*
X155959Y335292D01*
X155421Y336224D01*
X153765Y337879D01*
X151738Y339049D01*
X149477Y339655D01*
X149116D01*
X148141Y340925D01*
X148423Y341975D01*
D02*
G37*
G36*
X130810Y322472D02*
Y318770D01*
X134513D01*
X133847Y320378D01*
X132418Y321807D01*
X130810Y322472D01*
D02*
G37*
G36*
X128270D02*
X126662Y321807D01*
X125233Y320378D01*
X124567Y318770D01*
X128270D01*
Y322472D01*
D02*
G37*
G36*
X134513Y316230D02*
X130810D01*
Y312528D01*
X132418Y313193D01*
X133847Y314622D01*
X134513Y316230D01*
D02*
G37*
G36*
X128270D02*
X124567D01*
X125233Y314622D01*
X126662Y313193D01*
X128270Y312528D01*
Y316230D01*
D02*
G37*
G36*
X669290Y303423D02*
Y299720D01*
X672992D01*
X672327Y301328D01*
X670898Y302757D01*
X669290Y303423D01*
D02*
G37*
G36*
X666750D02*
X665142Y302757D01*
X663713Y301328D01*
X663047Y299720D01*
X666750D01*
Y303423D01*
D02*
G37*
G36*
X146050Y302153D02*
Y298450D01*
X149753D01*
X149087Y300058D01*
X147658Y301487D01*
X146050Y302153D01*
D02*
G37*
G36*
X143510D02*
X141902Y301487D01*
X140473Y300058D01*
X139808Y298450D01*
X143510D01*
Y302153D01*
D02*
G37*
G36*
X672992Y297180D02*
X669290D01*
Y293477D01*
X670898Y294143D01*
X672327Y295572D01*
X672992Y297180D01*
D02*
G37*
G36*
X666750D02*
X663047D01*
X663713Y295572D01*
X665142Y294143D01*
X666750Y293477D01*
Y297180D01*
D02*
G37*
G36*
X149753Y295910D02*
X146050D01*
Y292208D01*
X147658Y292873D01*
X149087Y294302D01*
X149753Y295910D01*
D02*
G37*
G36*
X143510D02*
X139808D01*
X140473Y294302D01*
X141902Y292873D01*
X143510Y292208D01*
Y295910D01*
D02*
G37*
G36*
X14396Y295420D02*
Y291717D01*
X18098D01*
X17433Y293325D01*
X16004Y294754D01*
X14396Y295420D01*
D02*
G37*
G36*
X11856D02*
X10248Y294754D01*
X8819Y293325D01*
X8153Y291717D01*
X11856D01*
Y295420D01*
D02*
G37*
G36*
X18098Y289177D02*
X14396D01*
Y285475D01*
X16004Y286141D01*
X17433Y287570D01*
X18098Y289177D01*
D02*
G37*
G36*
X11856D02*
X8153D01*
X8819Y287570D01*
X10248Y286141D01*
X11856Y285475D01*
Y289177D01*
D02*
G37*
G36*
X62230Y285643D02*
Y281940D01*
X65932D01*
X65267Y283548D01*
X63838Y284977D01*
X62230Y285643D01*
D02*
G37*
G36*
X59690D02*
X58082Y284977D01*
X56653Y283548D01*
X55988Y281940D01*
X59690D01*
Y285643D01*
D02*
G37*
G36*
X668020Y284373D02*
Y280670D01*
X671722D01*
X671057Y282278D01*
X669628Y283707D01*
X668020Y284373D01*
D02*
G37*
G36*
X665480D02*
X663872Y283707D01*
X662443Y282278D01*
X661777Y280670D01*
X665480D01*
Y284373D01*
D02*
G37*
G36*
X567690D02*
Y280670D01*
X571393D01*
X570727Y282278D01*
X569298Y283707D01*
X567690Y284373D01*
D02*
G37*
G36*
X565150D02*
X563542Y283707D01*
X562113Y282278D01*
X561447Y280670D01*
X565150D01*
Y284373D01*
D02*
G37*
G36*
X643130Y306494D02*
X639570D01*
X636130Y305572D01*
X633046Y303792D01*
X630528Y301274D01*
X628748Y298190D01*
X627826Y294750D01*
Y291189D01*
X628748Y287750D01*
X630528Y284666D01*
X633046Y282148D01*
X636130Y280368D01*
X639570Y279446D01*
X643130D01*
X646570Y280368D01*
X649654Y282148D01*
X652172Y284666D01*
X653952Y287750D01*
X654874Y291189D01*
Y294750D01*
X653952Y298190D01*
X652172Y301274D01*
X649654Y303792D01*
X646570Y305572D01*
X643130Y306494D01*
D02*
G37*
G36*
X264160Y283102D02*
Y279400D01*
X267862D01*
X267197Y281008D01*
X265768Y282437D01*
X264160Y283102D01*
D02*
G37*
G36*
X261620D02*
X260012Y282437D01*
X258583Y281008D01*
X257917Y279400D01*
X261620D01*
Y283102D01*
D02*
G37*
G36*
X220980D02*
Y279400D01*
X224683D01*
X224017Y281008D01*
X222588Y282437D01*
X220980Y283102D01*
D02*
G37*
G36*
X218440D02*
X216832Y282437D01*
X215403Y281008D01*
X214737Y279400D01*
X218440D01*
Y283102D01*
D02*
G37*
G36*
X299176Y282586D02*
Y278884D01*
X302878D01*
X302213Y280491D01*
X300784Y281920D01*
X299176Y282586D01*
D02*
G37*
G36*
X296636D02*
X295028Y281920D01*
X293599Y280491D01*
X292934Y278884D01*
X296636D01*
Y282586D01*
D02*
G37*
G36*
X327660Y281833D02*
Y278130D01*
X331362D01*
X330697Y279738D01*
X329268Y281167D01*
X327660Y281833D01*
D02*
G37*
G36*
X325120D02*
X323512Y281167D01*
X322083Y279738D01*
X321418Y278130D01*
X325120D01*
Y281833D01*
D02*
G37*
G36*
X241300D02*
Y278130D01*
X245002D01*
X244337Y279738D01*
X242908Y281167D01*
X241300Y281833D01*
D02*
G37*
G36*
X238760D02*
X237152Y281167D01*
X235723Y279738D01*
X235058Y278130D01*
X238760D01*
Y281833D01*
D02*
G37*
G36*
X65932Y279400D02*
X62230D01*
Y275697D01*
X63838Y276363D01*
X65267Y277792D01*
X65932Y279400D01*
D02*
G37*
G36*
X59690D02*
X55988D01*
X56653Y277792D01*
X58082Y276363D01*
X59690Y275697D01*
Y279400D01*
D02*
G37*
G36*
X524510Y279293D02*
Y275590D01*
X528213D01*
X527547Y277198D01*
X526118Y278627D01*
X524510Y279293D01*
D02*
G37*
G36*
X521970D02*
X520362Y278627D01*
X518933Y277198D01*
X518268Y275590D01*
X521970D01*
Y279293D01*
D02*
G37*
G36*
X671722Y278130D02*
X668020D01*
Y274428D01*
X669628Y275093D01*
X671057Y276522D01*
X671722Y278130D01*
D02*
G37*
G36*
X665480D02*
X661777D01*
X662443Y276522D01*
X663872Y275093D01*
X665480Y274428D01*
Y278130D01*
D02*
G37*
G36*
X571393D02*
X567690D01*
Y274428D01*
X569298Y275093D01*
X570727Y276522D01*
X571393Y278130D01*
D02*
G37*
G36*
X565150D02*
X561447D01*
X562113Y276522D01*
X563542Y275093D01*
X565150Y274428D01*
Y278130D01*
D02*
G37*
G36*
X267862Y276860D02*
X264160D01*
Y273158D01*
X265768Y273823D01*
X267197Y275252D01*
X267862Y276860D01*
D02*
G37*
G36*
X261620D02*
X257917D01*
X258583Y275252D01*
X260012Y273823D01*
X261620Y273158D01*
Y276860D01*
D02*
G37*
G36*
X224683D02*
X220980D01*
Y273158D01*
X222588Y273823D01*
X224017Y275252D01*
X224683Y276860D01*
D02*
G37*
G36*
X218440D02*
X214737D01*
X215403Y275252D01*
X216832Y273823D01*
X218440Y273158D01*
Y276860D01*
D02*
G37*
G36*
X302878Y276344D02*
X299176D01*
Y272641D01*
X300784Y273307D01*
X302213Y274736D01*
X302878Y276344D01*
D02*
G37*
G36*
X296636D02*
X292934D01*
X293599Y274736D01*
X295028Y273307D01*
X296636Y272641D01*
Y276344D01*
D02*
G37*
G36*
X331362Y275590D02*
X327660D01*
Y271887D01*
X329268Y272553D01*
X330697Y273982D01*
X331362Y275590D01*
D02*
G37*
G36*
X325120D02*
X321418D01*
X322083Y273982D01*
X323512Y272553D01*
X325120Y271887D01*
Y275590D01*
D02*
G37*
G36*
X245002D02*
X241300D01*
Y271887D01*
X242908Y272553D01*
X244337Y273982D01*
X245002Y275590D01*
D02*
G37*
G36*
X238760D02*
X235058D01*
X235723Y273982D01*
X237152Y272553D01*
X238760Y271887D01*
Y275590D01*
D02*
G37*
G36*
X528213Y273050D02*
X524510D01*
Y269347D01*
X526118Y270013D01*
X527547Y271442D01*
X528213Y273050D01*
D02*
G37*
G36*
X521970D02*
X518268D01*
X518933Y271442D01*
X520362Y270013D01*
X521970Y269347D01*
Y273050D01*
D02*
G37*
G36*
X77470Y267862D02*
Y264160D01*
X81173D01*
X80507Y265768D01*
X79078Y267197D01*
X77470Y267862D01*
D02*
G37*
G36*
X74930D02*
X73322Y267197D01*
X71893Y265768D01*
X71227Y264160D01*
X74930D01*
Y267862D01*
D02*
G37*
G36*
X309860Y324570D02*
X307779Y324156D01*
X306014Y322977D01*
X304835Y321212D01*
X304422Y319131D01*
X304835Y317050D01*
X306014Y315285D01*
X357576Y263723D01*
X359341Y262544D01*
X361422Y262131D01*
X411460D01*
X413541Y262544D01*
X415306Y263723D01*
X416484Y265488D01*
X416898Y267569D01*
X416484Y269650D01*
X415306Y271415D01*
X413541Y272593D01*
X411460Y273008D01*
X363675D01*
X313706Y322977D01*
X311941Y324156D01*
X309860Y324570D01*
D02*
G37*
G36*
X81173Y261620D02*
X77470D01*
Y257917D01*
X79078Y258583D01*
X80507Y260012D01*
X81173Y261620D01*
D02*
G37*
G36*
X74930D02*
X71227D01*
X71893Y260012D01*
X73322Y258583D01*
X74930Y257917D01*
Y261620D01*
D02*
G37*
G36*
X669290Y260243D02*
Y256540D01*
X672992D01*
X672327Y258148D01*
X670898Y259577D01*
X669290Y260243D01*
D02*
G37*
G36*
X666750D02*
X665142Y259577D01*
X663713Y258148D01*
X663047Y256540D01*
X666750D01*
Y260243D01*
D02*
G37*
G36*
X383540D02*
Y256540D01*
X387243D01*
X386577Y258148D01*
X385148Y259577D01*
X383540Y260243D01*
D02*
G37*
G36*
X381000D02*
X379392Y259577D01*
X377963Y258148D01*
X377298Y256540D01*
X381000D01*
Y260243D01*
D02*
G37*
G36*
X672992Y254000D02*
X669290D01*
Y250298D01*
X670898Y250963D01*
X672327Y252392D01*
X672992Y254000D01*
D02*
G37*
G36*
X666750D02*
X663047D01*
X663713Y252392D01*
X665142Y250963D01*
X666750Y250298D01*
Y254000D01*
D02*
G37*
G36*
X387243D02*
X383540D01*
Y250298D01*
X385148Y250963D01*
X386577Y252392D01*
X387243Y254000D01*
D02*
G37*
G36*
X381000D02*
X377298D01*
X377963Y252392D01*
X379392Y250963D01*
X381000Y250298D01*
Y254000D01*
D02*
G37*
G36*
X355600Y250082D02*
Y246380D01*
X359302D01*
X358637Y247988D01*
X357208Y249417D01*
X355600Y250082D01*
D02*
G37*
G36*
X353060D02*
X351452Y249417D01*
X350023Y247988D01*
X349357Y246380D01*
X353060D01*
Y250082D01*
D02*
G37*
G36*
X654620Y257510D02*
X641350D01*
Y244240D01*
X654620D01*
Y257510D01*
D02*
G37*
G36*
X638810D02*
X625540D01*
Y244240D01*
X638810D01*
Y257510D01*
D02*
G37*
G36*
X227013Y246950D02*
Y243247D01*
X230715D01*
X230049Y244855D01*
X228620Y246284D01*
X227013Y246950D01*
D02*
G37*
G36*
X224473D02*
X222865Y246284D01*
X221436Y244855D01*
X220770Y243247D01*
X224473D01*
Y246950D01*
D02*
G37*
G36*
X408217Y246854D02*
Y243151D01*
X411919D01*
X411253Y244759D01*
X409824Y246188D01*
X408217Y246854D01*
D02*
G37*
G36*
X405677D02*
X404069Y246188D01*
X402640Y244759D01*
X401974Y243151D01*
X405677D01*
Y246854D01*
D02*
G37*
G36*
X321310Y246273D02*
Y242570D01*
X325013D01*
X324347Y244178D01*
X322918Y245607D01*
X321310Y246273D01*
D02*
G37*
G36*
X318770D02*
X317162Y245607D01*
X315733Y244178D01*
X315068Y242570D01*
X318770D01*
Y246273D01*
D02*
G37*
G36*
X359302Y243840D02*
X355600D01*
Y240138D01*
X357208Y240803D01*
X358637Y242232D01*
X359302Y243840D01*
D02*
G37*
G36*
X353060D02*
X349357D01*
X350023Y242232D01*
X351452Y240803D01*
X353060Y240138D01*
Y243840D01*
D02*
G37*
G36*
X443230Y243732D02*
Y240030D01*
X446932D01*
X446267Y241638D01*
X444838Y243067D01*
X443230Y243732D01*
D02*
G37*
G36*
X440690D02*
X439082Y243067D01*
X437653Y241638D01*
X436987Y240030D01*
X440690D01*
Y243732D01*
D02*
G37*
G36*
X264160Y241192D02*
Y237490D01*
X267862D01*
X267197Y239098D01*
X265768Y240527D01*
X264160Y241192D01*
D02*
G37*
G36*
X261620D02*
X260012Y240527D01*
X258583Y239098D01*
X257917Y237490D01*
X261620D01*
Y241192D01*
D02*
G37*
G36*
X230715Y240707D02*
X227013D01*
Y237005D01*
X228620Y237670D01*
X230049Y239099D01*
X230715Y240707D01*
D02*
G37*
G36*
X224473D02*
X220770D01*
X221436Y239099D01*
X222865Y237670D01*
X224473Y237005D01*
Y240707D01*
D02*
G37*
G36*
X411919Y240611D02*
X408217D01*
Y236908D01*
X409824Y237574D01*
X411253Y239003D01*
X411919Y240611D01*
D02*
G37*
G36*
X405677D02*
X401974D01*
X402640Y239003D01*
X404069Y237574D01*
X405677Y236908D01*
Y240611D01*
D02*
G37*
G36*
X325013Y240030D02*
X321310D01*
Y236327D01*
X322918Y236993D01*
X324347Y238422D01*
X325013Y240030D01*
D02*
G37*
G36*
X318770D02*
X315068D01*
X315733Y238422D01*
X317162Y236993D01*
X318770Y236327D01*
Y240030D01*
D02*
G37*
G36*
X669290Y238652D02*
Y234950D01*
X672992D01*
X672327Y236558D01*
X670898Y237987D01*
X669290Y238652D01*
D02*
G37*
G36*
X666750D02*
X665142Y237987D01*
X663713Y236558D01*
X663047Y234950D01*
X666750D01*
Y238652D01*
D02*
G37*
G36*
X446932Y237490D02*
X443230D01*
Y233787D01*
X444838Y234453D01*
X446267Y235882D01*
X446932Y237490D01*
D02*
G37*
G36*
X440690D02*
X436987D01*
X437653Y235882D01*
X439082Y234453D01*
X440690Y233787D01*
Y237490D01*
D02*
G37*
G36*
X267862Y234950D02*
X264160D01*
Y231248D01*
X265768Y231913D01*
X267197Y233342D01*
X267862Y234950D01*
D02*
G37*
G36*
X261620D02*
X257917D01*
X258583Y233342D01*
X260012Y231913D01*
X261620Y231248D01*
Y234950D01*
D02*
G37*
G36*
X672992Y232410D02*
X669290D01*
Y228708D01*
X670898Y229373D01*
X672327Y230802D01*
X672992Y232410D01*
D02*
G37*
G36*
X666750D02*
X663047D01*
X663713Y230802D01*
X665142Y229373D01*
X666750Y228708D01*
Y232410D01*
D02*
G37*
G36*
X654620Y241700D02*
X641350D01*
Y228430D01*
X654620D01*
Y241700D01*
D02*
G37*
G36*
X638810D02*
X625540D01*
Y228430D01*
X638810D01*
Y241700D01*
D02*
G37*
G36*
X566496Y226978D02*
Y223276D01*
X570198D01*
X569532Y224883D01*
X568103Y226312D01*
X566496Y226978D01*
D02*
G37*
G36*
X563956D02*
X562348Y226312D01*
X560919Y224883D01*
X560253Y223276D01*
X563956D01*
Y226978D01*
D02*
G37*
G36*
X570198Y220736D02*
X566496D01*
Y217033D01*
X568103Y217699D01*
X569532Y219128D01*
X570198Y220736D01*
D02*
G37*
G36*
X563956D02*
X560253D01*
X560919Y219128D01*
X562348Y217699D01*
X563956Y217033D01*
Y220736D01*
D02*
G37*
G36*
X169826Y220231D02*
Y216528D01*
X173528D01*
X172863Y218136D01*
X171434Y219565D01*
X169826Y220231D01*
D02*
G37*
G36*
X167286D02*
X165678Y219565D01*
X164249Y218136D01*
X163584Y216528D01*
X167286D01*
Y220231D01*
D02*
G37*
G36*
X492760Y214522D02*
Y210820D01*
X496463D01*
X495797Y212428D01*
X494368Y213857D01*
X492760Y214522D01*
D02*
G37*
G36*
X490220D02*
X488612Y213857D01*
X487183Y212428D01*
X486517Y210820D01*
X490220D01*
Y214522D01*
D02*
G37*
G36*
X173528Y213988D02*
X169826D01*
Y210286D01*
X171434Y210952D01*
X172863Y212381D01*
X173528Y213988D01*
D02*
G37*
G36*
X167286D02*
X163584D01*
X164249Y212381D01*
X165678Y210952D01*
X167286Y210286D01*
Y213988D01*
D02*
G37*
G36*
X196076Y212731D02*
Y209028D01*
X199778D01*
X199112Y210636D01*
X197683Y212065D01*
X196076Y212731D01*
D02*
G37*
G36*
X193536D02*
X191928Y212065D01*
X190499Y210636D01*
X189833Y209028D01*
X193536D01*
Y212731D01*
D02*
G37*
G36*
X496463Y208280D02*
X492760D01*
Y204578D01*
X494368Y205243D01*
X495797Y206672D01*
X496463Y208280D01*
D02*
G37*
G36*
X490220D02*
X486517D01*
X487183Y206672D01*
X488612Y205243D01*
X490220Y204578D01*
Y208280D01*
D02*
G37*
G36*
X199778Y206488D02*
X196076D01*
Y202786D01*
X197683Y203452D01*
X199112Y204881D01*
X199778Y206488D01*
D02*
G37*
G36*
X193536D02*
X189833D01*
X190499Y204881D01*
X191928Y203452D01*
X193536Y202786D01*
Y206488D01*
D02*
G37*
G36*
X599956Y197320D02*
Y193617D01*
X603659D01*
X602993Y195225D01*
X601564Y196654D01*
X599956Y197320D01*
D02*
G37*
G36*
X597416D02*
X595809Y196654D01*
X594380Y195225D01*
X593714Y193617D01*
X597416D01*
Y197320D01*
D02*
G37*
G36*
X603659Y191077D02*
X599956D01*
Y187375D01*
X601564Y188041D01*
X602993Y189470D01*
X603659Y191077D01*
D02*
G37*
G36*
X597416D02*
X593714D01*
X594380Y189470D01*
X595809Y188041D01*
X597416Y187375D01*
Y191077D01*
D02*
G37*
G36*
X92650Y213437D02*
X85150D01*
X83092Y213028D01*
X81348Y211862D01*
X80182Y210118D01*
X79773Y208060D01*
Y180560D01*
X80182Y178502D01*
X81348Y176758D01*
X83092Y175592D01*
X85150Y175183D01*
X92650D01*
X94708Y175592D01*
X96452Y176758D01*
X97618Y178502D01*
X98027Y180560D01*
Y208060D01*
X97618Y210118D01*
X96452Y211862D01*
X94708Y213028D01*
X92650Y213437D01*
D02*
G37*
G36*
X152650Y215937D02*
X145150D01*
X143092Y215528D01*
X141348Y214362D01*
X140182Y212618D01*
X139773Y210560D01*
Y178060D01*
X140182Y176002D01*
X141348Y174258D01*
X143092Y173092D01*
X145150Y172683D01*
X152650D01*
X154708Y173092D01*
X156452Y174258D01*
X157618Y176002D01*
X158027Y178060D01*
Y210560D01*
X157618Y212618D01*
X156452Y214362D01*
X154708Y215528D01*
X152650Y215937D01*
D02*
G37*
G36*
X551180Y172612D02*
Y168910D01*
X554883D01*
X554217Y170518D01*
X552788Y171947D01*
X551180Y172612D01*
D02*
G37*
G36*
X548640D02*
X547032Y171947D01*
X545603Y170518D01*
X544938Y168910D01*
X548640D01*
Y172612D01*
D02*
G37*
G36*
X554883Y166370D02*
X551180D01*
Y162668D01*
X552788Y163333D01*
X554217Y164762D01*
X554883Y166370D01*
D02*
G37*
G36*
X548640D02*
X544938D01*
X545603Y164762D01*
X547032Y163333D01*
X548640Y162668D01*
Y166370D01*
D02*
G37*
G36*
X132650Y157473D02*
X120170D01*
Y148580D01*
X139063D01*
Y151060D01*
X138575Y153514D01*
X137185Y155595D01*
X135104Y156985D01*
X132650Y157473D01*
D02*
G37*
G36*
X117630D02*
X105150D01*
X102696Y156985D01*
X100615Y155595D01*
X99225Y153514D01*
X98737Y151060D01*
Y148580D01*
X117630D01*
Y157473D01*
D02*
G37*
G36*
X640080Y147212D02*
Y143510D01*
X643783D01*
X643117Y145118D01*
X641688Y146547D01*
X640080Y147212D01*
D02*
G37*
G36*
X637540D02*
X635932Y146547D01*
X634503Y145118D01*
X633838Y143510D01*
X637540D01*
Y147212D01*
D02*
G37*
G36*
X643783Y140970D02*
X640080D01*
Y137268D01*
X641688Y137933D01*
X643117Y139362D01*
X643783Y140970D01*
D02*
G37*
G36*
X637540D02*
X633838D01*
X634503Y139362D01*
X635932Y137933D01*
X637540Y137268D01*
Y140970D01*
D02*
G37*
G36*
X139063Y146040D02*
X120170D01*
Y137147D01*
X132650D01*
X135104Y137635D01*
X137185Y139025D01*
X138575Y141106D01*
X139063Y143560D01*
Y146040D01*
D02*
G37*
G36*
X117630D02*
X98737D01*
Y143560D01*
X99225Y141106D01*
X100615Y139025D01*
X102696Y137635D01*
X105150Y137147D01*
X117630D01*
Y146040D01*
D02*
G37*
G36*
X527050Y121812D02*
Y118110D01*
X530752D01*
X530087Y119718D01*
X528658Y121147D01*
X527050Y121812D01*
D02*
G37*
G36*
X524510D02*
X522902Y121147D01*
X521473Y119718D01*
X520807Y118110D01*
X524510D01*
Y121812D01*
D02*
G37*
G36*
X530752Y115570D02*
X527050D01*
Y111868D01*
X528658Y112533D01*
X530087Y113962D01*
X530752Y115570D01*
D02*
G37*
G36*
X524510D02*
X520807D01*
X521473Y113962D01*
X522902Y112533D01*
X524510Y111868D01*
Y115570D01*
D02*
G37*
G36*
X265430Y109113D02*
Y105410D01*
X269132D01*
X268467Y107018D01*
X267038Y108447D01*
X265430Y109113D01*
D02*
G37*
G36*
X262890D02*
X261282Y108447D01*
X259853Y107018D01*
X259188Y105410D01*
X262890D01*
Y109113D01*
D02*
G37*
G36*
X454660Y106573D02*
Y102870D01*
X458363D01*
X457697Y104478D01*
X456268Y105907D01*
X454660Y106573D01*
D02*
G37*
G36*
X452120D02*
X450512Y105907D01*
X449083Y104478D01*
X448418Y102870D01*
X452120D01*
Y106573D01*
D02*
G37*
G36*
X326390Y105302D02*
Y101600D01*
X330093D01*
X329427Y103208D01*
X327998Y104637D01*
X326390Y105302D01*
D02*
G37*
G36*
X323850D02*
X322242Y104637D01*
X320813Y103208D01*
X320148Y101600D01*
X323850D01*
Y105302D01*
D02*
G37*
G36*
X382637Y103982D02*
Y100280D01*
X386339D01*
X385673Y101887D01*
X384244Y103316D01*
X382637Y103982D01*
D02*
G37*
G36*
X380097D02*
X378489Y103316D01*
X377060Y101887D01*
X376394Y100280D01*
X380097D01*
Y103982D01*
D02*
G37*
G36*
X269132Y102870D02*
X265430D01*
Y99167D01*
X267038Y99833D01*
X268467Y101262D01*
X269132Y102870D01*
D02*
G37*
G36*
X262890D02*
X259188D01*
X259853Y101262D01*
X261282Y99833D01*
X262890Y99167D01*
Y102870D01*
D02*
G37*
G36*
X458363Y100330D02*
X454660D01*
Y96628D01*
X456268Y97293D01*
X457697Y98722D01*
X458363Y100330D01*
D02*
G37*
G36*
X452120D02*
X448418D01*
X449083Y98722D01*
X450512Y97293D01*
X452120Y96628D01*
Y100330D01*
D02*
G37*
G36*
X330093Y99060D02*
X326390D01*
Y95358D01*
X327998Y96023D01*
X329427Y97452D01*
X330093Y99060D01*
D02*
G37*
G36*
X323850D02*
X320148D01*
X320813Y97452D01*
X322242Y96023D01*
X323850Y95358D01*
Y99060D01*
D02*
G37*
G36*
X386339Y97740D02*
X382637D01*
Y94037D01*
X384244Y94703D01*
X385673Y96132D01*
X386339Y97740D01*
D02*
G37*
G36*
X380097D02*
X376394D01*
X377060Y96132D01*
X378489Y94703D01*
X380097Y94037D01*
Y97740D01*
D02*
G37*
G36*
X618968Y90855D02*
Y87152D01*
X622670D01*
X622005Y88760D01*
X620575Y90189D01*
X618968Y90855D01*
D02*
G37*
G36*
X616428D02*
X614820Y90189D01*
X613391Y88760D01*
X612725Y87152D01*
X616428D01*
Y90855D01*
D02*
G37*
G36*
X66864Y113854D02*
X39816D01*
Y86806D01*
X66864D01*
Y113854D01*
D02*
G37*
G36*
X622670Y84612D02*
X618968D01*
Y80910D01*
X620575Y81575D01*
X622005Y83004D01*
X622670Y84612D01*
D02*
G37*
G36*
X616428D02*
X612725D01*
X613391Y83004D01*
X614820Y81575D01*
X616428Y80910D01*
Y84612D01*
D02*
G37*
G36*
X53984Y64870D02*
X53340D01*
Y51600D01*
X66610D01*
Y52244D01*
X65619Y55942D01*
X63705Y59258D01*
X60998Y61965D01*
X57682Y63879D01*
X53984Y64870D01*
D02*
G37*
G36*
X50800D02*
X50156D01*
X46458Y63879D01*
X43142Y61965D01*
X40435Y59258D01*
X38521Y55942D01*
X37530Y52244D01*
Y51600D01*
X50800D01*
Y64870D01*
D02*
G37*
G36*
X598435Y49789D02*
Y46087D01*
X602138D01*
X601472Y47694D01*
X600043Y49123D01*
X598435Y49789D01*
D02*
G37*
G36*
X595895D02*
X594288Y49123D01*
X592859Y47694D01*
X592193Y46087D01*
X595895D01*
Y49789D01*
D02*
G37*
G36*
X415290Y45613D02*
Y41910D01*
X418993D01*
X418327Y43518D01*
X416898Y44947D01*
X415290Y45613D01*
D02*
G37*
G36*
X412750D02*
X411142Y44947D01*
X409713Y43518D01*
X409048Y41910D01*
X412750D01*
Y45613D01*
D02*
G37*
G36*
X349002Y43705D02*
Y40003D01*
X352704D01*
X352038Y41610D01*
X350609Y43039D01*
X349002Y43705D01*
D02*
G37*
G36*
X346462D02*
X344854Y43039D01*
X343425Y41610D01*
X342759Y40003D01*
X346462D01*
Y43705D01*
D02*
G37*
G36*
X602138Y43547D02*
X598435D01*
Y39844D01*
X600043Y40510D01*
X601472Y41939D01*
X602138Y43547D01*
D02*
G37*
G36*
X595895D02*
X592193D01*
X592859Y41939D01*
X594288Y40510D01*
X595895Y39844D01*
Y43547D01*
D02*
G37*
G36*
X500380Y43073D02*
Y39370D01*
X504082D01*
X503417Y40978D01*
X501988Y42407D01*
X500380Y43073D01*
D02*
G37*
G36*
X497840D02*
X496232Y42407D01*
X494803Y40978D01*
X494137Y39370D01*
X497840D01*
Y43073D01*
D02*
G37*
G36*
X287020Y40532D02*
Y36830D01*
X290723D01*
X290057Y38438D01*
X288628Y39867D01*
X287020Y40532D01*
D02*
G37*
G36*
X284480D02*
X282872Y39867D01*
X281443Y38438D01*
X280777Y36830D01*
X284480D01*
Y40532D01*
D02*
G37*
G36*
X66610Y49060D02*
X53340D01*
Y35790D01*
X53984D01*
X57682Y36781D01*
X60998Y38695D01*
X63705Y41402D01*
X65619Y44718D01*
X66610Y48416D01*
Y49060D01*
D02*
G37*
G36*
X50800D02*
X37530D01*
Y48416D01*
X38521Y44718D01*
X40435Y41402D01*
X43142Y38695D01*
X46458Y36781D01*
X50156Y35790D01*
X50800D01*
Y49060D01*
D02*
G37*
G36*
X418993Y39370D02*
X415290D01*
Y35668D01*
X416898Y36333D01*
X418327Y37762D01*
X418993Y39370D01*
D02*
G37*
G36*
X412750D02*
X409048D01*
X409713Y37762D01*
X411142Y36333D01*
X412750Y35668D01*
Y39370D01*
D02*
G37*
G36*
X130810Y37992D02*
Y34290D01*
X134513D01*
X133847Y35898D01*
X132418Y37327D01*
X130810Y37992D01*
D02*
G37*
G36*
X128270D02*
X126662Y37327D01*
X125233Y35898D01*
X124567Y34290D01*
X128270D01*
Y37992D01*
D02*
G37*
G36*
X352704Y37463D02*
X349002D01*
Y33760D01*
X350609Y34426D01*
X352038Y35855D01*
X352704Y37463D01*
D02*
G37*
G36*
X346462D02*
X342759D01*
X343425Y35855D01*
X344854Y34426D01*
X346462Y33760D01*
Y37463D01*
D02*
G37*
G36*
X504082Y36830D02*
X500380D01*
Y33128D01*
X501988Y33793D01*
X503417Y35222D01*
X504082Y36830D01*
D02*
G37*
G36*
X497840D02*
X494137D01*
X494803Y35222D01*
X496232Y33793D01*
X497840Y33128D01*
Y36830D01*
D02*
G37*
G36*
X217170Y36723D02*
Y33020D01*
X220872D01*
X220207Y34628D01*
X218778Y36057D01*
X217170Y36723D01*
D02*
G37*
G36*
X214630D02*
X213022Y36057D01*
X211593Y34628D01*
X210928Y33020D01*
X214630D01*
Y36723D01*
D02*
G37*
G36*
X290723Y34290D02*
X287020D01*
Y30587D01*
X288628Y31253D01*
X290057Y32682D01*
X290723Y34290D01*
D02*
G37*
G36*
X284480D02*
X280777D01*
X281443Y32682D01*
X282872Y31253D01*
X284480Y30587D01*
Y34290D01*
D02*
G37*
G36*
X134513Y31750D02*
X130810D01*
Y28047D01*
X132418Y28713D01*
X133847Y30142D01*
X134513Y31750D01*
D02*
G37*
G36*
X128270D02*
X124567D01*
X125233Y30142D01*
X126662Y28713D01*
X128270Y28047D01*
Y31750D01*
D02*
G37*
G36*
X220872Y30480D02*
X217170D01*
Y26778D01*
X218778Y27443D01*
X220207Y28872D01*
X220872Y30480D01*
D02*
G37*
G36*
X214630D02*
X210928D01*
X211593Y28872D01*
X213022Y27443D01*
X214630Y26778D01*
Y30480D01*
D02*
G37*
%LPD*%
G36*
X327490Y495230D02*
Y467005D01*
X326220Y466479D01*
X318244Y474454D01*
X317320Y475072D01*
X316230Y475289D01*
X316230Y475289D01*
X297539D01*
X296942Y475885D01*
X295637Y476426D01*
X295093Y477677D01*
X308597Y491181D01*
X319822D01*
X319822Y491181D01*
X320912Y491398D01*
X321837Y492016D01*
X325975Y496154D01*
X325993Y496170D01*
X326254Y496211D01*
X327490Y495230D01*
D02*
G37*
G36*
X334971Y495750D02*
Y483793D01*
X334971Y483793D01*
X335188Y482703D01*
X335806Y481779D01*
X348923Y468662D01*
X348625Y467164D01*
X348218Y466995D01*
X347075Y465852D01*
X346456Y464358D01*
Y463397D01*
X345337Y462915D01*
X344424Y463650D01*
Y464358D01*
X343805Y465852D01*
X342662Y466995D01*
X341168Y467614D01*
X339552D01*
X338058Y466995D01*
X336915Y465852D01*
X336746Y465445D01*
X335248Y465147D01*
X333187Y467208D01*
Y495866D01*
X333701Y496443D01*
X333727Y496444D01*
X334971Y495750D01*
D02*
G37*
G36*
X387277Y445548D02*
X386979Y444050D01*
X386572Y443881D01*
X385429Y442738D01*
X385238Y442277D01*
X383740Y441979D01*
X382006Y443712D01*
X382524Y444962D01*
Y446578D01*
X381905Y448072D01*
X380762Y449215D01*
X379268Y449834D01*
X377652D01*
X376158Y449215D01*
X374798Y449651D01*
X358703Y465746D01*
Y465759D01*
X358703Y465759D01*
X358486Y466850D01*
X357868Y467774D01*
X357868Y467774D01*
X357224Y468418D01*
X357710Y469591D01*
X363233D01*
X387277Y445548D01*
D02*
G37*
G36*
X341376Y443265D02*
Y442422D01*
X341544Y442015D01*
X340696Y440745D01*
X332955D01*
X305596Y468104D01*
X305271Y468321D01*
X305656Y469591D01*
X315050D01*
X341376Y443265D01*
D02*
G37*
G36*
X329761Y435882D02*
X330685Y435264D01*
X331775Y435047D01*
X331776Y435047D01*
X348308D01*
X348309Y435047D01*
X349399Y435264D01*
X350323Y435882D01*
X351067Y436626D01*
X352598D01*
X354092Y437245D01*
X355235Y438388D01*
X355404Y438795D01*
X356902Y439093D01*
X358085Y437909D01*
Y437229D01*
X358085Y437229D01*
X358302Y436138D01*
X358920Y435214D01*
X394623Y399511D01*
Y392430D01*
X394623Y392430D01*
X394840Y391340D01*
X395087Y390970D01*
X394245Y389944D01*
X393854Y390106D01*
X392238D01*
X390744Y389487D01*
X390628Y389371D01*
X385554Y394444D01*
X384630Y395062D01*
X383540Y395279D01*
X383540Y395279D01*
X341540D01*
X283483Y453336D01*
X283781Y454834D01*
X284242Y455025D01*
X285385Y456168D01*
X286004Y457662D01*
Y459278D01*
X285385Y460772D01*
X285215Y460943D01*
X285266Y461074D01*
X286212Y462026D01*
X287828D01*
X289322Y462645D01*
X289919Y463241D01*
X302401D01*
X329761Y435882D01*
D02*
G37*
G36*
X399796Y386077D02*
Y385233D01*
X400415Y383740D01*
X401558Y382596D01*
X403052Y381978D01*
X404668D01*
X405075Y382146D01*
X406345Y381298D01*
Y374959D01*
X396240D01*
X396240Y374959D01*
X395150Y374742D01*
X394226Y374124D01*
X386237Y366136D01*
X384840Y366534D01*
X384445Y367486D01*
X383302Y368629D01*
X381808Y369248D01*
X380192D01*
X378698Y368629D01*
X378101Y368033D01*
X354816D01*
X340829Y382020D01*
X341315Y383193D01*
X379333D01*
X379930Y382596D01*
X381423Y381978D01*
X383040D01*
X384534Y382596D01*
X385677Y383740D01*
X385890Y384255D01*
X387388Y384553D01*
X387523Y384419D01*
X387523Y384419D01*
X388447Y383801D01*
X389537Y383584D01*
X389756D01*
X390744Y382596D01*
X392238Y381978D01*
X393854D01*
X395348Y382596D01*
X396491Y383740D01*
X397110Y385233D01*
Y386850D01*
X397027Y387050D01*
X398104Y387769D01*
X399796Y386077D01*
D02*
G37*
G36*
X410409Y369028D02*
Y352285D01*
X403892Y345767D01*
X402394Y346065D01*
X402225Y346472D01*
X401629Y347069D01*
Y361591D01*
X402225Y362188D01*
X402844Y363682D01*
Y365298D01*
X402225Y366792D01*
X401082Y367935D01*
X400947Y367991D01*
X401200Y369261D01*
X407706D01*
X407706Y369261D01*
X408796Y369478D01*
X409139Y369707D01*
X410409Y369028D01*
D02*
G37*
G36*
X270020Y357142D02*
X270020Y357142D01*
X270944Y356524D01*
X272034Y356307D01*
X272034Y356307D01*
X383286D01*
X383286Y356307D01*
X384376Y356524D01*
X385300Y357142D01*
X393446Y365287D01*
X394716Y364761D01*
Y363682D01*
X395335Y362188D01*
X395931Y361591D01*
Y347069D01*
X395335Y346472D01*
X394716Y344978D01*
Y343362D01*
X395335Y341868D01*
X396478Y340725D01*
X396885Y340556D01*
X397183Y339058D01*
X396253Y338129D01*
X328572D01*
X328438Y338262D01*
X326944Y338881D01*
X325328D01*
X323834Y338262D01*
X322691Y337119D01*
X322072Y335625D01*
Y334009D01*
X322240Y333602D01*
X321392Y332332D01*
X292727D01*
X260144Y364915D01*
X260195Y365170D01*
X261573Y365588D01*
X270020Y357142D01*
D02*
G37*
%LPC*%
G36*
X303530Y452012D02*
Y448310D01*
X307232D01*
X306567Y449918D01*
X305138Y451347D01*
X303530Y452012D01*
D02*
G37*
G36*
X300990D02*
X299382Y451347D01*
X297953Y449918D01*
X297288Y448310D01*
X300990D01*
Y452012D01*
D02*
G37*
G36*
X307232Y445770D02*
X303530D01*
Y442067D01*
X305138Y442733D01*
X306567Y444162D01*
X307232Y445770D01*
D02*
G37*
G36*
X300990D02*
X297288D01*
X297953Y444162D01*
X299382Y442733D01*
X300990Y442067D01*
Y445770D01*
D02*
G37*
G36*
X361483Y407465D02*
Y403762D01*
X365186D01*
X364520Y405370D01*
X363091Y406799D01*
X361483Y407465D01*
D02*
G37*
G36*
X358943D02*
X357336Y406799D01*
X355907Y405370D01*
X355241Y403762D01*
X358943D01*
Y407465D01*
D02*
G37*
G36*
X365186Y401222D02*
X361483D01*
Y397520D01*
X363091Y398186D01*
X364520Y399615D01*
X365186Y401222D01*
D02*
G37*
G36*
X358943D02*
X355241D01*
X355907Y399615D01*
X357336Y398186D01*
X358943Y397520D01*
Y401222D01*
D02*
G37*
%LPD*%
D16*
X360934Y437229D02*
Y439089D01*
X397472Y392430D02*
X403860Y386042D01*
X397472Y392430D02*
Y400691D01*
X360934Y437229D02*
X397472Y400691D01*
X378460Y445770D02*
X378946Y445284D01*
X364998Y438912D02*
Y440773D01*
X378946Y442744D02*
X417576Y404114D01*
X373126Y442817D02*
X413512Y402431D01*
X369062Y441133D02*
Y445008D01*
X373126Y442817D02*
Y447294D01*
X388874Y440436D02*
X416560Y412750D01*
X364998Y438912D02*
X401536Y402374D01*
X378946Y442744D02*
Y445284D01*
X369062Y441133D02*
X405600Y404596D01*
X326136Y334817D02*
X326599Y335280D01*
X397384Y329483D02*
X417576Y349675D01*
X256540Y364490D02*
X291547Y329483D01*
X326599Y335280D02*
X397433D01*
X291547Y329483D02*
X397384D01*
X397433Y335280D02*
X413258Y351105D01*
X417576Y349675D02*
Y404114D01*
X413258Y351105D02*
Y388620D01*
X398780Y344170D02*
Y364490D01*
X409194Y373598D02*
Y391662D01*
X396240Y372110D02*
X407706D01*
X409194Y373598D01*
X413258Y388620D02*
X413512Y388874D01*
Y402431D01*
X355854Y464566D02*
X373126Y447294D01*
X401536Y399320D02*
Y402374D01*
Y399320D02*
X409194Y391662D01*
X350343Y446024D02*
X353999D01*
X408178Y400221D02*
Y400909D01*
X405600Y403487D02*
Y404596D01*
Y403487D02*
X408178Y400909D01*
X355683Y450088D02*
X364998Y440773D01*
X353999Y446024D02*
X360934Y439089D01*
X350520Y463550D02*
X369062Y445008D01*
X364413Y472440D02*
X421894Y414959D01*
Y305816D02*
Y414959D01*
Y305816D02*
X457860Y269850D01*
X337820Y483793D02*
X355854Y465759D01*
X337820Y483793D02*
Y503153D01*
X336332Y504640D02*
X337820Y503153D01*
X344606Y482755D02*
X354921Y472440D01*
X355854Y464566D02*
Y465759D01*
X344606Y482755D02*
Y508660D01*
X328129Y504640D02*
X336332D01*
X354921Y472440D02*
X364413D01*
X343118Y510148D02*
X344606Y508660D01*
X323976Y500487D02*
X328129Y504640D01*
X323976Y498184D02*
Y500487D01*
X319822Y494030D02*
X323976Y498184D01*
X307417Y494030D02*
X319822D01*
X281686Y458724D02*
Y468299D01*
X307417Y494030D01*
X281686Y458724D02*
X281940Y458470D01*
X325998Y510148D02*
X343118D01*
X316230Y500380D02*
X325998Y510148D01*
X266838Y465952D02*
X340360Y392430D01*
X266838Y465952D02*
Y499306D01*
X340360Y392430D02*
X383540D01*
X200798Y498925D02*
X251414Y448310D01*
X276860D02*
X339128Y386042D01*
X209804Y444246D02*
X274574D01*
X353636Y365184D01*
X251414Y448310D02*
X276860D01*
X137160Y516890D02*
X209804Y444246D01*
X339128Y386042D02*
X382232D01*
X353636Y365184D02*
X381000D01*
X256540Y392430D02*
X264160Y400050D01*
X340360Y463550D02*
X353822Y450088D01*
X348309Y437896D02*
X351103Y440690D01*
X351790D01*
X331775Y437896D02*
X348309D01*
X330339Y466028D02*
Y499306D01*
X353822Y450088D02*
X355683D01*
X330339Y466028D02*
X350343Y446024D01*
X303581Y466090D02*
X331775Y437896D01*
X287020Y466090D02*
X303581D01*
X316230Y472440D02*
X345440Y443230D01*
X294640Y472440D02*
X316230D01*
X383540Y392430D02*
X389537Y386433D01*
X392654D01*
X393046Y386042D01*
X383286Y359156D02*
X396240Y372110D01*
X272034Y359156D02*
X383286D01*
X261620Y369570D02*
X272034Y359156D01*
X261620Y387350D02*
X264160Y389890D01*
X261620Y369570D02*
Y387350D01*
X256540Y364490D02*
Y392430D01*
X617220Y547370D02*
Y547439D01*
X628731Y558950D02*
Y559019D01*
X617220Y547439D02*
X628731Y558950D01*
X210820Y387350D02*
X215900Y382270D01*
Y361950D02*
Y382270D01*
Y361950D02*
X220980Y356870D01*
X208280Y387350D02*
X210820D01*
X205740Y389890D02*
X208280Y387350D01*
X205740Y389890D02*
Y412369D01*
X627634Y451104D02*
Y465455D01*
X627380Y450850D02*
X627634Y451104D01*
Y465455D02*
X627888Y465709D01*
X205740Y412369D02*
X210334Y416963D01*
X215414D02*
X215900Y417449D01*
X210334Y416963D02*
X215414D01*
D66*
X167640Y516890D02*
X315348D01*
X341661D02*
X360680D01*
X318995Y520537D02*
X338014D01*
X315348Y516890D02*
X318995Y520537D01*
X338014D02*
X341661Y516890D01*
X401320Y549529D02*
X462661D01*
X462896Y549294D01*
X470516D01*
X490220Y529590D01*
X393319Y549529D02*
X401320D01*
X360680Y516890D02*
X393319Y549529D01*
X453390Y330944D02*
Y412060D01*
X467066Y330200D02*
X483870D01*
X453390Y330944D02*
X473184Y311150D01*
X482981D01*
X490220Y336550D02*
Y430530D01*
X465201Y455549D02*
X490220Y430530D01*
X459740Y455549D02*
X465201D01*
X398780D02*
X429260D01*
X459740D01*
X490220Y430530D02*
Y529590D01*
X483870Y330200D02*
X490220Y336550D01*
X361422Y267569D02*
X411460D01*
X309860Y319131D02*
X361422Y267569D01*
D68*
X52070Y50330D02*
D03*
X641350Y292970D02*
D03*
D69*
X53340Y100330D02*
D03*
X640080Y242970D02*
D03*
D70*
X58420Y600710D02*
D03*
D71*
Y575310D02*
D03*
Y549910D02*
D03*
Y524510D02*
D03*
Y499110D02*
D03*
D72*
X148900Y194310D02*
D03*
D73*
X88900D02*
D03*
D74*
X118900Y147310D02*
D03*
D75*
X73120Y355190D02*
D03*
Y399190D02*
D03*
D76*
X670560Y349250D02*
D03*
D77*
Y374650D02*
D03*
Y400050D02*
D03*
D78*
X124914Y437219D02*
D03*
X151130Y441960D02*
D03*
X16168Y461554D02*
D03*
X38221Y468398D02*
D03*
X101600Y579120D02*
D03*
X19970Y652431D02*
D03*
X67310Y652780D02*
D03*
X100330Y655320D02*
D03*
X176530Y651510D02*
D03*
X241300Y647700D02*
D03*
X302104Y647868D02*
D03*
X374650Y651510D02*
D03*
X647700D02*
D03*
X604010Y651670D02*
D03*
X551180Y651510D02*
D03*
X510540Y641350D02*
D03*
X464820Y642620D02*
D03*
X427990Y640080D02*
D03*
X687070Y394970D02*
D03*
X688340Y372110D02*
D03*
X689610Y345440D02*
D03*
X668020Y298450D02*
D03*
X666750Y279400D02*
D03*
X668020Y255270D02*
D03*
Y233680D02*
D03*
X565226Y222006D02*
D03*
X598686Y192348D02*
D03*
X638810Y142240D02*
D03*
X617698Y85882D02*
D03*
X597165Y44817D02*
D03*
X499110Y38100D02*
D03*
X414020Y40640D02*
D03*
X347732Y38733D02*
D03*
X285750Y35560D02*
D03*
X215900Y31750D02*
D03*
X129540Y33020D02*
D03*
X13126Y290447D02*
D03*
X12700Y331470D02*
D03*
Y367030D02*
D03*
X15240Y394970D02*
D03*
X15407Y420488D02*
D03*
X13126Y632658D02*
D03*
X14647Y604521D02*
D03*
X12700Y575310D02*
D03*
Y537210D02*
D03*
Y501650D02*
D03*
X102870Y459740D02*
D03*
X302260Y447040D02*
D03*
X259080Y435610D02*
D03*
X394970Y495300D02*
D03*
X383540Y481330D02*
D03*
X504190Y495300D02*
D03*
X473950Y498730D02*
D03*
X566420Y279400D02*
D03*
X523240Y274320D02*
D03*
X406947Y241881D02*
D03*
X441960Y238760D02*
D03*
X491490Y209550D02*
D03*
X525780Y116840D02*
D03*
X381367Y99010D02*
D03*
X194806Y207759D02*
D03*
X168556Y215258D02*
D03*
X262890Y236220D02*
D03*
X225743Y241977D02*
D03*
X382270Y255270D02*
D03*
X354330Y245110D02*
D03*
X320040Y241300D02*
D03*
X129540Y317500D02*
D03*
X144780Y297180D02*
D03*
X326390Y276860D02*
D03*
X297906Y277614D02*
D03*
X262890Y278130D02*
D03*
X240030Y276860D02*
D03*
X219710Y278130D02*
D03*
X551180Y350520D02*
D03*
X607060Y373380D02*
D03*
X562610Y426720D02*
D03*
X521970Y414020D02*
D03*
X535940Y372110D02*
D03*
X570230Y382270D02*
D03*
X600710Y403860D02*
D03*
X635000Y425450D02*
D03*
X680720Y452120D02*
D03*
X678180Y539750D02*
D03*
X383088Y565013D02*
D03*
X388620Y607060D02*
D03*
X318770Y551180D02*
D03*
X322350Y599826D02*
D03*
X237490Y494030D02*
D03*
X247650Y542290D02*
D03*
X250190Y593090D02*
D03*
X184150Y601980D02*
D03*
X97790Y608330D02*
D03*
X110490Y538480D02*
D03*
X71120Y455930D02*
D03*
X43180Y372110D02*
D03*
X60960Y280670D02*
D03*
X76200Y262890D02*
D03*
X264160Y104140D02*
D03*
X325120Y100330D02*
D03*
X453390Y101600D02*
D03*
X549910Y167640D02*
D03*
X223520Y384810D02*
D03*
X591160Y526390D02*
D03*
X535940Y527050D02*
D03*
X360213Y402492D02*
D03*
X657860Y481711D02*
D03*
X597916D02*
D03*
X537972D02*
D03*
X654660Y620370D02*
D03*
X593065Y621030D02*
D03*
X534416Y575691D02*
D03*
X660400D02*
D03*
X597408D02*
D03*
X326136Y334817D02*
D03*
X398780Y344170D02*
D03*
X408178Y400221D02*
D03*
X378460Y445770D02*
D03*
X388874Y440436D02*
D03*
X281940Y458470D02*
D03*
X264160Y400050D02*
D03*
X351790Y440690D02*
D03*
X345440Y443230D02*
D03*
X287020Y466090D02*
D03*
X294640Y472440D02*
D03*
X350520Y463550D02*
D03*
X382232Y386042D02*
D03*
X515620Y328930D02*
D03*
X316230Y500380D02*
D03*
X381000Y365184D02*
D03*
X457860Y269850D02*
D03*
X398780Y364490D02*
D03*
X264160Y389890D02*
D03*
X393046Y386042D02*
D03*
X403860D02*
D03*
X416560Y412750D02*
D03*
X340360Y463550D02*
D03*
X617220Y547370D02*
D03*
X628731Y559019D02*
D03*
X627380Y450850D02*
D03*
X627888Y465709D02*
D03*
X462896Y549294D02*
D03*
X398780Y455549D02*
D03*
X429260D02*
D03*
X459740D02*
D03*
X431800Y549529D02*
D03*
X401320D02*
D03*
X330339Y499306D02*
D03*
X266838D02*
D03*
X200798Y498925D02*
D03*
X167640Y516890D02*
D03*
X137160D02*
D03*
X233680D02*
D03*
X299720D02*
D03*
X360680D02*
D03*
X309860Y319131D02*
D03*
X411460Y267569D02*
D03*
X220980Y356870D02*
D03*
X215900Y417449D02*
D03*
X467066Y330200D02*
D03*
X482981Y311150D02*
D03*
X453390Y412060D02*
D03*
D79*
X153882Y400094D02*
D03*
X139519Y358485D02*
D03*
X139559Y343245D02*
D03*
X148307Y330765D02*
D03*
X163413Y328749D02*
D03*
X178653D02*
D03*
X203381Y362790D02*
D03*
X167640Y401320D02*
D03*
M02*
