G04*
G04 #@! TF.GenerationSoftware,Altium Limited,Altium Designer,23.3.1 (30)*
G04*
G04 Layer_Color=8388736*
%FSLAX44Y44*%
%MOMM*%
G71*
G04*
G04 #@! TF.SameCoordinates,313F503E-43F4-47E4-83EF-6EFAA7C5E57D*
G04*
G04*
G04 #@! TF.FilePolarity,Negative*
G04*
G01*
G75*
%ADD36R,1.2192X1.1430*%
G04:AMPARAMS|DCode=37|XSize=1.4032mm|YSize=0.8032mm|CornerRadius=0.2516mm|HoleSize=0mm|Usage=FLASHONLY|Rotation=270.000|XOffset=0mm|YOffset=0mm|HoleType=Round|Shape=RoundedRectangle|*
%AMROUNDEDRECTD37*
21,1,1.4032,0.3000,0,0,270.0*
21,1,0.9000,0.8032,0,0,270.0*
1,1,0.5032,-0.1500,-0.4500*
1,1,0.5032,-0.1500,0.4500*
1,1,0.5032,0.1500,0.4500*
1,1,0.5032,0.1500,-0.4500*
%
%ADD37ROUNDEDRECTD37*%
%ADD38R,1.4032X1.4032*%
G04:AMPARAMS|DCode=39|XSize=1.5532mm|YSize=1.3032mm|CornerRadius=0.3766mm|HoleSize=0mm|Usage=FLASHONLY|Rotation=90.000|XOffset=0mm|YOffset=0mm|HoleType=Round|Shape=RoundedRectangle|*
%AMROUNDEDRECTD39*
21,1,1.5532,0.5500,0,0,90.0*
21,1,0.8000,1.3032,0,0,90.0*
1,1,0.7532,0.2750,0.4000*
1,1,0.7532,0.2750,-0.4000*
1,1,0.7532,-0.2750,-0.4000*
1,1,0.7532,-0.2750,0.4000*
%
%ADD39ROUNDEDRECTD39*%
G04:AMPARAMS|DCode=40|XSize=3.5032mm|YSize=2.6032mm|CornerRadius=0.4616mm|HoleSize=0mm|Usage=FLASHONLY|Rotation=90.000|XOffset=0mm|YOffset=0mm|HoleType=Round|Shape=RoundedRectangle|*
%AMROUNDEDRECTD40*
21,1,3.5032,1.6800,0,0,90.0*
21,1,2.5800,2.6032,0,0,90.0*
1,1,0.9232,0.8400,1.2900*
1,1,0.9232,0.8400,-1.2900*
1,1,0.9232,-0.8400,-1.2900*
1,1,0.9232,-0.8400,1.2900*
%
%ADD40ROUNDEDRECTD40*%
G04:AMPARAMS|DCode=41|XSize=1.2032mm|YSize=2.6032mm|CornerRadius=0.3516mm|HoleSize=0mm|Usage=FLASHONLY|Rotation=90.000|XOffset=0mm|YOffset=0mm|HoleType=Round|Shape=RoundedRectangle|*
%AMROUNDEDRECTD41*
21,1,1.2032,1.9000,0,0,90.0*
21,1,0.5000,2.6032,0,0,90.0*
1,1,0.7032,0.9500,0.2500*
1,1,0.7032,0.9500,-0.2500*
1,1,0.7032,-0.9500,-0.2500*
1,1,0.7032,-0.9500,0.2500*
%
%ADD41ROUNDEDRECTD41*%
%ADD42R,0.5080X1.3970*%
%ADD43R,1.3970X0.5080*%
%ADD44R,1.1430X1.2192*%
G04:AMPARAMS|DCode=45|XSize=0.8032mm|YSize=1.7032mm|CornerRadius=0.2516mm|HoleSize=0mm|Usage=FLASHONLY|Rotation=270.000|XOffset=0mm|YOffset=0mm|HoleType=Round|Shape=RoundedRectangle|*
%AMROUNDEDRECTD45*
21,1,0.8032,1.2000,0,0,270.0*
21,1,0.3000,1.7032,0,0,270.0*
1,1,0.5032,-0.6000,-0.1500*
1,1,0.5032,-0.6000,0.1500*
1,1,0.5032,0.6000,0.1500*
1,1,0.5032,0.6000,-0.1500*
%
%ADD45ROUNDEDRECTD45*%
G04:AMPARAMS|DCode=46|XSize=0.8032mm|YSize=1.6532mm|CornerRadius=0.2516mm|HoleSize=0mm|Usage=FLASHONLY|Rotation=0.000|XOffset=0mm|YOffset=0mm|HoleType=Round|Shape=RoundedRectangle|*
%AMROUNDEDRECTD46*
21,1,0.8032,1.1500,0,0,0.0*
21,1,0.3000,1.6532,0,0,0.0*
1,1,0.5032,0.1500,-0.5750*
1,1,0.5032,-0.1500,-0.5750*
1,1,0.5032,-0.1500,0.5750*
1,1,0.5032,0.1500,0.5750*
%
%ADD46ROUNDEDRECTD46*%
G04:AMPARAMS|DCode=47|XSize=0.8532mm|YSize=1.5032mm|CornerRadius=0.2641mm|HoleSize=0mm|Usage=FLASHONLY|Rotation=90.000|XOffset=0mm|YOffset=0mm|HoleType=Round|Shape=RoundedRectangle|*
%AMROUNDEDRECTD47*
21,1,0.8532,0.9750,0,0,90.0*
21,1,0.3250,1.5032,0,0,90.0*
1,1,0.5282,0.4875,0.1625*
1,1,0.5282,0.4875,-0.1625*
1,1,0.5282,-0.4875,-0.1625*
1,1,0.5282,-0.4875,0.1625*
%
%ADD47ROUNDEDRECTD47*%
G04:AMPARAMS|DCode=48|XSize=2.5032mm|YSize=0.7032mm|CornerRadius=0.2266mm|HoleSize=0mm|Usage=FLASHONLY|Rotation=0.000|XOffset=0mm|YOffset=0mm|HoleType=Round|Shape=RoundedRectangle|*
%AMROUNDEDRECTD48*
21,1,2.5032,0.2500,0,0,0.0*
21,1,2.0500,0.7032,0,0,0.0*
1,1,0.4532,1.0250,-0.1250*
1,1,0.4532,-1.0250,-0.1250*
1,1,0.4532,-1.0250,0.1250*
1,1,0.4532,1.0250,0.1250*
%
%ADD48ROUNDEDRECTD48*%
G04:AMPARAMS|DCode=49|XSize=2.7032mm|YSize=2.2032mm|CornerRadius=0.6016mm|HoleSize=0mm|Usage=FLASHONLY|Rotation=0.000|XOffset=0mm|YOffset=0mm|HoleType=Round|Shape=RoundedRectangle|*
%AMROUNDEDRECTD49*
21,1,2.7032,1.0000,0,0,0.0*
21,1,1.5000,2.2032,0,0,0.0*
1,1,1.2032,0.7500,-0.5000*
1,1,1.2032,-0.7500,-0.5000*
1,1,1.2032,-0.7500,0.5000*
1,1,1.2032,0.7500,0.5000*
%
%ADD49ROUNDEDRECTD49*%
G04:AMPARAMS|DCode=50|XSize=1.1032mm|YSize=0.5032mm|CornerRadius=0.1766mm|HoleSize=0mm|Usage=FLASHONLY|Rotation=0.000|XOffset=0mm|YOffset=0mm|HoleType=Round|Shape=RoundedRectangle|*
%AMROUNDEDRECTD50*
21,1,1.1032,0.1500,0,0,0.0*
21,1,0.7500,0.5032,0,0,0.0*
1,1,0.3532,0.3750,-0.0750*
1,1,0.3532,-0.3750,-0.0750*
1,1,0.3532,-0.3750,0.0750*
1,1,0.3532,0.3750,0.0750*
%
%ADD50ROUNDEDRECTD50*%
G04:AMPARAMS|DCode=51|XSize=1.1032mm|YSize=0.5032mm|CornerRadius=0.1766mm|HoleSize=0mm|Usage=FLASHONLY|Rotation=90.000|XOffset=0mm|YOffset=0mm|HoleType=Round|Shape=RoundedRectangle|*
%AMROUNDEDRECTD51*
21,1,1.1032,0.1500,0,0,90.0*
21,1,0.7500,0.5032,0,0,90.0*
1,1,0.3532,0.0750,0.3750*
1,1,0.3532,0.0750,-0.3750*
1,1,0.3532,-0.0750,-0.3750*
1,1,0.3532,-0.0750,0.3750*
%
%ADD51ROUNDEDRECTD51*%
G04:AMPARAMS|DCode=52|XSize=0.5032mm|YSize=0.5032mm|CornerRadius=0.1766mm|HoleSize=0mm|Usage=FLASHONLY|Rotation=0.000|XOffset=0mm|YOffset=0mm|HoleType=Round|Shape=RoundedRectangle|*
%AMROUNDEDRECTD52*
21,1,0.5032,0.1500,0,0,0.0*
21,1,0.1500,0.5032,0,0,0.0*
1,1,0.3532,0.0750,-0.0750*
1,1,0.3532,-0.0750,-0.0750*
1,1,0.3532,-0.0750,0.0750*
1,1,0.3532,0.0750,0.0750*
%
%ADD52ROUNDEDRECTD52*%
%ADD53R,0.5032X0.5032*%
G04:AMPARAMS|DCode=54|XSize=2.0032mm|YSize=2.0032mm|CornerRadius=0.5516mm|HoleSize=0mm|Usage=FLASHONLY|Rotation=0.000|XOffset=0mm|YOffset=0mm|HoleType=Round|Shape=RoundedRectangle|*
%AMROUNDEDRECTD54*
21,1,2.0032,0.9000,0,0,0.0*
21,1,0.9000,2.0032,0,0,0.0*
1,1,1.1032,0.4500,-0.4500*
1,1,1.1032,-0.4500,-0.4500*
1,1,1.1032,-0.4500,0.4500*
1,1,1.1032,0.4500,0.4500*
%
%ADD54ROUNDEDRECTD54*%
%ADD55C,2.6032*%
%ADD56R,2.6032X2.6032*%
%ADD57R,1.5732X1.5732*%
%ADD58C,1.5732*%
G04:AMPARAMS|DCode=59|XSize=1.7032mm|YSize=4.2032mm|CornerRadius=0.4766mm|HoleSize=0mm|Usage=FLASHONLY|Rotation=0.000|XOffset=0mm|YOffset=0mm|HoleType=Round|Shape=RoundedRectangle|*
%AMROUNDEDRECTD59*
21,1,1.7032,3.2500,0,0,0.0*
21,1,0.7500,4.2032,0,0,0.0*
1,1,0.9532,0.3750,-1.6250*
1,1,0.9532,-0.3750,-1.6250*
1,1,0.9532,-0.3750,1.6250*
1,1,0.9532,0.3750,1.6250*
%
%ADD59ROUNDEDRECTD59*%
G04:AMPARAMS|DCode=60|XSize=1.7032mm|YSize=3.7032mm|CornerRadius=0.4766mm|HoleSize=0mm|Usage=FLASHONLY|Rotation=180.000|XOffset=0mm|YOffset=0mm|HoleType=Round|Shape=RoundedRectangle|*
%AMROUNDEDRECTD60*
21,1,1.7032,2.7500,0,0,180.0*
21,1,0.7500,3.7032,0,0,180.0*
1,1,0.9532,-0.3750,1.3750*
1,1,0.9532,0.3750,1.3750*
1,1,0.9532,0.3750,-1.3750*
1,1,0.9532,-0.3750,-1.3750*
%
%ADD60ROUNDEDRECTD60*%
G04:AMPARAMS|DCode=61|XSize=1.7032mm|YSize=3.7032mm|CornerRadius=0.4766mm|HoleSize=0mm|Usage=FLASHONLY|Rotation=270.000|XOffset=0mm|YOffset=0mm|HoleType=Round|Shape=RoundedRectangle|*
%AMROUNDEDRECTD61*
21,1,1.7032,2.7500,0,0,270.0*
21,1,0.7500,3.7032,0,0,270.0*
1,1,0.9532,-1.3750,-0.3750*
1,1,0.9532,-1.3750,0.3750*
1,1,0.9532,1.3750,0.3750*
1,1,0.9532,1.3750,-0.3750*
%
%ADD61ROUNDEDRECTD61*%
%ADD62C,1.6032*%
%ADD63R,1.8532X1.8532*%
%ADD64C,1.8532*%
%ADD65C,0.7112*%
D36*
X459740Y471551D02*
D03*
Y455549D02*
D03*
X429260Y471551D02*
D03*
Y455549D02*
D03*
X398780Y471551D02*
D03*
Y455549D02*
D03*
X401320Y565531D02*
D03*
Y549529D02*
D03*
X462280Y565912D02*
D03*
Y549910D02*
D03*
X431800Y565531D02*
D03*
Y549529D02*
D03*
X515620Y328930D02*
D03*
Y312928D02*
D03*
X259080Y370840D02*
D03*
Y354838D02*
D03*
X657860Y481711D02*
D03*
Y465709D02*
D03*
X627888Y481711D02*
D03*
Y465709D02*
D03*
X597916Y481711D02*
D03*
Y465709D02*
D03*
X567944Y481711D02*
D03*
Y465709D02*
D03*
X537972Y481711D02*
D03*
Y465709D02*
D03*
X508000Y481711D02*
D03*
Y465709D02*
D03*
X660400Y575691D02*
D03*
Y559689D02*
D03*
X628904Y575691D02*
D03*
Y559689D02*
D03*
X597408Y575691D02*
D03*
Y559689D02*
D03*
X565912Y575691D02*
D03*
Y559689D02*
D03*
X534416D02*
D03*
Y575691D02*
D03*
X502920Y559689D02*
D03*
Y575691D02*
D03*
X266700Y483489D02*
D03*
Y499491D02*
D03*
X330200Y483489D02*
D03*
Y499491D02*
D03*
X200660Y483108D02*
D03*
Y499110D02*
D03*
X137160Y483489D02*
D03*
Y499491D02*
D03*
X330200Y516890D02*
D03*
Y532892D02*
D03*
X360680D02*
D03*
Y516890D02*
D03*
X299720Y532892D02*
D03*
Y516890D02*
D03*
X266700D02*
D03*
Y532892D02*
D03*
X167640D02*
D03*
Y516890D02*
D03*
X200660D02*
D03*
Y532892D02*
D03*
X233680D02*
D03*
Y516890D02*
D03*
X137160D02*
D03*
Y532892D02*
D03*
X312420Y199009D02*
D03*
Y215011D02*
D03*
X345440Y199009D02*
D03*
Y215011D02*
D03*
X312420Y163449D02*
D03*
Y179451D02*
D03*
X345440Y163449D02*
D03*
Y179451D02*
D03*
X124460Y108331D02*
D03*
Y92329D02*
D03*
X152400Y108331D02*
D03*
Y92329D02*
D03*
X213360Y108331D02*
D03*
Y92329D02*
D03*
X182880Y108331D02*
D03*
Y92329D02*
D03*
X411480Y267589D02*
D03*
Y283591D02*
D03*
X218440Y303149D02*
D03*
Y319151D02*
D03*
X248920Y303149D02*
D03*
Y319151D02*
D03*
X279400Y303149D02*
D03*
Y319151D02*
D03*
X309880Y303149D02*
D03*
Y319151D02*
D03*
X411480D02*
D03*
Y303149D02*
D03*
X373380D02*
D03*
Y319151D02*
D03*
X340360Y302768D02*
D03*
Y318770D02*
D03*
X215900Y433451D02*
D03*
Y417449D02*
D03*
X180340Y433451D02*
D03*
Y417449D02*
D03*
D37*
X440260Y489190D02*
D03*
X429260D02*
D03*
X418260D02*
D03*
Y519190D02*
D03*
X429260D02*
D03*
X440260D02*
D03*
X442800Y580630D02*
D03*
X431800D02*
D03*
X420800D02*
D03*
Y610630D02*
D03*
X431800D02*
D03*
X442800D02*
D03*
D38*
X256540Y142750D02*
D03*
Y174750D02*
D03*
X220980Y142750D02*
D03*
Y174750D02*
D03*
X187960Y142750D02*
D03*
Y174750D02*
D03*
D39*
X338060Y560030D02*
D03*
Y618530D02*
D03*
X368060Y560030D02*
D03*
Y618530D02*
D03*
X272020Y560030D02*
D03*
Y618530D02*
D03*
X302020Y560030D02*
D03*
Y618530D02*
D03*
X204710Y560030D02*
D03*
Y618530D02*
D03*
X234710Y560030D02*
D03*
Y618530D02*
D03*
X132320Y560030D02*
D03*
Y618530D02*
D03*
X162320Y560030D02*
D03*
Y618530D02*
D03*
D40*
X450640Y173990D02*
D03*
D41*
X392640Y150990D02*
D03*
Y173990D02*
D03*
Y196990D02*
D03*
D42*
X300160Y344850D02*
D03*
X305160D02*
D03*
X310160D02*
D03*
X315160D02*
D03*
X320160D02*
D03*
X325160D02*
D03*
X330160D02*
D03*
X335160D02*
D03*
X340160D02*
D03*
X345160D02*
D03*
X350160D02*
D03*
X355160D02*
D03*
Y429850D02*
D03*
X350160D02*
D03*
X345160D02*
D03*
X340160D02*
D03*
X335160D02*
D03*
X330160D02*
D03*
X325160D02*
D03*
X320160D02*
D03*
X315160D02*
D03*
X310160D02*
D03*
X305160D02*
D03*
X300160D02*
D03*
D43*
X370160Y359850D02*
D03*
Y364850D02*
D03*
Y369850D02*
D03*
Y374850D02*
D03*
Y379850D02*
D03*
Y384850D02*
D03*
Y389850D02*
D03*
Y394850D02*
D03*
Y399850D02*
D03*
Y404850D02*
D03*
Y409850D02*
D03*
Y414850D02*
D03*
X285160D02*
D03*
Y409850D02*
D03*
Y404850D02*
D03*
Y399850D02*
D03*
Y394850D02*
D03*
Y389850D02*
D03*
Y384850D02*
D03*
Y379850D02*
D03*
Y374850D02*
D03*
Y369850D02*
D03*
Y364850D02*
D03*
Y359850D02*
D03*
D44*
X482981Y311150D02*
D03*
X466979D02*
D03*
X482981Y330200D02*
D03*
X466979D02*
D03*
X269240Y212090D02*
D03*
X253238D02*
D03*
X243459Y260350D02*
D03*
X259461D02*
D03*
X185039D02*
D03*
X201041D02*
D03*
X185039Y285750D02*
D03*
X201041D02*
D03*
X185039Y311150D02*
D03*
X201041D02*
D03*
X228981Y346710D02*
D03*
X212979D02*
D03*
D45*
X530860Y602030D02*
D03*
Y621030D02*
D03*
X511860Y611530D02*
D03*
X516940Y517550D02*
D03*
X535940Y527050D02*
D03*
Y508050D02*
D03*
X625500Y516890D02*
D03*
X644500Y526390D02*
D03*
Y507390D02*
D03*
X572160Y516890D02*
D03*
X591160Y526390D02*
D03*
Y507390D02*
D03*
X635660Y610870D02*
D03*
X654660Y620370D02*
D03*
Y601370D02*
D03*
X574065Y611530D02*
D03*
X593065Y621030D02*
D03*
Y602030D02*
D03*
X476860Y260350D02*
D03*
X457860Y250850D02*
D03*
Y269850D02*
D03*
D46*
X440690Y357560D02*
D03*
X453390D02*
D03*
X466090D02*
D03*
X478790D02*
D03*
X440690Y412060D02*
D03*
X453390D02*
D03*
X466090D02*
D03*
X478790D02*
D03*
D47*
X135860Y389230D02*
D03*
Y379730D02*
D03*
Y370230D02*
D03*
X163860D02*
D03*
Y389230D02*
D03*
Y379732D02*
D03*
D48*
X98620Y377190D02*
D03*
Y385190D02*
D03*
Y369190D02*
D03*
Y393190D02*
D03*
Y361190D02*
D03*
D49*
X43620Y332690D02*
D03*
Y421690D02*
D03*
X98620D02*
D03*
Y332690D02*
D03*
D50*
X208020Y392310D02*
D03*
Y387310D02*
D03*
Y382310D02*
D03*
Y377310D02*
D03*
X239020D02*
D03*
Y382310D02*
D03*
Y387310D02*
D03*
Y392310D02*
D03*
D51*
X231020Y369310D02*
D03*
X226020D02*
D03*
X221020D02*
D03*
X216020D02*
D03*
Y400310D02*
D03*
X221020D02*
D03*
X226020D02*
D03*
X231020D02*
D03*
D52*
X211020Y397310D02*
D03*
X236020Y372310D02*
D03*
X211020D02*
D03*
D53*
X236020Y397310D02*
D03*
D54*
X223520Y384810D02*
D03*
D55*
X52070Y50330D02*
D03*
X641350Y292970D02*
D03*
D56*
X53340Y100330D02*
D03*
X640080Y242970D02*
D03*
D57*
X58420Y600710D02*
D03*
D58*
Y575310D02*
D03*
Y549910D02*
D03*
Y524510D02*
D03*
Y499110D02*
D03*
D59*
X148900Y194310D02*
D03*
D60*
X88900D02*
D03*
D61*
X118900Y147310D02*
D03*
D62*
X73120Y355190D02*
D03*
Y399190D02*
D03*
D63*
X670560Y349250D02*
D03*
D64*
Y374650D02*
D03*
Y400050D02*
D03*
D65*
X223520Y384810D02*
D03*
X591160Y526390D02*
D03*
X535940Y527050D02*
D03*
X360213Y402492D02*
D03*
X657860Y481711D02*
D03*
X597916D02*
D03*
X537972D02*
D03*
X654660Y620370D02*
D03*
X593065Y621030D02*
D03*
X534416Y575691D02*
D03*
X660400D02*
D03*
X597408D02*
D03*
X326136Y334817D02*
D03*
X398780Y344170D02*
D03*
X408178Y400221D02*
D03*
X378460Y445770D02*
D03*
X388874Y440436D02*
D03*
X281940Y458470D02*
D03*
X264160Y400050D02*
D03*
X351790Y440690D02*
D03*
X345440Y443230D02*
D03*
X287020Y466090D02*
D03*
X294640Y472440D02*
D03*
X350520Y463550D02*
D03*
X382232Y386042D02*
D03*
X515620Y328930D02*
D03*
X316230Y500380D02*
D03*
X381000Y365184D02*
D03*
X457860Y269850D02*
D03*
X398780Y364490D02*
D03*
X264160Y389890D02*
D03*
X393046Y386042D02*
D03*
X403860D02*
D03*
X416560Y412750D02*
D03*
X340360Y463550D02*
D03*
X617220Y547370D02*
D03*
X628731Y559019D02*
D03*
X627380Y450850D02*
D03*
X627888Y465709D02*
D03*
X462896Y549294D02*
D03*
X398780Y455549D02*
D03*
X429260D02*
D03*
X459740D02*
D03*
X431800Y549529D02*
D03*
X401320D02*
D03*
X330339Y499306D02*
D03*
X266838D02*
D03*
X200798Y498925D02*
D03*
X167640Y516890D02*
D03*
X137160D02*
D03*
X233680D02*
D03*
X299720D02*
D03*
X360680D02*
D03*
X309860Y319131D02*
D03*
X411460Y267569D02*
D03*
X220980Y356870D02*
D03*
X215900Y417449D02*
D03*
X467066Y330200D02*
D03*
X482981Y311150D02*
D03*
X453390Y412060D02*
D03*
M02*
