M48
;Layer_Color=9474304
;FILE_FORMAT=4:4
METRIC,LZ
;TYPE=PLATED
T1F00S00C0.2540
T2F00S00C0.3048
T3F00S00C0.8890
T5F00S00C1.0200
T6F00S00C1.1000
T7F00S00C1.4000
%
T01
X00148307Y00330765
X00163413Y00328749
X00178653
X00203381Y0036279
X0016764Y0040132
X00153882Y00400094
X00139519Y00358485
X00139559Y00343245
T02
X00597165Y00044817
X00617698Y00085882
X0063881Y0014224
X00598686Y00192348
X00565226Y00222006
X0056642Y002794
X0055118Y0035052
X0057023Y0038227
X0060706Y0037338
X0060071Y0040386
X0068707Y0039497
X0068834Y0037211
X0068961Y0034544
X0066802Y0029845
X0066675Y002794
X0066802Y0025527
Y0023368
X0054991Y0016764
X0052578Y0011684
X0045339Y001016
X00381367Y0009901
X0032512Y0010033
X0026416Y0010414
X0028575Y0003556
X00347732Y00038733
X0041402Y0004064
X0049911Y000381
X0049149Y0020955
X0044196Y0023876
X00406947Y00241881
X0041146Y00267569
X0038227Y0025527
X0035433Y0024511
X0032004Y002413
X0032639Y0027686
X00297906Y00277614
X0026289Y0027813
X0024003Y0027686
X0021971Y0027813
X00225743Y00241977
X0026289Y0023622
X00194806Y00207759
X00168556Y00215258
X0014478Y0029718
X0022098Y0035687
X0022352Y0038481
X002159Y00417449
X0026416Y0040005
Y0038989
X00360213Y00402492
X00382232Y00386042
X00393046
X0040386
X00408178Y00400221
X0041656Y0041275
X0045339Y0041206
X0052197Y0041402
X0053594Y0037211
X0051562Y0032893
X00467066Y003302
X00482981Y0031115
X0045786Y0026985
X0052324Y0027432
X0039878Y0034417
Y0036449
X00381Y00365184
X00326136Y00334817
X0030986Y00319131
X002159Y0003175
X0012954Y0003302
X000762Y0026289
X0006096Y0028067
X00013126Y00290447
X000127Y0033147
Y0036703
X0001524Y0039497
X00015407Y00420488
X0004318Y0037211
X0012954Y003175
X00124914Y00437219
X0010287Y0045974
X0007112Y0045593
X00038221Y00468398
X00016168Y00461554
X000127Y0050165
Y0053721
Y0057531
X00014647Y00604521
X00013126Y00632658
X0001997Y00652431
X0006731Y0065278
X0010033Y0065532
X0009779Y0060833
X001016Y0057912
X0011049Y0053848
X0013716Y0051689
X0016764
X00200798Y00498925
X0023749Y0049403
X0023368Y0051689
X0024765Y0054229
X0025019Y0059309
X002413Y006477
X00302104Y00647868
X0032235Y00599826
X0031877Y0055118
X0031623Y0050038
X00330339Y00499306
X0034036Y0046355
X0035052
X0035179Y0044069
X0034544Y0044323
X0037846Y0044577
X00388874Y00440436
X0039878Y00455549
X0042926
X0045974
X0047395Y0049873
X0050419Y004953
X00537972Y00481711
X0053594Y0052705
X00534416Y00575691
X0051054Y0064135
X0046482Y0064262
X0042799Y0064008
X0037465Y0065151
X0038862Y0060706
X00383088Y00565013
X0040132Y00549529
X004318
X00462896Y00549294
X0039497Y004953
X0038354Y0048133
X0036068Y0051689
X0029972
X0029464Y0047244
X0028702Y0046609
X0028194Y0045847
X0030226Y0044704
X0025908Y0043561
X00266838Y00499306
X0015113Y0044196
X0018415Y0060198
X0017653Y0065151
X0055118
X0060401Y0065167
X00593065Y0062103
X00597408Y00575691
X00628731Y00559019
X0061722Y0054737
X0059116Y0052639
X00597916Y00481711
X00627888Y00465709
X0062738Y0045085
X00635Y0042545
X0068072Y0045212
X0065786Y00481711
X0067818Y0053975
X006604Y00575691
X0065466Y0062037
X006477Y0065151
X0056261Y0042672
T03
X0007312Y0035519
Y0039919
T05
X0005842Y0049911
Y0052451
Y0054991
Y0057531
Y0060071
T06
X0067056Y0034925
Y0037465
Y0040005
T07
X0064008Y0024297
X0064135Y0029297
X0005334Y0010033
X0005207Y0005033
M30
